<svg version="1.1" xmlns="http://www.w3.org/2000/svg" xmlns:xlink="http://www.w3.org/1999/xlink" width="600" height="400"><defs/><g transform="scale(1,1)"><g id="background-71b6f0d6"><rect fill="white" stroke="none" x="0" y="0" width="600" height="400" class="dcg-svg-background"/></g><g id="background-images-71b6f0d6"/><g id="graphpaper-71b6f0d6"><g id="grid-71b6f0d6"><g><path fill="none" stroke="rgb(0,0,0)" class="dcg-svg-minor-gridline" paint-order="fill stroke markers" d=" M -0.5 0 L -0.5 400" stroke-opacity="0.12" stroke-miterlimit="10" stroke-dasharray=""/><path fill="none" stroke="rgb(0,0,0)" class="dcg-svg-minor-gridline" paint-order="fill stroke markers" d=" M 29.5 0 L 29.5 400" stroke-opacity="0.12" stroke-miterlimit="10" stroke-dasharray=""/><path fill="none" stroke="rgb(0,0,0)" class="dcg-svg-minor-gridline" paint-order="fill stroke markers" d=" M 59.5 0 L 59.5 400" stroke-opacity="0.12" stroke-miterlimit="10" stroke-dasharray=""/><path fill="none" stroke="rgb(0,0,0)" class="dcg-svg-minor-gridline" paint-order="fill stroke markers" d=" M 89.5 0 L 89.5 400" stroke-opacity="0.12" stroke-miterlimit="10" stroke-dasharray=""/><path fill="none" stroke="rgb(0,0,0)" class="dcg-svg-minor-gridline" paint-order="fill stroke markers" d=" M 119.5 0 L 119.5 400" stroke-opacity="0.12" stroke-miterlimit="10" stroke-dasharray=""/><path fill="none" stroke="rgb(0,0,0)" class="dcg-svg-minor-gridline" paint-order="fill stroke markers" d=" M 149.5 0 L 149.5 400" stroke-opacity="0.12" stroke-miterlimit="10" stroke-dasharray=""/><path fill="none" stroke="rgb(0,0,0)" class="dcg-svg-minor-gridline" paint-order="fill stroke markers" d=" M 179.5 0 L 179.5 400" stroke-opacity="0.12" stroke-miterlimit="10" stroke-dasharray=""/><path fill="none" stroke="rgb(0,0,0)" class="dcg-svg-minor-gridline" paint-order="fill stroke markers" d=" M 209.5 0 L 209.5 400" stroke-opacity="0.12" stroke-miterlimit="10" stroke-dasharray=""/><path fill="none" stroke="rgb(0,0,0)" class="dcg-svg-minor-gridline" paint-order="fill stroke markers" d=" M 239.5 0 L 239.5 400" stroke-opacity="0.12" stroke-miterlimit="10" stroke-dasharray=""/><path fill="none" stroke="rgb(0,0,0)" class="dcg-svg-minor-gridline" paint-order="fill stroke markers" d=" M 269.5 0 L 269.5 400" stroke-opacity="0.12" stroke-miterlimit="10" stroke-dasharray=""/><path fill="none" stroke="rgb(0,0,0)" class="dcg-svg-minor-gridline" paint-order="fill stroke markers" d=" M 329.5 0 L 329.5 400" stroke-opacity="0.12" stroke-miterlimit="10" stroke-dasharray=""/><path fill="none" stroke="rgb(0,0,0)" class="dcg-svg-minor-gridline" paint-order="fill stroke markers" d=" M 359.5 0 L 359.5 400" stroke-opacity="0.12" stroke-miterlimit="10" stroke-dasharray=""/><path fill="none" stroke="rgb(0,0,0)" class="dcg-svg-minor-gridline" paint-order="fill stroke markers" d=" M 389.5 0 L 389.5 400" stroke-opacity="0.12" stroke-miterlimit="10" stroke-dasharray=""/><path fill="none" stroke="rgb(0,0,0)" class="dcg-svg-minor-gridline" paint-order="fill stroke markers" d=" M 419.5 0 L 419.5 400" stroke-opacity="0.12" stroke-miterlimit="10" stroke-dasharray=""/><path fill="none" stroke="rgb(0,0,0)" class="dcg-svg-minor-gridline" paint-order="fill stroke markers" d=" M 449.5 0 L 449.5 400" stroke-opacity="0.12" stroke-miterlimit="10" stroke-dasharray=""/><path fill="none" stroke="rgb(0,0,0)" class="dcg-svg-minor-gridline" paint-order="fill stroke markers" d=" M 479.5 0 L 479.5 400" stroke-opacity="0.12" stroke-miterlimit="10" stroke-dasharray=""/><path fill="none" stroke="rgb(0,0,0)" class="dcg-svg-minor-gridline" paint-order="fill stroke markers" d=" M 509.5 0 L 509.5 400" stroke-opacity="0.12" stroke-miterlimit="10" stroke-dasharray=""/><path fill="none" stroke="rgb(0,0,0)" class="dcg-svg-minor-gridline" paint-order="fill stroke markers" d=" M 539.5 0 L 539.5 400" stroke-opacity="0.12" stroke-miterlimit="10" stroke-dasharray=""/><path fill="none" stroke="rgb(0,0,0)" class="dcg-svg-minor-gridline" paint-order="fill stroke markers" d=" M 569.5 0 L 569.5 400" stroke-opacity="0.12" stroke-miterlimit="10" stroke-dasharray=""/><path fill="none" stroke="rgb(0,0,0)" class="dcg-svg-minor-gridline" paint-order="fill stroke markers" d=" M 0 370.5 L 600 370.5" stroke-opacity="0.12" stroke-miterlimit="10" stroke-dasharray=""/><path fill="none" stroke="rgb(0,0,0)" class="dcg-svg-minor-gridline" paint-order="fill stroke markers" d=" M 0 342.5 L 600 342.5" stroke-opacity="0.12" stroke-miterlimit="10" stroke-dasharray=""/><path fill="none" stroke="rgb(0,0,0)" class="dcg-svg-minor-gridline" paint-order="fill stroke markers" d=" M 0 313.5 L 600 313.5" stroke-opacity="0.12" stroke-miterlimit="10" stroke-dasharray=""/><path fill="none" stroke="rgb(0,0,0)" class="dcg-svg-minor-gridline" paint-order="fill stroke markers" d=" M 0 285.5 L 600 285.5" stroke-opacity="0.12" stroke-miterlimit="10" stroke-dasharray=""/><path fill="none" stroke="rgb(0,0,0)" class="dcg-svg-minor-gridline" paint-order="fill stroke markers" d=" M 0 256.5 L 600 256.5" stroke-opacity="0.12" stroke-miterlimit="10" stroke-dasharray=""/><path fill="none" stroke="rgb(0,0,0)" class="dcg-svg-minor-gridline" paint-order="fill stroke markers" d=" M 0 228.5 L 600 228.5" stroke-opacity="0.12" stroke-miterlimit="10" stroke-dasharray=""/><path fill="none" stroke="rgb(0,0,0)" class="dcg-svg-minor-gridline" paint-order="fill stroke markers" d=" M 0 170.5 L 600 170.5" stroke-opacity="0.12" stroke-miterlimit="10" stroke-dasharray=""/><path fill="none" stroke="rgb(0,0,0)" class="dcg-svg-minor-gridline" paint-order="fill stroke markers" d=" M 0 142.5 L 600 142.5" stroke-opacity="0.12" stroke-miterlimit="10" stroke-dasharray=""/><path fill="none" stroke="rgb(0,0,0)" class="dcg-svg-minor-gridline" paint-order="fill stroke markers" d=" M 0 113.5 L 600 113.5" stroke-opacity="0.12" stroke-miterlimit="10" stroke-dasharray=""/><path fill="none" stroke="rgb(0,0,0)" class="dcg-svg-minor-gridline" paint-order="fill stroke markers" d=" M 0 85.5 L 600 85.5" stroke-opacity="0.12" stroke-miterlimit="10" stroke-dasharray=""/><path fill="none" stroke="rgb(0,0,0)" class="dcg-svg-minor-gridline" paint-order="fill stroke markers" d=" M 0 56.5 L 600 56.5" stroke-opacity="0.12" stroke-miterlimit="10" stroke-dasharray=""/><path fill="none" stroke="rgb(0,0,0)" class="dcg-svg-minor-gridline" paint-order="fill stroke markers" d=" M 0 28.5 L 600 28.5" stroke-opacity="0.12" stroke-miterlimit="10" stroke-dasharray=""/><path fill="none" stroke="rgb(0,0,0)" class="dcg-svg-minor-gridline" paint-order="fill stroke markers" d=" M 0 -0.5 L 600 -0.5" stroke-opacity="0.12" stroke-miterlimit="10" stroke-dasharray=""/><path fill="none" stroke="rgb(0,0,0)" class="dcg-svg-major-gridline" paint-order="fill stroke markers" d=" M -0.5 0 L -0.5 400" stroke-opacity="0.31818181818181823" stroke-miterlimit="10" stroke-dasharray=""/><path fill="none" stroke="rgb(0,0,0)" class="dcg-svg-major-gridline" paint-order="fill stroke markers" d=" M 149.5 0 L 149.5 400" stroke-opacity="0.31818181818181823" stroke-miterlimit="10" stroke-dasharray=""/><path fill="none" stroke="rgb(0,0,0)" class="dcg-svg-major-gridline" paint-order="fill stroke markers" d=" M 449.5 0 L 449.5 400" stroke-opacity="0.31818181818181823" stroke-miterlimit="10" stroke-dasharray=""/><path fill="none" stroke="rgb(0,0,0)" class="dcg-svg-major-gridline" paint-order="fill stroke markers" d=" M 0 342.5 L 600 342.5" stroke-opacity="0.31818181818181823" stroke-miterlimit="10" stroke-dasharray=""/><path fill="none" stroke="rgb(0,0,0)" class="dcg-svg-major-gridline" paint-order="fill stroke markers" d=" M 0 56.5 L 600 56.5" stroke-opacity="0.31818181818181823" stroke-miterlimit="10" stroke-dasharray=""/></g></g><g id="axis-71b6f0d6"><g id="yaxis-71b6f0d6"><title>Y axis</title><path fill="none" stroke="rgb(0,0,0)" class="dcg-svg-axis-line" paint-order="fill stroke markers" d=" M 299.75 0 L 299.75 400" stroke-opacity="0.9" stroke-miterlimit="10" stroke-width="1.5" stroke-dasharray=""/></g><g id="xaxis-71b6f0d6"><title>X axis</title><path fill="none" stroke="rgb(0,0,0)" class="dcg-svg-axis-line" paint-order="fill stroke markers" d=" M 0 199.75 L 600 199.75" stroke-opacity="0.9" stroke-miterlimit="10" stroke-width="1.5" stroke-dasharray=""/></g><g><g class="dcg-svg-axis-value"><text fill="none" stroke="#ffffff" font-family="Arial" font-size="14px" font-style="normal" font-weight="normal" text-decoration="normal" x="291.10693359375" y="215.808" text-anchor="middle" stroke-miterlimit="2" stroke-width="3" stroke-dasharray="">0</text><text fill="#000000" stroke="none" font-family="Arial" font-size="14px" font-style="normal" font-weight="normal" text-decoration="normal" x="291.10693359375" y="215.808" text-anchor="middle">0</text></g><g class="dcg-svg-axis-value dcg-svg-offcenter-axis-value"><text fill="none" stroke="#ffffff" font-family="Arial" font-size="14px" font-style="normal" font-weight="normal" text-decoration="normal" x="13.1171875" y="215.808" text-anchor="middle" stroke-miterlimit="2" stroke-width="3" stroke-dasharray="">-10</text><text fill="#000000" stroke="none" font-family="Arial" font-size="14px" font-style="normal" font-weight="normal" text-decoration="normal" x="13.1171875" y="215.808" text-anchor="middle">-10</text></g><g class="dcg-svg-axis-value"><text fill="none" stroke="#ffffff" font-family="Arial" font-size="14px" font-style="normal" font-weight="normal" text-decoration="normal" x="147.6689453125" y="215.808" text-anchor="middle" stroke-miterlimit="2" stroke-width="3" stroke-dasharray="">-5</text><text fill="#000000" stroke="none" font-family="Arial" font-size="14px" font-style="normal" font-weight="normal" text-decoration="normal" x="147.6689453125" y="215.808" text-anchor="middle">-5</text></g><g class="dcg-svg-axis-value"><text fill="none" stroke="#ffffff" font-family="Arial" font-size="14px" font-style="normal" font-weight="normal" text-decoration="normal" x="450" y="215.808" text-anchor="middle" stroke-miterlimit="2" stroke-width="3" stroke-dasharray="">5</text><text fill="#000000" stroke="none" font-family="Arial" font-size="14px" font-style="normal" font-weight="normal" text-decoration="normal" x="450" y="215.808" text-anchor="middle">5</text></g><g class="dcg-svg-axis-value dcg-svg-offcenter-axis-value"><text fill="none" stroke="#ffffff" font-family="Arial" font-size="14px" font-style="normal" font-weight="normal" text-decoration="normal" x="589.2138671875" y="215.808" text-anchor="middle" stroke-miterlimit="2" stroke-width="3" stroke-dasharray="">10</text><text fill="#000000" stroke="none" font-family="Arial" font-size="14px" font-style="normal" font-weight="normal" text-decoration="normal" x="589.2138671875" y="215.808" text-anchor="middle">10</text></g><g class="dcg-svg-axis-value"><text fill="none" stroke="#ffffff" font-family="Arial" font-size="14px" font-style="normal" font-weight="normal" text-decoration="normal" x="288.77587890625" y="346.6651428571428" text-anchor="middle" stroke-miterlimit="2" stroke-width="3" stroke-dasharray="">-5</text><text fill="#000000" stroke="none" font-family="Arial" font-size="14px" font-style="normal" font-weight="normal" text-decoration="normal" x="288.77587890625" y="346.6651428571428" text-anchor="middle">-5</text></g><g class="dcg-svg-axis-value"><text fill="none" stroke="#ffffff" font-family="Arial" font-size="14px" font-style="normal" font-weight="normal" text-decoration="normal" x="291.10693359375" y="60.95085714285717" text-anchor="middle" stroke-miterlimit="2" stroke-width="3" stroke-dasharray="">5</text><text fill="#000000" stroke="none" font-family="Arial" font-size="14px" font-style="normal" font-weight="normal" text-decoration="normal" x="291.10693359375" y="60.95085714285717" text-anchor="middle">5</text></g></g></g></g><g id="expressions-71b6f0d6"><g id="sketch-71b6f0d6"><title>Expression 2</title><path fill="#388c46" stroke="none" paint-order="stroke fill markers" d="" fill-opacity="0.4"/><path fill="#388c46" stroke="none" paint-order="stroke fill markers" d="" fill-opacity="0.4"/><path fill="#388c46" stroke="none" paint-order="stroke fill markers" d="" fill-opacity="0.4"/><path fill="#388c46" stroke="none" paint-order="stroke fill markers" d="" fill-opacity="0.4"/><path fill="#388c46" stroke="none" paint-order="stroke fill markers" d="" fill-opacity="0.4"/><path fill="#388c46" stroke="none" paint-order="stroke fill markers" d="" fill-opacity="0.4"/><path fill="#388c46" stroke="none" paint-order="stroke fill markers" d="" fill-opacity="0.4"/><path fill="#388c46" stroke="none" paint-order="stroke fill markers" d="" fill-opacity="0.4"/><path fill="#388c46" stroke="none" paint-order="stroke fill markers" d="" fill-opacity="0.4"/><path fill="#388c46" stroke="none" paint-order="stroke fill markers" d="" fill-opacity="0.4"/><g><path fill="none" stroke="#388c46" class="dcg-svg-curve" paint-order="fill stroke markers" d=" M -0.5 196.64285714285714 L -0.5 196.64285714285714 L 57.068359375 195.96439361242986 L 99.255859375 195.21951092068136 L 131.189453125 194.40737287081933 L 156.091796875 193.52305559608928 L 175.720703125 192.57523245984783 L 191.541015625 191.56047683659622 L 204.578125 190.47001763668428 L 215.41796875 189.30587356893975 L 224.5 188.07142857142856 L 232.1171875 186.77950310559007 L 238.708984375 185.40017211703957 L 244.421875 183.93768996960486 L 249.40234375 182.390559732665 L 253.796875 180.74542124542123 L 257.751953125 178.96867167919797 L 261.267578125 177.0807334428024 L 264.490234375 175.01703526598922 L 267.56640625 172.65858453473132 L 270.349609375 170.09583632447954 L 272.986328125 167.17166535122337 L 275.330078125 164.03679653679652 L 277.52734375 160.4904761904762 L 279.431640625 156.788842544317 L 281.189453125 152.68857142857144 L 282.80078125 148.171679197995 L 284.412109375 142.6900138696255 L 285.876953125 136.58141321044548 L 287.1953125 129.84013605442175 L 288.513671875 121.48095238095237 L 289.685546875 112.1652452025586 L 290.857421875 100.3232445520581 L 291.8828125 86.97252747252747 L 292.908203125 69.46825396825398 L 293.787109375 49.463369963369985 L 294.666015625 22.183982683982663 L 295.3063840866089 -5.5" stroke-linecap="round" stroke-linejoin="round" stroke-miterlimit="10" stroke-width="2.5" stroke-opacity="0.9" stroke-dasharray=""/></g><g><path fill="none" stroke="#388c46" class="dcg-svg-curve" paint-order="fill stroke markers" d=" M 303.6725730895996 405.5 L 303.6725730895996 405.5 L 304.48046875 371.6008403361344 L 305.359375 345.7857142857143 L 306.384765625 323.9984802431611 L 307.41015625 307.85978835978835 L 308.58203125 293.8778801843318 L 309.75390625 283.09183673469386 L 311.072265625 273.56871609403254 L 312.537109375 265.2463884430176 L 314.001953125 258.6053391053391 L 315.61328125 252.69480519480518 L 317.37109375 247.46252927400465 L 319.12890625 243.16737739872067 L 321.033203125 239.3056365403304 L 323.083984375 235.84427684117125 L 325.427734375 232.55891848264727 L 327.91796875 229.66200294550808 L 330.84765625 226.84312416555406 L 333.923828125 224.3996960486322 L 337.146484375 222.2682045580878 L 340.662109375 220.3235892221657 L 344.470703125 218.56002791996278 L 348.71875 216.91496598639455 L 353.552734375 215.35753000387146 L 358.97265625 213.91238564391273 L 365.125 212.5612244897959 L 372.15625 211.29723502304148 L 380.359375 210.10041407867493 L 389.880859375 208.98367677703172 L 401.16015625 207.9314532729518 L 414.63671875 206.94456561250453 L 430.896484375 206.02333174072302 L 450.818359375 205.16450006914673 L 475.57421875 204.36807701449962 L 506.921875 203.6323648103309 L 547.205078125 202.960336233843 L 599.5 202.35714285714283" stroke-linecap="round" stroke-linejoin="round" stroke-miterlimit="10" stroke-width="2.5" stroke-opacity="0.9" stroke-dasharray=""/></g><g><path fill="none" stroke="#388c46" class="dcg-svg-curve" paint-order="fill stroke markers" d=" M -0.5 193.78571428571428 L -0.5 193.78571428571428 L 41.541015625 192.85442524539627 L 75.232421875 191.85606979565176 L 102.625 190.7925170068027 L 125.330078125 189.65739517001083 L 144.2265625 188.45956873315362 L 160.193359375 187.1941565269641 L 173.81640625 185.86030636030634 L 185.53515625 184.45776716856406 L 195.7890625 182.97054075867632 L 204.724609375 181.41212188120997 L 212.634765625 179.76499638641292 L 219.51953125 178.06619570905283 L 225.671875 176.28004535147392 L 231.23828125 174.386572654813 L 236.365234375 172.34719920450777 L 240.90625 170.24285714285713 L 245.154296875 167.95591066615324 L 249.109375 165.48006644518273 L 252.771484375 162.8139274518585 L 256.287109375 159.82929782082323 L 259.65625 156.47478991596634 L 262.732421875 152.87507114399543 L 265.515625 149.05665024630542 L 268.005859375 145.06810631229237 L 270.349609375 140.69167264895907 L 272.546875 135.8975155279503 L 274.59765625 130.65966386554624 L 276.501953125 124.95950864422201 L 278.40625 118.23015873015873 L 280.1640625 110.84199134199133 L 281.775390625 102.78217237308144 L 283.38671875 93.11038961038963 L 284.8515625 82.47142857142859 L 286.31640625 69.46825396825398 L 287.634765625 55.02028218694886 L 288.953125 36.96031746031747 L 290.125 16.64285714285711 L 291.11834716796875 -5.5" stroke-linecap="round" stroke-linejoin="round" stroke-miterlimit="10" stroke-width="2.5" stroke-opacity="0.9" stroke-dasharray=""/></g><g><path fill="none" stroke="#388c46" class="dcg-svg-curve" paint-order="fill stroke markers" d=" M 307.8593797683716 405.5 L 307.8593797683716 405.5 L 308.58203125 388.2557603686636 L 309.75390625 366.6836734693877 L 311.072265625 347.6374321880651 L 312.390625 332.487012987013 L 313.85546875 318.91690962099125 L 315.466796875 306.8656618610747 L 317.078125 297.0238095238095 L 318.8359375 288.1580086580086 L 320.59375 280.7698412698412 L 322.498046875 274.040491355778 L 324.548828125 267.93776106934 L 326.599609375 262.75868725868725 L 328.796875 258.01428571428573 L 331.140625 253.67989417989418 L 333.77734375 249.51221001221 L 336.560546875 245.75635234330886 L 339.63671875 242.21115745568298 L 343.005859375 238.9035594035594 L 346.66796875 235.84427684117125 L 350.4765625 233.12889983579637 L 354.431640625 230.70761904761903 L 358.6796875 228.46746817538894 L 363.3671875 226.34141546526865 L 368.494140625 224.34683045192597 L 374.060546875 222.49186079146787 L 380.212890625 220.73930515945034 L 387.09765625 219.06999522216913 L 394.71484375 217.5043956043956 L 403.357421875 216.00614547652629 L 413.171875 214.58100147275402 L 424.3046875 213.23574782025483 L 437.1953125 211.9498480243161 L 452.13671875 210.7311488894982 L 469.568359375 209.57998031253842 L 490.076171875 208.49527835730754 L 514.5390625 207.47197353055662 L 543.8359375 206.5161014045906 L 579.431640625 205.62394408312772 L 599.5 205.2142857142857" stroke-linecap="round" stroke-linejoin="round" stroke-miterlimit="10" stroke-width="2.5" stroke-opacity="0.9" stroke-dasharray=""/></g><g><path fill="none" stroke="#388c46" class="dcg-svg-curve" paint-order="fill stroke markers" d=" M -0.5 190.92857142857142 L -0.5 190.92857142857142 L 34.216796875 189.80685493413267 L 63.220703125 188.6169958373926 L 87.68359375 187.36010669828096 L 108.484375 186.03812445223488 L 126.35546875 184.64865844815083 L 141.8828125 183.18560807222516 L 155.359375 181.6602787456446 L 167.224609375 180.06003796867583 L 177.771484375 178.3757091284167 L 187.146484375 176.6130564350903 L 195.49609375 174.77565392354123 L 202.966796875 172.86223715586385 L 209.705078125 170.86331857375902 L 215.857421875 168.75694270703025 L 221.423828125 166.56512999195925 L 226.55078125 164.25043029259896 L 231.384765625 161.74884792626727 L 235.92578125 159.05233706385778 L 240.173828125 156.15608465608463 L 244.12890625 153.06009070294783 L 247.9375 149.62987012987014 L 251.599609375 145.81716906946266 L 254.96875 141.75563909774434 L 258.044921875 137.47072185764767 L 260.828125 133.00649350649348 L 263.46484375 128.14111498257842 L 265.955078125 122.84373050530252 L 268.298828125 117.0855130784708 L 270.49609375 110.84199134199133 L 272.546875 104.09627329192546 L 274.59765625 96.2394957983193 L 276.501953125 87.68926296633305 L 278.259765625 78.43596059113298 L 280.017578125 67.51288936627282 L 281.62890625 55.61241217798596 L 283.240234375 41.353281853281885 L 284.705078125 25.695190947666163 L 286.169921875 6.595761381475654 L 286.9230980873108 -5.5" stroke-linecap="round" stroke-linejoin="round" stroke-miterlimit="10" stroke-width="2.5" stroke-opacity="0.9" stroke-dasharray=""/></g><g><path fill="none" stroke="#388c46" class="dcg-svg-curve" paint-order="fill stroke markers" d=" M 312.0124168395996 405.5 L 312.0124168395996 405.5 L 312.390625 398.98051948051943 L 313.85546875 378.62536443148684 L 315.3203125 362.03968253968253 L 316.931640625 347.0150060024009 L 318.689453125 333.50218102508177 L 320.447265625 322.25724275724275 L 322.3515625 312.0274725274725 L 324.255859375 303.3715131022823 L 326.306640625 295.42505854800936 L 328.50390625 288.1580086580086 L 330.701171875 281.91448692152915 L 333.044921875 276.1562694946974 L 335.53515625 270.8588850174216 L 338.171875 265.9935064935065 L 340.955078125 261.5292781423523 L 344.03125 257.2443609022556 L 347.25390625 253.34750219106044 L 350.916015625 249.51221001221 L 354.87109375 245.93990929705214 L 358.97265625 242.7371569317382 L 363.220703125 239.85467980295564 L 367.76171875 237.17014101778048 L 372.595703125 234.6789292871457 L 377.72265625 232.3731942215088 L 383.2890625 230.18931068931067 L 389.294921875 228.13668142624095 L 395.88671875 226.17824576639165 L 403.2109375 224.29418886198545 L 411.267578125 222.50692754165885 L 420.203125 220.80374479889042 L 430.1640625 219.1796925048046 L 441.443359375 217.6158779301194 L 454.1875 216.12337662337663 L 468.54296875 214.71168606090615 L 484.94921875 213.3659444820582 L 503.845703125 212.0837173579109 L 525.818359375 210.8619972260749 L 551.453125 209.70598006644516 L 581.62890625 208.61437472185133 L 599.5 208.07142857142856" stroke-linecap="round" stroke-linejoin="round" stroke-miterlimit="10" stroke-width="2.5" stroke-opacity="0.9" stroke-dasharray=""/></g><g><path fill="none" stroke="#388c46" class="dcg-svg-curve" paint-order="fill stroke markers" d=" M -0.5 188.07142857142856 L -0.5 188.07142857142856 L 29.822265625 186.78641266392486 L 55.75 185.43406593406593 L 78.162109375 184.009785383379 L 97.64453125 182.51472112792868 L 114.63671875 180.95347520941814 L 129.578125 179.32266009852216 L 142.76171875 177.62550066755674 L 154.48046875 175.85786435786434 L 165.02734375 174.00357920946155 L 174.40234375 172.09284041485446 L 182.8984375 170.09583632447954 L 190.662109375 167.99836569890405 L 197.693359375 165.82271325796506 L 204.138671875 163.54652183454027 L 210.14453125 161.1299765807962 L 215.7109375 158.58091908091907 L 220.837890625 155.91393987762703 L 225.671875 153.06009070294783 L 230.212890625 150.01646028390215 L 234.4609375 146.7844272844273 L 238.5625 143.23626373626377 L 242.517578125 139.3310686742563 L 246.326171875 135.02144824872096 L 249.6953125 130.65966386554624 L 252.91796875 125.8971248876909 L 255.84765625 120.95733461169704 L 258.630859375 115.60855094726065 L 261.267578125 109.82293377120965 L 263.7578125 103.57494145199064 L 266.1015625 96.84335839598998 L 268.298828125 89.61401743796108 L 270.49609375 81.28932178932178 L 272.546875 72.29503105590061 L 274.451171875 62.62447786131992 L 276.35546875 51.36256781193492 L 278.11328125 39.186888454011694 L 279.87109375 24.830490405117246 L 281.482421875 9.209639953542421 L 282.75064182281494 -5.5" stroke-linecap="round" stroke-linejoin="round" stroke-miterlimit="10" stroke-width="2.5" stroke-opacity="0.9" stroke-dasharray=""/></g><g><path fill="none" stroke="#388c46" class="dcg-svg-curve" paint-order="fill stroke markers" d=" M 316.1825318336487 405.5 L 316.1825318336487 405.5 L 316.931640625 396.18667466986795 L 318.54296875 379.54395604395603 L 320.30078125 364.32897384305835 L 322.205078125 350.50460829493085 L 324.109375 338.81972789115645 L 326.16015625 328.1028257456829 L 328.2109375 318.91690962099125 L 330.408203125 310.4275558564658 L 332.751953125 302.60887350534927 L 335.095703125 295.8198118753674 L 337.5859375 289.521978021978 L 340.22265625 283.6932168550873 L 343.005859375 278.3071188071188 L 345.935546875 273.3350608382154 L 349.01171875 268.7476754015215 L 352.380859375 264.3357736446379 L 356.04296875 260.13656550703183 L 359.998046875 256.1724316845382 L 364.24609375 252.45410471881058 L 368.640625 249.08837772397092 L 373.181640625 246.03223516046575 L 378.015625 243.16737739872067 L 383.142578125 240.49074305729295 L 388.5625 237.99624060150373 L 394.421875 235.61992945326276 L 400.720703125 233.37223485631588 L 407.60546875 231.21506000774292 L 415.076171875 229.16503711750858 L 423.279296875 227.1990701606086 L 432.361328125 225.3056386832572 L 442.322265625 223.5058608058608 L 453.455078125 221.7699469892619 L 465.90625 220.1036217303823 L 479.822265625 218.5135778113032 L 495.49609375 216.99306000427075 L 513.220703125 215.5422990306472 L 533.435546875 214.15605152518114 L 556.580078125 212.83658933658933 L 583.38671875 211.57725195341294 L 599.5 210.92857142857142" stroke-linecap="round" stroke-linejoin="round" stroke-miterlimit="10" stroke-width="2.5" stroke-opacity="0.9" stroke-dasharray=""/></g><g><path fill="none" stroke="#388c46" class="dcg-svg-curve" paint-order="fill stroke markers" d=" M -0.5 185.2142857142857 L -0.5 185.2142857142857 L 26.892578125 183.77880555768786 L 50.623046875 182.27978642899183 L 71.423828125 180.70928525552802 L 89.734375 179.06903431763766 L 105.84765625 177.3690296088178 L 120.203125 175.59710550887021 L 133.09375 173.74547283702213 L 144.666015625 171.82058386268415 L 155.06640625 169.82744132135613 L 164.587890625 167.73328680006205 L 173.23046875 165.55899900563475 L 181.140625 163.29066478076376 L 188.318359375 160.95303971390928 L 194.91015625 158.52360944377753 L 201.0625 155.96258503401359 L 206.775390625 153.2801850598059 L 212.1953125 150.41083413231064 L 217.322265625 147.34823020117136 L 222.15625 144.08874458874456 L 226.697265625 140.6325093417649 L 231.091796875 136.8508718262466 L 235.33984375 132.70287018917156 L 239.294921875 128.3147375738617 L 242.95703125 123.70429311621024 L 246.326171875 118.90181031090123 L 249.548828125 113.70192710515289 L 252.478515625 108.35625278148643 L 255.26171875 102.62204351939448 L 257.8984375 96.48189134808854 L 260.388671875 89.9226859283039 L 262.87890625 82.47142857142859 L 265.22265625 74.4694749694749 L 267.419921875 65.90574037834313 L 269.6171875 56.08263305322134 L 271.66796875 45.51503759398497 L 273.572265625 34.205407586763556 L 275.4765625 21.10278745644598 L 277.234375 7.018796992481214 L 278.5681838989258 -5.5" stroke-linecap="round" stroke-linejoin="round" stroke-miterlimit="10" stroke-width="2.5" stroke-opacity="0.9" stroke-dasharray=""/></g><g><path fill="none" stroke="#388c46" class="dcg-svg-curve" paint-order="fill stroke markers" d=" M 320.30477237701416 405.5 L 320.30477237701416 405.5 L 322.205078125 388.2557603686636 L 324.109375 373.64965986394554 L 326.16015625 360.2535321821036 L 328.2109375 348.77113702623905 L 330.408203125 338.1594448205823 L 332.60546875 328.9563843236409 L 334.94921875 320.39728453364813 L 337.439453125 312.4619415333701 L 339.9296875 305.5041407867495 L 342.56640625 299.014091350826 L 345.349609375 292.9732998630762 L 348.279296875 287.35928785928786 L 351.35546875 282.1472962066182 L 354.724609375 277.1051534672224 L 358.240234375 272.46045600285 L 362.048828125 268.0178989628638 L 366.150390625 263.8014128728414 L 370.544921875 259.8240058910162 L 375.0859375 256.19988925802875 L 379.7734375 252.88894681960375 L 384.75390625 249.77000490918016 L 390.02734375 246.84165510864537 L 395.59375 244.0993031358885 L 401.599609375 241.47581471613034 L 408.044921875 238.98332369385 L 414.9296875 236.6283538796229 L 422.400390625 234.3714455985016 L 430.45703125 232.22611057845958 L 439.24609375 230.16786463012878 L 448.9140625 228.18347338935573 L 459.607421875 226.26774277872173 L 471.326171875 224.4421507733528 L 484.36328125 222.6831559882273 L 498.865234375 220.9967985724782 L 515.125 219.37577639751552 L 533.435546875 217.8200644064764 L 554.08984375 216.3337991122801 L 577.52734375 214.91472226403732 L 599.5 213.78571428571428" stroke-linecap="round" stroke-linejoin="round" stroke-miterlimit="10" stroke-width="2.5" stroke-opacity="0.9" stroke-dasharray=""/></g><g><path fill="none" stroke="#388c46" class="dcg-svg-curve" paint-order="fill stroke markers" d=" M -0.5 202.35714285714283 L -0.5 202.35714285714283 L 57.068359375 203.0356063875701 L 99.255859375 203.7804890793186 L 131.189453125 204.59262712918064 L 156.091796875 205.4769444039107 L 175.720703125 206.42476754015215 L 191.541015625 207.43952316340375 L 204.578125 208.5299823633157 L 215.41796875 209.69412643106023 L 224.5 210.92857142857142 L 232.1171875 212.2204968944099 L 238.708984375 213.5998278829604 L 244.421875 215.0623100303951 L 249.40234375 216.60944026733497 L 253.796875 218.25457875457874 L 257.751953125 220.031328320802 L 261.267578125 221.91926655719757 L 264.490234375 223.98296473401075 L 267.56640625 226.34141546526865 L 270.349609375 228.90416367552044 L 272.986328125 231.82833464877663 L 275.330078125 234.96320346320346 L 277.52734375 238.50952380952378 L 279.431640625 242.21115745568298 L 281.189453125 246.31142857142856 L 282.80078125 250.828320802005 L 284.412109375 256.30998613037445 L 285.876953125 262.4185867895545 L 287.1953125 269.1598639455782 L 288.513671875 277.5190476190476 L 289.685546875 286.83475479744135 L 290.857421875 298.6767554479419 L 291.8828125 312.0274725274725 L 292.908203125 329.531746031746 L 293.787109375 349.53663003663 L 294.666015625 376.8160173160173 L 295.3295154571533 405.5" stroke-linecap="round" stroke-linejoin="round" stroke-miterlimit="10" stroke-width="2.5" stroke-opacity="0.9" stroke-dasharray=""/></g><g><path fill="none" stroke="#388c46" class="dcg-svg-curve" paint-order="fill stroke markers" d=" M 303.6964054107666 -5.5 L 303.6964054107666 -5.5 L 304.48046875 27.39915966386559 L 305.359375 53.21428571428572 L 306.384765625 75.00151975683889 L 307.41015625 91.14021164021159 L 308.58203125 105.12211981566821 L 309.75390625 115.90816326530609 L 311.072265625 125.4312839059674 L 312.537109375 133.75361155698232 L 314.001953125 140.3946608946609 L 315.61328125 146.3051948051948 L 317.37109375 151.53747072599532 L 319.12890625 155.8326226012793 L 321.033203125 159.6943634596696 L 323.083984375 163.15572315882875 L 325.427734375 166.4410815173527 L 327.91796875 169.33799705449186 L 330.84765625 172.1568758344459 L 333.923828125 174.60030395136778 L 337.146484375 176.73179544191217 L 340.662109375 178.67641077783426 L 344.470703125 180.4399720800372 L 348.71875 182.08503401360542 L 353.552734375 183.6424699961285 L 358.97265625 185.08761435608727 L 365.125 186.43877551020407 L 372.15625 187.70276497695852 L 380.359375 188.89958592132504 L 389.880859375 190.01632322296828 L 401.16015625 191.06854672704816 L 414.63671875 192.05543438749547 L 430.896484375 192.97666825927695 L 450.818359375 193.83549993085325 L 475.57421875 194.63192298550035 L 506.921875 195.36763518966907 L 547.205078125 196.03966376615696 L 599.5 196.64285714285714" stroke-linecap="round" stroke-linejoin="round" stroke-miterlimit="10" stroke-width="2.5" stroke-opacity="0.9" stroke-dasharray=""/></g><g><path fill="none" stroke="#388c46" class="dcg-svg-curve" paint-order="fill stroke markers" d=" M -0.5 205.2142857142857 L -0.5 205.2142857142857 L 41.541015625 206.1455747546037 L 75.232421875 207.14393020434824 L 102.625 208.20748299319726 L 125.330078125 209.34260482998917 L 144.2265625 210.54043126684635 L 160.193359375 211.80584347303588 L 173.81640625 213.13969363969363 L 185.53515625 214.5422328314359 L 195.7890625 216.02945924132365 L 204.724609375 217.58787811879 L 212.634765625 219.23500361358708 L 219.51953125 220.93380429094714 L 225.671875 222.71995464852606 L 231.23828125 224.613427345187 L 236.365234375 226.6528007954922 L 240.90625 228.75714285714284 L 245.154296875 231.04408933384673 L 249.109375 233.51993355481727 L 252.771484375 236.1860725481415 L 256.287109375 239.17070217917674 L 259.65625 242.5252100840336 L 262.732421875 246.12492885600454 L 265.515625 249.94334975369458 L 268.005859375 253.93189368770763 L 270.349609375 258.30832735104093 L 272.546875 263.1024844720497 L 274.59765625 268.34033613445376 L 276.501953125 274.040491355778 L 278.40625 280.7698412698412 L 280.1640625 288.1580086580086 L 281.775390625 296.2178276269185 L 283.38671875 305.88961038961037 L 284.8515625 316.5285714285714 L 286.31640625 329.531746031746 L 287.634765625 343.97971781305114 L 288.953125 362.03968253968253 L 290.125 382.35714285714283 L 291.1632080078125 405.5" stroke-linecap="round" stroke-linejoin="round" stroke-miterlimit="10" stroke-width="2.5" stroke-opacity="0.9" stroke-dasharray=""/></g><g><path fill="none" stroke="#388c46" class="dcg-svg-curve" paint-order="fill stroke markers" d=" M 307.90128660202026 -5.5 L 307.90128660202026 -5.5 L 308.58203125 10.744239631336427 L 309.75390625 32.31632653061223 L 311.072265625 51.36256781193492 L 312.390625 66.51298701298697 L 313.85546875 80.08309037900875 L 315.466796875 92.13433813892533 L 317.078125 101.97619047619048 L 318.8359375 110.84199134199133 L 320.59375 118.23015873015873 L 322.498046875 124.95950864422201 L 324.548828125 131.06223893066 L 326.599609375 136.24131274131275 L 328.796875 140.98571428571427 L 331.140625 145.32010582010582 L 333.77734375 149.48778998778997 L 336.560546875 153.2436476566911 L 339.63671875 156.788842544317 L 343.005859375 160.09644059644057 L 346.66796875 163.15572315882875 L 350.4765625 165.87110016420363 L 354.431640625 168.29238095238097 L 358.6796875 170.53253182461103 L 363.3671875 172.65858453473132 L 368.494140625 174.653169548074 L 374.060546875 176.50813920853213 L 380.212890625 178.26069484054966 L 387.09765625 179.93000477783085 L 394.71484375 181.49560439560437 L 403.357421875 182.99385452347371 L 413.171875 184.41899852724595 L 424.3046875 185.76425217974514 L 437.1953125 187.05015197568386 L 452.13671875 188.26885111050177 L 469.568359375 189.42001968746155 L 490.076171875 190.50472164269243 L 514.5390625 191.52802646944338 L 543.8359375 192.48389859540939 L 579.431640625 193.37605591687225 L 599.5 193.78571428571428" stroke-linecap="round" stroke-linejoin="round" stroke-miterlimit="10" stroke-width="2.5" stroke-opacity="0.9" stroke-dasharray=""/></g><g><path fill="none" stroke="#388c46" class="dcg-svg-curve" paint-order="fill stroke markers" d=" M -0.5 208.07142857142856 L -0.5 208.07142857142856 L 34.216796875 209.1931450658673 L 63.220703125 210.38300416260736 L 87.68359375 211.639893301719 L 108.484375 212.96187554776512 L 126.35546875 214.35134155184915 L 141.8828125 215.81439192777484 L 155.359375 217.33972125435537 L 167.224609375 218.93996203132414 L 177.771484375 220.62429087158327 L 187.146484375 222.38694356490967 L 195.49609375 224.22434607645874 L 202.966796875 226.13776284413615 L 209.705078125 228.13668142624095 L 215.857421875 230.24305729296972 L 221.423828125 232.43487000804072 L 226.55078125 234.749569707401 L 231.384765625 237.2511520737327 L 235.92578125 239.9476629361422 L 240.173828125 242.8439153439153 L 244.12890625 245.93990929705214 L 247.9375 249.37012987012986 L 251.599609375 253.18283093053734 L 254.96875 257.2443609022556 L 258.044921875 261.5292781423523 L 260.828125 265.9935064935065 L 263.46484375 270.8588850174216 L 265.955078125 276.1562694946974 L 268.298828125 281.91448692152915 L 270.49609375 288.1580086580086 L 272.546875 294.9037267080745 L 274.59765625 302.76050420168065 L 276.501953125 311.31073703366695 L 278.259765625 320.56403940886696 L 280.017578125 331.4871106337272 L 281.62890625 343.38758782201404 L 283.240234375 357.6467181467181 L 284.705078125 373.3048090523338 L 286.169921875 392.4042386185243 L 286.98536586761475 405.5" stroke-linecap="round" stroke-linejoin="round" stroke-miterlimit="10" stroke-width="2.5" stroke-opacity="0.9" stroke-dasharray=""/></g><g><path fill="none" stroke="#388c46" class="dcg-svg-curve" paint-order="fill stroke markers" d=" M 312.0704288482666 -5.5 L 312.0704288482666 -5.5 L 312.390625 0.019480519480509884 L 313.85546875 20.374635568513156 L 315.3203125 36.96031746031747 L 316.931640625 51.98499399759902 L 318.689453125 65.49781897491823 L 320.447265625 76.74275724275725 L 322.3515625 86.97252747252747 L 324.255859375 95.62848689771766 L 326.306640625 103.57494145199064 L 328.50390625 110.84199134199133 L 330.701171875 117.0855130784708 L 333.044921875 122.84373050530252 L 335.53515625 128.14111498257842 L 338.171875 133.00649350649348 L 340.955078125 137.47072185764767 L 344.03125 141.75563909774434 L 347.25390625 145.6524978089395 L 350.916015625 149.48778998778997 L 354.87109375 153.06009070294783 L 358.97265625 156.2628430682618 L 363.220703125 159.14532019704436 L 367.76171875 161.8298589822195 L 372.595703125 164.3210707128543 L 377.72265625 166.6268057784912 L 383.2890625 168.81068931068933 L 389.294921875 170.86331857375902 L 395.88671875 172.82175423360832 L 403.2109375 174.70581113801452 L 411.267578125 176.49307245834112 L 420.203125 178.19625520110955 L 430.1640625 179.82030749519538 L 441.443359375 181.38412206988056 L 454.1875 182.87662337662337 L 468.54296875 184.28831393909383 L 484.94921875 185.63405551794176 L 503.845703125 186.91628264208907 L 525.818359375 188.13800277392508 L 551.453125 189.2940199335548 L 581.62890625 190.38562527814864 L 599.5 190.92857142857142" stroke-linecap="round" stroke-linejoin="round" stroke-miterlimit="10" stroke-width="2.5" stroke-opacity="0.9" stroke-dasharray=""/></g><g><path fill="none" stroke="#388c46" class="dcg-svg-curve" paint-order="fill stroke markers" d=" M -0.5 210.92857142857142 L -0.5 210.92857142857142 L 29.822265625 212.2135873360751 L 55.75 213.56593406593404 L 78.162109375 214.99021461662096 L 97.64453125 216.4852788720713 L 114.63671875 218.04652479058183 L 129.578125 219.67733990147784 L 142.76171875 221.37449933244326 L 154.48046875 223.14213564213563 L 165.02734375 224.99642079053842 L 174.40234375 226.9071595851455 L 182.8984375 228.90416367552044 L 190.662109375 231.00163430109592 L 197.693359375 233.17728674203494 L 204.138671875 235.45347816545973 L 210.14453125 237.87002341920373 L 215.7109375 240.4190809190809 L 220.837890625 243.08606012237297 L 225.671875 245.93990929705214 L 230.212890625 248.98353971609785 L 234.4609375 252.2155727155727 L 238.5625 255.7637362637363 L 242.517578125 259.66893132574364 L 246.326171875 263.97855175127904 L 249.6953125 268.34033613445376 L 252.91796875 273.10287511230905 L 255.84765625 278.0426653883029 L 258.630859375 283.39144905273935 L 261.267578125 289.17706622879035 L 263.7578125 295.42505854800936 L 266.1015625 302.15664160401 L 268.298828125 309.38598256203886 L 270.49609375 317.7106782106782 L 272.546875 326.7049689440994 L 274.451171875 336.37552213868 L 276.35546875 347.6374321880651 L 278.11328125 359.81311154598825 L 279.87109375 374.1695095948827 L 281.482421875 389.7903600464576 L 282.83685874938965 405.5" stroke-linecap="round" stroke-linejoin="round" stroke-miterlimit="10" stroke-width="2.5" stroke-opacity="0.9" stroke-dasharray=""/></g><g><path fill="none" stroke="#388c46" class="dcg-svg-curve" paint-order="fill stroke markers" d=" M 316.2629659175873 -5.5 L 316.2629659175873 -5.5 L 316.931640625 2.813325330132045 L 318.54296875 19.456043956043914 L 320.30078125 34.67102615694165 L 322.205078125 48.49539170506915 L 324.109375 60.18027210884355 L 326.16015625 70.89717425431706 L 328.2109375 80.08309037900875 L 330.408203125 88.5724441435342 L 332.751953125 96.39112649465073 L 335.095703125 103.18018812463254 L 337.5859375 109.47802197802196 L 340.22265625 115.30678314491263 L 343.005859375 120.6928811928812 L 345.935546875 125.66493916178462 L 349.01171875 130.25232459847842 L 352.380859375 134.66422635536208 L 356.04296875 138.86343449296817 L 359.998046875 142.8275683154618 L 364.24609375 146.5458952811894 L 368.640625 149.91162227602905 L 373.181640625 152.9677648395342 L 378.015625 155.8326226012793 L 383.142578125 158.50925694270703 L 388.5625 161.00375939849624 L 394.421875 163.38007054673722 L 400.720703125 165.6277651436841 L 407.60546875 167.78493999225702 L 415.076171875 169.8349628824914 L 423.279296875 171.8009298393914 L 432.361328125 173.69436131674277 L 442.322265625 175.49413919413917 L 453.455078125 177.23005301073806 L 465.90625 178.89637826961768 L 479.822265625 180.48642218869676 L 495.49609375 182.00693999572923 L 513.220703125 183.45770096935277 L 533.435546875 184.84394847481886 L 556.580078125 186.16341066341067 L 583.38671875 187.42274804658703 L 599.5 188.07142857142856" stroke-linecap="round" stroke-linejoin="round" stroke-miterlimit="10" stroke-width="2.5" stroke-opacity="0.9" stroke-dasharray=""/></g><g><path fill="none" stroke="#388c46" class="dcg-svg-curve" paint-order="fill stroke markers" d=" M -0.5 213.78571428571428 L -0.5 213.78571428571428 L 26.892578125 215.2211944423121 L 50.623046875 216.72021357100814 L 71.423828125 218.29071474447196 L 89.734375 219.9309656823623 L 105.84765625 221.63097039118216 L 120.203125 223.40289449112976 L 133.09375 225.25452716297784 L 144.666015625 227.17941613731585 L 155.06640625 229.17255867864387 L 164.587890625 231.26671319993793 L 173.23046875 233.44100099436525 L 181.140625 235.7093352192362 L 188.318359375 238.0469602860907 L 194.91015625 240.47639055622247 L 201.0625 243.0374149659864 L 206.775390625 245.71981494019408 L 212.1953125 248.58916586768936 L 217.322265625 251.6517697988286 L 222.15625 254.9112554112554 L 226.697265625 258.3674906582351 L 231.091796875 262.1491281737534 L 235.33984375 266.29712981082844 L 239.294921875 270.6852624261383 L 242.95703125 275.29570688378976 L 246.326171875 280.0981896890988 L 249.548828125 285.29807289484705 L 252.478515625 290.64374721851357 L 255.26171875 296.37795648060546 L 257.8984375 302.51810865191146 L 260.388671875 309.0773140716961 L 262.87890625 316.5285714285714 L 265.22265625 324.53052503052504 L 267.419921875 333.0942596216569 L 269.6171875 342.91736694677866 L 271.66796875 353.48496240601503 L 273.572265625 364.79459241323644 L 275.4765625 377.897212543554 L 277.234375 391.9812030075188 L 278.6747283935547 405.5" stroke-linecap="round" stroke-linejoin="round" stroke-miterlimit="10" stroke-width="2.5" stroke-opacity="0.9" stroke-dasharray=""/></g><g><path fill="none" stroke="#388c46" class="dcg-svg-curve" paint-order="fill stroke markers" d=" M 320.4149718284607 -5.5 L 320.4149718284607 -5.5 L 322.205078125 10.744239631336427 L 324.109375 25.350340136054456 L 326.16015625 38.74646781789636 L 328.2109375 50.228862973760954 L 330.408203125 60.84055517941778 L 332.60546875 70.04361567635908 L 334.94921875 78.60271546635187 L 337.439453125 86.53805846662988 L 339.9296875 93.49585921325053 L 342.56640625 99.98590864917395 L 345.349609375 106.02670013692381 L 348.279296875 111.64071214071214 L 351.35546875 116.85270379338175 L 354.724609375 121.89484653277754 L 358.240234375 126.53954399714996 L 362.048828125 130.98210103713615 L 366.150390625 135.19858712715853 L 370.544921875 139.1759941089838 L 375.0859375 142.80011074197125 L 379.7734375 146.11105318039623 L 384.75390625 149.2299950908198 L 390.02734375 152.15834489135457 L 395.59375 154.90069686411147 L 401.599609375 157.52418528386963 L 408.044921875 160.01667630615 L 414.9296875 162.37164612037708 L 422.400390625 164.62855440149838 L 430.45703125 166.77388942154042 L 439.24609375 168.8321353698712 L 448.9140625 170.81652661064427 L 459.607421875 172.73225722127827 L 471.326171875 174.55784922664716 L 484.36328125 176.31684401177267 L 498.865234375 178.00320142752176 L 515.125 179.62422360248445 L 533.435546875 181.17993559352357 L 554.08984375 182.66620088771987 L 577.52734375 184.08527773596268 L 599.5 185.2142857142857" stroke-linecap="round" stroke-linejoin="round" stroke-miterlimit="10" stroke-width="2.5" stroke-opacity="0.9" stroke-dasharray=""/></g></g><g id="sketch-71b6f0d6"><title>Expression 3</title><path fill="none" stroke="#6042a6" class="dcg-svg-point" paint-order="fill stroke markers" d=" M 299.4 199.4 L 299.4 199.6 L 299.6 199.6 L 299.6 199.4" stroke-linecap="round" stroke-linejoin="round" stroke-miterlimit="10" stroke-width="9" stroke-opacity="0.9" stroke-dasharray=""/></g></g><g id="labels-71b6f0d6"/></g></svg>