<svg version="1.1" xmlns="http://www.w3.org/2000/svg" xmlns:xlink="http://www.w3.org/1999/xlink" width="600" height="400"><defs/><g transform="scale(1,1)"><g id="background-6ae7bfe4"><rect fill="white" stroke="none" x="0" y="0" width="600" height="400" class="dcg-svg-background"/></g><g id="background-images-6ae7bfe4"/><g id="graphpaper-6ae7bfe4"><g id="grid-6ae7bfe4"><g><path fill="none" stroke="rgb(0,0,0)" class="dcg-svg-minor-gridline" paint-order="fill stroke markers" d=" M -0.5 0 L -0.5 400" stroke-opacity="0.12" stroke-miterlimit="10" stroke-dasharray=""/><path fill="none" stroke="rgb(0,0,0)" class="dcg-svg-minor-gridline" paint-order="fill stroke markers" d=" M 29.5 0 L 29.5 400" stroke-opacity="0.12" stroke-miterlimit="10" stroke-dasharray=""/><path fill="none" stroke="rgb(0,0,0)" class="dcg-svg-minor-gridline" paint-order="fill stroke markers" d=" M 59.5 0 L 59.5 400" stroke-opacity="0.12" stroke-miterlimit="10" stroke-dasharray=""/><path fill="none" stroke="rgb(0,0,0)" class="dcg-svg-minor-gridline" paint-order="fill stroke markers" d=" M 89.5 0 L 89.5 400" stroke-opacity="0.12" stroke-miterlimit="10" stroke-dasharray=""/><path fill="none" stroke="rgb(0,0,0)" class="dcg-svg-minor-gridline" paint-order="fill stroke markers" d=" M 119.5 0 L 119.5 400" stroke-opacity="0.12" stroke-miterlimit="10" stroke-dasharray=""/><path fill="none" stroke="rgb(0,0,0)" class="dcg-svg-minor-gridline" paint-order="fill stroke markers" d=" M 149.5 0 L 149.5 400" stroke-opacity="0.12" stroke-miterlimit="10" stroke-dasharray=""/><path fill="none" stroke="rgb(0,0,0)" class="dcg-svg-minor-gridline" paint-order="fill stroke markers" d=" M 179.5 0 L 179.5 400" stroke-opacity="0.12" stroke-miterlimit="10" stroke-dasharray=""/><path fill="none" stroke="rgb(0,0,0)" class="dcg-svg-minor-gridline" paint-order="fill stroke markers" d=" M 209.5 0 L 209.5 400" stroke-opacity="0.12" stroke-miterlimit="10" stroke-dasharray=""/><path fill="none" stroke="rgb(0,0,0)" class="dcg-svg-minor-gridline" paint-order="fill stroke markers" d=" M 239.5 0 L 239.5 400" stroke-opacity="0.12" stroke-miterlimit="10" stroke-dasharray=""/><path fill="none" stroke="rgb(0,0,0)" class="dcg-svg-minor-gridline" paint-order="fill stroke markers" d=" M 269.5 0 L 269.5 400" stroke-opacity="0.12" stroke-miterlimit="10" stroke-dasharray=""/><path fill="none" stroke="rgb(0,0,0)" class="dcg-svg-minor-gridline" paint-order="fill stroke markers" d=" M 329.5 0 L 329.5 400" stroke-opacity="0.12" stroke-miterlimit="10" stroke-dasharray=""/><path fill="none" stroke="rgb(0,0,0)" class="dcg-svg-minor-gridline" paint-order="fill stroke markers" d=" M 359.5 0 L 359.5 400" stroke-opacity="0.12" stroke-miterlimit="10" stroke-dasharray=""/><path fill="none" stroke="rgb(0,0,0)" class="dcg-svg-minor-gridline" paint-order="fill stroke markers" d=" M 389.5 0 L 389.5 400" stroke-opacity="0.12" stroke-miterlimit="10" stroke-dasharray=""/><path fill="none" stroke="rgb(0,0,0)" class="dcg-svg-minor-gridline" paint-order="fill stroke markers" d=" M 419.5 0 L 419.5 400" stroke-opacity="0.12" stroke-miterlimit="10" stroke-dasharray=""/><path fill="none" stroke="rgb(0,0,0)" class="dcg-svg-minor-gridline" paint-order="fill stroke markers" d=" M 449.5 0 L 449.5 400" stroke-opacity="0.12" stroke-miterlimit="10" stroke-dasharray=""/><path fill="none" stroke="rgb(0,0,0)" class="dcg-svg-minor-gridline" paint-order="fill stroke markers" d=" M 479.5 0 L 479.5 400" stroke-opacity="0.12" stroke-miterlimit="10" stroke-dasharray=""/><path fill="none" stroke="rgb(0,0,0)" class="dcg-svg-minor-gridline" paint-order="fill stroke markers" d=" M 509.5 0 L 509.5 400" stroke-opacity="0.12" stroke-miterlimit="10" stroke-dasharray=""/><path fill="none" stroke="rgb(0,0,0)" class="dcg-svg-minor-gridline" paint-order="fill stroke markers" d=" M 539.5 0 L 539.5 400" stroke-opacity="0.12" stroke-miterlimit="10" stroke-dasharray=""/><path fill="none" stroke="rgb(0,0,0)" class="dcg-svg-minor-gridline" paint-order="fill stroke markers" d=" M 569.5 0 L 569.5 400" stroke-opacity="0.12" stroke-miterlimit="10" stroke-dasharray=""/><path fill="none" stroke="rgb(0,0,0)" class="dcg-svg-minor-gridline" paint-order="fill stroke markers" d=" M 0 370.5 L 600 370.5" stroke-opacity="0.12" stroke-miterlimit="10" stroke-dasharray=""/><path fill="none" stroke="rgb(0,0,0)" class="dcg-svg-minor-gridline" paint-order="fill stroke markers" d=" M 0 342.5 L 600 342.5" stroke-opacity="0.12" stroke-miterlimit="10" stroke-dasharray=""/><path fill="none" stroke="rgb(0,0,0)" class="dcg-svg-minor-gridline" paint-order="fill stroke markers" d=" M 0 313.5 L 600 313.5" stroke-opacity="0.12" stroke-miterlimit="10" stroke-dasharray=""/><path fill="none" stroke="rgb(0,0,0)" class="dcg-svg-minor-gridline" paint-order="fill stroke markers" d=" M 0 285.5 L 600 285.5" stroke-opacity="0.12" stroke-miterlimit="10" stroke-dasharray=""/><path fill="none" stroke="rgb(0,0,0)" class="dcg-svg-minor-gridline" paint-order="fill stroke markers" d=" M 0 256.5 L 600 256.5" stroke-opacity="0.12" stroke-miterlimit="10" stroke-dasharray=""/><path fill="none" stroke="rgb(0,0,0)" class="dcg-svg-minor-gridline" paint-order="fill stroke markers" d=" M 0 228.5 L 600 228.5" stroke-opacity="0.12" stroke-miterlimit="10" stroke-dasharray=""/><path fill="none" stroke="rgb(0,0,0)" class="dcg-svg-minor-gridline" paint-order="fill stroke markers" d=" M 0 170.5 L 600 170.5" stroke-opacity="0.12" stroke-miterlimit="10" stroke-dasharray=""/><path fill="none" stroke="rgb(0,0,0)" class="dcg-svg-minor-gridline" paint-order="fill stroke markers" d=" M 0 142.5 L 600 142.5" stroke-opacity="0.12" stroke-miterlimit="10" stroke-dasharray=""/><path fill="none" stroke="rgb(0,0,0)" class="dcg-svg-minor-gridline" paint-order="fill stroke markers" d=" M 0 113.5 L 600 113.5" stroke-opacity="0.12" stroke-miterlimit="10" stroke-dasharray=""/><path fill="none" stroke="rgb(0,0,0)" class="dcg-svg-minor-gridline" paint-order="fill stroke markers" d=" M 0 85.5 L 600 85.5" stroke-opacity="0.12" stroke-miterlimit="10" stroke-dasharray=""/><path fill="none" stroke="rgb(0,0,0)" class="dcg-svg-minor-gridline" paint-order="fill stroke markers" d=" M 0 56.5 L 600 56.5" stroke-opacity="0.12" stroke-miterlimit="10" stroke-dasharray=""/><path fill="none" stroke="rgb(0,0,0)" class="dcg-svg-minor-gridline" paint-order="fill stroke markers" d=" M 0 28.5 L 600 28.5" stroke-opacity="0.12" stroke-miterlimit="10" stroke-dasharray=""/><path fill="none" stroke="rgb(0,0,0)" class="dcg-svg-minor-gridline" paint-order="fill stroke markers" d=" M 0 -0.5 L 600 -0.5" stroke-opacity="0.12" stroke-miterlimit="10" stroke-dasharray=""/><path fill="none" stroke="rgb(0,0,0)" class="dcg-svg-major-gridline" paint-order="fill stroke markers" d=" M -0.5 0 L -0.5 400" stroke-opacity="0.31818181818181823" stroke-miterlimit="10" stroke-dasharray=""/><path fill="none" stroke="rgb(0,0,0)" class="dcg-svg-major-gridline" paint-order="fill stroke markers" d=" M 149.5 0 L 149.5 400" stroke-opacity="0.31818181818181823" stroke-miterlimit="10" stroke-dasharray=""/><path fill="none" stroke="rgb(0,0,0)" class="dcg-svg-major-gridline" paint-order="fill stroke markers" d=" M 449.5 0 L 449.5 400" stroke-opacity="0.31818181818181823" stroke-miterlimit="10" stroke-dasharray=""/><path fill="none" stroke="rgb(0,0,0)" class="dcg-svg-major-gridline" paint-order="fill stroke markers" d=" M 0 342.5 L 600 342.5" stroke-opacity="0.31818181818181823" stroke-miterlimit="10" stroke-dasharray=""/><path fill="none" stroke="rgb(0,0,0)" class="dcg-svg-major-gridline" paint-order="fill stroke markers" d=" M 0 56.5 L 600 56.5" stroke-opacity="0.31818181818181823" stroke-miterlimit="10" stroke-dasharray=""/></g></g><g id="axis-6ae7bfe4"><g id="yaxis-6ae7bfe4"><title>Y axis</title><path fill="none" stroke="rgb(0,0,0)" class="dcg-svg-axis-line" paint-order="fill stroke markers" d=" M 299.75 0 L 299.75 400" stroke-opacity="0.9" stroke-miterlimit="10" stroke-width="1.5" stroke-dasharray=""/></g><g id="xaxis-6ae7bfe4"><title>X axis</title><path fill="none" stroke="rgb(0,0,0)" class="dcg-svg-axis-line" paint-order="fill stroke markers" d=" M 0 199.75 L 600 199.75" stroke-opacity="0.9" stroke-miterlimit="10" stroke-width="1.5" stroke-dasharray=""/></g><g><g class="dcg-svg-axis-value"><text fill="none" stroke="#ffffff" font-family="Arial" font-size="14px" font-style="normal" font-weight="normal" text-decoration="normal" x="291.10693359375" y="215.808" text-anchor="middle" stroke-miterlimit="2" stroke-width="3" stroke-dasharray="">0</text><text fill="#000000" stroke="none" font-family="Arial" font-size="14px" font-style="normal" font-weight="normal" text-decoration="normal" x="291.10693359375" y="215.808" text-anchor="middle">0</text></g><g class="dcg-svg-axis-value dcg-svg-offcenter-axis-value"><text fill="none" stroke="#ffffff" font-family="Arial" font-size="14px" font-style="normal" font-weight="normal" text-decoration="normal" x="13.1171875" y="215.808" text-anchor="middle" stroke-miterlimit="2" stroke-width="3" stroke-dasharray="">-10</text><text fill="#000000" stroke="none" font-family="Arial" font-size="14px" font-style="normal" font-weight="normal" text-decoration="normal" x="13.1171875" y="215.808" text-anchor="middle">-10</text></g><g class="dcg-svg-axis-value"><text fill="none" stroke="#ffffff" font-family="Arial" font-size="14px" font-style="normal" font-weight="normal" text-decoration="normal" x="147.6689453125" y="215.808" text-anchor="middle" stroke-miterlimit="2" stroke-width="3" stroke-dasharray="">-5</text><text fill="#000000" stroke="none" font-family="Arial" font-size="14px" font-style="normal" font-weight="normal" text-decoration="normal" x="147.6689453125" y="215.808" text-anchor="middle">-5</text></g><g class="dcg-svg-axis-value"><text fill="none" stroke="#ffffff" font-family="Arial" font-size="14px" font-style="normal" font-weight="normal" text-decoration="normal" x="450" y="215.808" text-anchor="middle" stroke-miterlimit="2" stroke-width="3" stroke-dasharray="">5</text><text fill="#000000" stroke="none" font-family="Arial" font-size="14px" font-style="normal" font-weight="normal" text-decoration="normal" x="450" y="215.808" text-anchor="middle">5</text></g><g class="dcg-svg-axis-value dcg-svg-offcenter-axis-value"><text fill="none" stroke="#ffffff" font-family="Arial" font-size="14px" font-style="normal" font-weight="normal" text-decoration="normal" x="589.2138671875" y="215.808" text-anchor="middle" stroke-miterlimit="2" stroke-width="3" stroke-dasharray="">10</text><text fill="#000000" stroke="none" font-family="Arial" font-size="14px" font-style="normal" font-weight="normal" text-decoration="normal" x="589.2138671875" y="215.808" text-anchor="middle">10</text></g><g class="dcg-svg-axis-value"><text fill="none" stroke="#ffffff" font-family="Arial" font-size="14px" font-style="normal" font-weight="normal" text-decoration="normal" x="288.77587890625" y="346.6651428571428" text-anchor="middle" stroke-miterlimit="2" stroke-width="3" stroke-dasharray="">-5</text><text fill="#000000" stroke="none" font-family="Arial" font-size="14px" font-style="normal" font-weight="normal" text-decoration="normal" x="288.77587890625" y="346.6651428571428" text-anchor="middle">-5</text></g><g class="dcg-svg-axis-value"><text fill="none" stroke="#ffffff" font-family="Arial" font-size="14px" font-style="normal" font-weight="normal" text-decoration="normal" x="291.10693359375" y="60.95085714285717" text-anchor="middle" stroke-miterlimit="2" stroke-width="3" stroke-dasharray="">5</text><text fill="#000000" stroke="none" font-family="Arial" font-size="14px" font-style="normal" font-weight="normal" text-decoration="normal" x="291.10693359375" y="60.95085714285717" text-anchor="middle">5</text></g></g></g></g><g id="expressions-6ae7bfe4"><g id="sketch-6ae7bfe4"><title>Expression 2</title><path fill="#388c46" stroke="none" paint-order="stroke fill markers" d="" fill-opacity="0.4"/><path fill="#388c46" stroke="none" paint-order="stroke fill markers" d="" fill-opacity="0.4"/><path fill="#388c46" stroke="none" paint-order="stroke fill markers" d="" fill-opacity="0.4"/><path fill="#388c46" stroke="none" paint-order="stroke fill markers" d="" fill-opacity="0.4"/><path fill="#388c46" stroke="none" paint-order="stroke fill markers" d="" fill-opacity="0.4"/><path fill="#388c46" stroke="none" paint-order="stroke fill markers" d="" fill-opacity="0.4"/><path fill="#388c46" stroke="none" paint-order="stroke fill markers" d="" fill-opacity="0.4"/><path fill="#388c46" stroke="none" paint-order="stroke fill markers" d="" fill-opacity="0.4"/><path fill="#388c46" stroke="none" paint-order="stroke fill markers" d="" fill-opacity="0.4"/><path fill="#388c46" stroke="none" paint-order="stroke fill markers" d="" fill-opacity="0.4"/><g><path fill="none" stroke="#388c46" class="dcg-svg-curve" paint-order="fill stroke markers" d=" M -0.5 199.49870285914963 L -0.5 199.49870285914963 L 139.392578125 199.36255161923893 L 172.9375 199.0795134486104 L 193.73828125 198.6588484284698 L 208.97265625 198.10229851286874 L 220.984375 197.41405974027762 L 230.9453125 196.59262396710358 L 239.587890625 195.6219327232044 L 247.05859375 194.52532350436766 L 253.796875 193.27253269840847 L 259.802734375 191.89226852152598 L 265.369140625 190.34122986445968 L 270.49609375 188.63430756469444 L 275.330078125 186.7345391202999 L 279.87109375 184.64835932229926 L 284.265625 182.30541140938016 L 288.513671875 179.68981340313954 L 292.615234375 176.7875091697059 L 296.5703125 173.58683948893187 L 300.525390625 169.93512784706385 L 304.48046875 165.7688129050827 L 308.2890625 161.20283136431468 L 311.951171875 156.23057437272868 L 315.466796875 150.8508770853951 L 318.8359375 145.0687483652221 L 322.05859375 138.89603363550555 L 325.28125 132.0233091505454 L 328.50390625 124.37119109318968 L 331.580078125 116.25873861582562 L 334.65625 107.2702988021108 L 337.732421875 97.31128203003021 L 340.80859375 86.27688483517488 L 343.884765625 74.05098701409958 L 346.814453125 61.181962246482726 L 349.744140625 46.99278521518772 L 352.673828125 31.348029807454168 L 355.603515625 14.09837739787605 L 358.533203125 -4.920808297042356 L 358.6141201935328 -5.5" stroke-linecap="round" stroke-linejoin="round" stroke-miterlimit="10" stroke-width="2.5" stroke-opacity="0.9" stroke-dasharray=""/></g><g><path fill="none" stroke="#388c46" class="dcg-svg-curve" paint-order="fill stroke markers" d=" M -0.5 199.4974057182993 L -0.5 199.4974057182993 L 119.763671875 199.35710662260433 L 152.869140625 199.0692127431975 L 173.5234375 198.6424401890087 L 188.611328125 198.08197460701882 L 200.623046875 197.38372818963 L 210.583984375 196.55034796088412 L 219.080078125 195.5847063400667 L 226.55078125 194.47757053878078 L 233.2890625 193.2127539304811 L 239.294921875 191.81924030756983 L 244.861328125 190.25331290433485 L 249.98828125 188.53000549854076 L 254.822265625 186.61200077742996 L 259.36328125 184.5057953009376 L 263.7578125 182.1403569384072 L 268.005859375 179.49965125698594 L 272.107421875 176.56948719501804 L 276.0625 173.3380936130506 L 280.017578125 169.6513284233749 L 283.97265625 165.4450201483151 L 287.78125 160.83520879075832 L 291.443359375 155.81522205891358 L 294.958984375 150.3838839262596 L 298.328125 144.54625133683282 L 301.55078125 138.31428342063782 L 304.7734375 131.37558620838445 L 307.99609375 123.6500138609698 L 311.072265625 115.45968824666573 L 314.1484375 106.38496650939646 L 317.224609375 96.33035104147837 L 320.30078125 85.19003234801289 L 323.376953125 72.84677556330826 L 326.306640625 59.85421832128753 L 329.236328125 45.5288363964529 L 332.166015625 29.733903692314982 L 335.095703125 12.318668242588728 L 337.81436764318755 -5.5" stroke-linecap="round" stroke-linejoin="round" stroke-miterlimit="10" stroke-width="2.5" stroke-opacity="0.9" stroke-dasharray=""/></g><g><path fill="none" stroke="#388c46" class="dcg-svg-curve" paint-order="fill stroke markers" d=" M -0.5 199.49610857744892 L -0.5 199.49610857744892 L 108.630859375 199.35210980131492 L 141.296875 199.0606320200237 L 161.8046875 198.62961901016286 L 176.892578125 198.06077403658824 L 188.7578125 197.36255058476667 L 198.71875 196.5208306913809 L 207.21484375 195.54552586161978 L 214.685546875 194.42731091425497 L 221.27734375 193.18076831992096 L 227.283203125 191.78016536353047 L 232.849609375 190.2062714923807 L 237.9765625 188.4741969667781 L 242.810546875 186.54643462661065 L 247.3515625 184.4295140822832 L 251.74609375 182.05204183569109 L 255.994140625 179.39790188072686 L 260.095703125 176.45283096041004 L 264.05078125 173.204998051027 L 268.005859375 169.4994768854789 L 271.9609375 165.27176952139124 L 275.76953125 160.638506301253 L 279.431640625 155.59298098878858 L 282.947265625 150.13401157458298 L 286.31640625 144.26668072926893 L 289.5390625 138.00300842349122 L 292.76171875 131.02901142109573 L 295.984375 123.2641361506324 L 299.060546875 115.03214323675661 L 302.13671875 105.91125494067603 L 305.212890625 95.80548782207768 L 308.2890625 84.60849409294394 L 311.365234375 72.20244246926 L 314.294921875 59.1437871500321 L 317.224609375 44.74552656221755 L 320.154296875 28.870239031703818 L 323.083984375 11.36640565965223 L 325.6443329672247 -5.5" stroke-linecap="round" stroke-linejoin="round" stroke-miterlimit="10" stroke-width="2.5" stroke-opacity="0.9" stroke-dasharray=""/></g><g><path fill="none" stroke="#388c46" class="dcg-svg-curve" paint-order="fill stroke markers" d=" M -0.5 199.49481143659855 L -0.5 199.49481143659855 L 101.013671875 199.34702937337858 L 133.240234375 199.0521471717406 L 153.455078125 198.62143245176293 L 168.396484375 198.05431336141518 L 180.26171875 197.3529555894555 L 190.22265625 196.50745722142008 L 198.71875 195.5277742551745 L 206.189453125 194.40453964881786 L 212.78125 193.1524013335921 L 218.787109375 191.745511080434 L 224.353515625 190.1645520108256 L 229.48046875 188.42470221492496 L 234.314453125 186.4882861632436 L 238.85546875 184.36186277756133 L 243.25 181.9737180748653 L 247.498046875 179.30766370441057 L 251.599609375 176.3493723815569 L 255.5546875 173.08695997320893 L 259.509765625 169.3648047493503 L 263.46484375 165.11811923679915 L 267.2734375 160.46405733082733 L 270.935546875 155.39588269091198 L 274.451171875 149.91240800160614 L 277.8203125 144.0187387496152 L 281.04296875 137.7269488631469 L 284.265625 130.72164563752062 L 287.48828125 122.9219138968732 L 290.564453125 114.65296762501515 L 293.640625 105.49113572586691 L 296.716796875 95.34000389013067 L 299.79296875 84.0927469353204 L 302.869140625 71.63100463362031 L 305.798828125 58.51372910300165 L 308.728515625 44.05083482521786 L 311.658203125 28.10428324123319 L 314.587890625 10.521875284943349 L 317.00916899219567 -5.5" stroke-linecap="round" stroke-linejoin="round" stroke-miterlimit="10" stroke-width="2.5" stroke-opacity="0.9" stroke-dasharray=""/></g><g><path fill="none" stroke="#388c46" class="dcg-svg-curve" paint-order="fill stroke markers" d=" M -0.5 199.4935142957482 L -0.5 199.4935142957482 L 95.154296875 199.34271224354396 L 126.94140625 199.046204215073 L 147.15625 198.6097739591974 L 162.09765625 198.03512926229632 L 173.962890625 197.32446455157418 L 183.77734375 196.48251635197747 L 192.2734375 195.49466837464794 L 199.744140625 194.36207234900897 L 206.3359375 193.09949828714406 L 212.341796875 191.68088253205653 L 217.908203125 190.08674721179213 L 223.03515625 188.3323969158753 L 227.869140625 186.37984211413922 L 232.41015625 184.2356963926489 L 236.8046875 181.82764807966316 L 241.052734375 179.13937390521554 L 245.154296875 176.15642717620204 L 249.109375 172.86682471311968 L 253.064453125 169.11364778151878 L 257.01953125 164.83156894737817 L 260.828125 160.13871850638338 L 264.34375 155.24492164618835 L 267.859375 149.7426779367021 L 271.228515625 143.82883563689114 L 274.451171875 137.51551000200766 L 277.673828125 130.486228790695 L 280.896484375 122.65979986792559 L 283.97265625 114.36255037078774 L 287.048828125 105.1693590476342 L 290.125 94.98348157905116 L 293.201171875 83.69772713775285 L 296.27734375 71.19333036858535 L 299.20703125 58.03115658948457 L 302.13671875 43.51875823446005 L 305.06640625 27.517624261489175 L 307.99609375 9.875034652424404 L 310.31169352607054 -5.5" stroke-linecap="round" stroke-linejoin="round" stroke-miterlimit="10" stroke-width="2.5" stroke-opacity="0.9" stroke-dasharray=""/></g><g><path fill="none" stroke="#388c46" class="dcg-svg-curve" paint-order="fill stroke markers" d=" M -0.5 199.49221715489787 L -0.5 199.49221715489787 L 90.466796875 199.33855758296718 L 121.9609375 199.0387439943253 L 142.029296875 198.59954649738947 L 156.82421875 198.02551715947118 L 168.54296875 197.32085562391984 L 178.357421875 196.47751074281044 L 186.853515625 195.48802405539408 L 194.177734375 194.37861710520886 L 200.76953125 193.1201086864314 L 206.775390625 191.7060610477915 L 212.341796875 190.11705903846783 L 217.46875 188.36835796533242 L 222.302734375 186.42209062915757 L 226.84375 184.28484931945124 L 231.23828125 181.88455521691037 L 235.486328125 179.20493761449643 L 239.587890625 176.2315963392264 L 243.54296875 172.95258679890267 L 247.498046875 169.21149555661586 L 251.453125 164.94320554068224 L 255.26171875 160.26546665276928 L 258.923828125 155.1715082820296 L 262.439453125 149.66013707269113 L 265.80859375 143.73648448501072 L 269.03125 137.41268587185846 L 272.25390625 130.3717440059828 L 275.4765625 122.53233206526511 L 278.552734375 114.22131852066639 L 281.62890625 105.0128769002024 L 284.705078125 94.8101023983366 L 287.78125 83.505626372275 L 290.7109375 71.60649355656159 L 293.640625 58.48670358880037 L 296.5703125 44.021036933591404 L 299.5 28.071428571428612 L 302.4296875 10.485650261324167 L 304.8450284285232 -5.5" stroke-linecap="round" stroke-linejoin="round" stroke-miterlimit="10" stroke-width="2.5" stroke-opacity="0.9" stroke-dasharray=""/></g><g><path fill="none" stroke="#388c46" class="dcg-svg-curve" paint-order="fill stroke markers" d=" M -0.5 199.49092001404748 L -0.5 199.49092001404748 L 86.51171875 199.33491454143294 L 117.712890625 199.03291916681135 L 137.634765625 198.59261681777693 L 152.4296875 198.0141698842932 L 164.1484375 197.30408543832783 L 173.962890625 196.45425037220386 L 182.3125 195.4768411946518 L 189.63671875 194.36434191699465 L 196.228515625 193.1023255698087 L 202.234375 191.68433645743013 L 207.80078125 190.0909053118318 L 212.927734375 188.33732996206794 L 217.76171875 186.38563765902185 L 222.302734375 184.24243906735052 L 226.697265625 181.83545445742377 L 230.9453125 179.14836776972516 L 235.046875 176.16673869266378 L 239.001953125 172.878589340046 L 242.95703125 169.12707029286605 L 246.912109375 164.84688297407843 L 250.720703125 160.15610549787522 L 254.236328125 155.26447036618958 L 257.751953125 149.76465715339788 L 261.12109375 143.85342716502217 L 264.34375 137.54289030466367 L 267.56640625 130.5167141257071 L 270.7890625 122.69374235798773 L 273.865234375 114.40015799066629 L 276.94140625 105.21102756017808 L 280.017578125 95.02964948181216 L 283.09375 83.74888027750313 L 286.169921875 71.25000705411435 L 289.099609375 58.09364737950466 L 292.029296875 43.587659561361875 L 294.958984375 27.593593741908705 L 297.888671875 9.958797363749738 L 300.2179158596992 -5.5" stroke-linecap="round" stroke-linejoin="round" stroke-miterlimit="10" stroke-width="2.5" stroke-opacity="0.9" stroke-dasharray=""/></g><g><path fill="none" stroke="#388c46" class="dcg-svg-curve" paint-order="fill stroke markers" d=" M -0.5 199.48962287319713 L -0.5 199.48962287319713 L 83.2890625 199.3305474768535 L 114.05078125 199.02753512140524 L 133.826171875 198.5866281323746 L 148.474609375 198.01164858924204 L 160.193359375 197.30035920579382 L 170.0078125 196.449082060307 L 178.357421875 195.47001432374722 L 185.681640625 194.35562725360722 L 192.2734375 193.09146939943673 L 198.279296875 191.67107411094565 L 203.845703125 190.0749390828379 L 208.97265625 188.31838810295017 L 213.806640625 186.36338398646524 L 218.34765625 184.21654861563198 L 222.7421875 181.80547960983716 L 226.990234375 179.11383322295345 L 231.091796875 176.12714463972313 L 235.046875 172.83341564875863 L 239.001953125 169.0755306743383 L 242.95703125 164.788080334704 L 246.765625 160.08934310999933 L 250.28125 155.1894073958182 L 253.796875 149.68026158726792 L 257.166015625 143.759000872796 L 260.388671875 137.4377557052171 L 263.611328125 130.39965685553153 L 266.833984375 122.56341034004993 L 269.91015625 114.25575264563622 L 272.986328125 105.05102924201191 L 276.0625 94.85237445220247 L 279.138671875 83.55246298710085 L 282.068359375 71.65813484495067 L 284.998046875 58.54364243197671 L 287.927734375 44.08381677436222 L 290.857421875 28.14064860097858 L 293.787109375 10.561971138090826 L 296.2149622813268 -5.5" stroke-linecap="round" stroke-linejoin="round" stroke-miterlimit="10" stroke-width="2.5" stroke-opacity="0.9" stroke-dasharray=""/></g><g><path fill="none" stroke="#388c46" class="dcg-svg-curve" paint-order="fill stroke markers" d=" M -0.5 199.4883257323468 L -0.5 199.4883257323468 L 80.359375 199.3271023892675 L 110.974609375 199.02027770407975 L 130.603515625 198.57711534304843 L 145.251953125 197.99614737454988 L 156.970703125 197.27744989556632 L 166.638671875 196.43232220338797 L 174.98828125 195.44787607399593 L 182.3125 194.3273672502666 L 188.904296875 193.0562648944157 L 194.91015625 191.62806683237446 L 200.330078125 190.06932445130744 L 205.45703125 188.31172707112555 L 210.291015625 186.35555833322846 L 214.83203125 184.20744406460668 L 219.2265625 181.7949387536059 L 223.474609375 179.10168891791636 L 227.576171875 176.11322112540145 L 231.53125 172.817530017183 L 235.486328125 169.05740642174464 L 239.44140625 164.76740199210784 L 243.25 160.06586566844697 L 246.765625 155.16301099874926 L 250.28125 149.6505833202955 L 253.650390625 143.72579523370365 L 256.873046875 137.40078441805724 L 260.095703125 130.35849288123006 L 263.318359375 122.51757821164819 L 266.39453125 114.20497153735568 L 269.470703125 104.99476476012717 L 272.546875 94.79003449884283 L 275.623046875 83.48339152932328 L 278.552734375 71.58197778099952 L 281.482421875 58.45967289410589 L 284.412109375 43.99123333003752 L 287.341796875 28.038567603745946 L 290.271484375 10.44941829376728 L 292.68088900277417 -5.5" stroke-linecap="round" stroke-linejoin="round" stroke-miterlimit="10" stroke-width="2.5" stroke-opacity="0.9" stroke-dasharray=""/></g><g><path fill="none" stroke="#388c46" class="dcg-svg-curve" paint-order="fill stroke markers" d=" M -0.5 199.48702859149643 L -0.5 199.48702859149643 L 77.869140625 199.32319414309086 L 108.19140625 199.01420123980816 L 127.8203125 198.56542550563123 L 142.322265625 197.9845165484558 L 153.89453125 197.27117021981607 L 163.5625 196.4236546724151 L 171.912109375 195.43642705230488 L 179.236328125 194.3127523012589 L 185.828125 193.03805852552316 L 191.833984375 191.6058251795444 L 197.25390625 190.04267866976429 L 202.380859375 188.2801153085568 L 207.21484375 186.31841953873263 L 211.755859375 184.16423590814034 L 216.150390625 181.7449142148818 L 220.3984375 179.04405477090995 L 224.5 176.0471432503146 L 228.455078125 172.74214037382993 L 232.41015625 168.97139278529775 L 236.365234375 164.66926721754507 L 240.173828125 159.95444699824486 L 243.689453125 155.03773962056331 L 247.205078125 149.5097369238689 L 250.57421875 143.56820872059825 L 253.796875 137.22532698408492 L 257.01953125 130.16313789475646 L 260.2421875 122.30006921316283 L 263.318359375 113.96397579072021 L 266.39453125 104.72774615261739 L 269.470703125 94.49418306680798 L 272.546875 83.15559388760317 L 275.4765625 71.2205534421085 L 278.40625 58.06117230680036 L 281.3359375 43.55185307532071 L 284.265625 27.554114093801616 L 287.1953125 9.915267746996335 L 289.51746438841286 -5.5" stroke-linecap="round" stroke-linejoin="round" stroke-miterlimit="10" stroke-width="2.5" stroke-opacity="0.9" stroke-dasharray=""/></g></g><g id="sketch-6ae7bfe4"><title>Expression 3</title><path fill="#6042a6" stroke="none" paint-order="stroke fill markers" d="" fill-opacity="0.4"/><path fill="#6042a6" stroke="none" paint-order="stroke fill markers" d="" fill-opacity="0.4"/><path fill="#6042a6" stroke="none" paint-order="stroke fill markers" d="" fill-opacity="0.4"/><path fill="#6042a6" stroke="none" paint-order="stroke fill markers" d="" fill-opacity="0.4"/><path fill="#6042a6" stroke="none" paint-order="stroke fill markers" d="" fill-opacity="0.4"/><path fill="#6042a6" stroke="none" paint-order="stroke fill markers" d="" fill-opacity="0.4"/><path fill="#6042a6" stroke="none" paint-order="stroke fill markers" d="" fill-opacity="0.4"/><path fill="#6042a6" stroke="none" paint-order="stroke fill markers" d="" fill-opacity="0.4"/><path fill="#6042a6" stroke="none" paint-order="stroke fill markers" d="" fill-opacity="0.4"/><path fill="#6042a6" stroke="none" paint-order="stroke fill markers" d="" fill-opacity="0.4"/><g><path fill="none" stroke="#6042a6" class="dcg-svg-curve" paint-order="fill stroke markers" d=" M 299.52062409608584 399.5 L 299.52062409608584 399.5 L 299.4671326402227 331.01041666666663 L 299.10571682482356 312.5208333333333 L 298.46406641823864 295.07291666666663 L 297.51355007058436 270.07291666666663 L 297.5462730921552 262.26041666666663 L 297.85656789828465 256.01041666666663 L 298.4069691056393 250.671875 L 299.1945244121259 245.85416666666666 L 300.2134230514036 241.42708333333331 L 301.47316716405567 237.26041666666666 L 303.0074296625707 233.22395833333331 L 304.8813910157774 229.1875 L 307.1198109823867 225.15104166666666 L 309.7387776210028 221.11458333333334 L 312.94891021994385 216.81770833333334 L 316.81108802268534 212.26041666666666 L 321.7318654675903 207.05208333333334 L 329.0898691312734 199.890625 L 337.84069415780857 191.296875 L 341.27863919547724 187.390625 L 343.4508183347049 184.39583333333334 L 344.82562902167365 181.921875 L 345.61432752060347 179.83854166666666 L 345.9756034263434 178.015625 L 345.99499050068835 176.32291666666666 L 345.7085897782102 174.76041666666666 L 345.0971562714345 173.19791666666666 L 344.12698532373537 171.63541666666666 L 342.6301219488837 169.94270833333334 L 340.6237122012958 168.24999999999997 L 338.05860206124817 166.55729166666666 L 334.8836155676973 164.86458333333334 L 331.04568164432055 163.17187499999997 L 326.4899909951388 161.47916666666666 L 320.71649043140576 159.65624999999997 L 313.9730858969228 157.83333333333334 L 306.1862881316225 156.01041666666666 L 296.60086351360354 154.05729166666666 L 285.64013239896923 152.10416666666666 L 272.32937548058146 150.02083333333334 L 257.2395635103501 147.93749999999997 L 239.1380306663048 145.72395833333334 L 218.7857139548061 143.51041666666666 L 194.65727441643816 141.16666666666663 L 167.75865071994426 138.82291666666663 L 136.24917493326816 136.34895833333331 L 99.52763987294058 133.74479166666663 L 59.10274983858349 131.14062499999994 L 12.666531506599615 128.40624999999994 L -5.5 127.42525214453563 L -5.5 67.75952121496692 L 167.6094337756862 66.03645833333331 L 376.8214323921114 64.21354166666663 L 605.5 62.46239679432459" stroke-linecap="round" stroke-linejoin="round" stroke-miterlimit="10" stroke-width="2.5" stroke-opacity="0.9" stroke-dasharray=""/></g><g><path fill="none" stroke="#6042a6" class="dcg-svg-curve" paint-order="fill stroke markers" d=" M 299.54124819217157 399.5 L 299.54124819217157 399.5 L 299.5621736074682 337.9114583333333 L 299.20928475955895 323.328125 L 298.62013214603 310.9583333333333 L 297.7390465038303 298.71875 L 295.53883205423966 270.46354166666663 L 295.50130095916643 264.734375 L 295.753641036367 259.91666666666663 L 296.27385976994674 255.61979166666663 L 297.0192071886234 251.84375 L 298.04607807924776 248.19791666666666 L 299.3139925757612 244.8125 L 300.85793428618484 241.55729166666666 L 302.75748641881944 238.30208333333331 L 305.0483894553548 235.046875 L 307.7641444326805 231.79166666666666 L 311.0710970033289 228.40625 L 314.8965935320752 225.02083333333334 L 319.2583692697198 221.63541666666666 L 324.36128969217896 218.11979166666666 L 330.2574443554858 214.47395833333334 L 336.97085047832826 210.69791666666666 L 345.25724103169375 206.40104166666666 L 356.76747525773214 200.80208333333334 L 374.18267134895535 192.33854166666666 L 380.4431280828539 188.953125 L 384.8719482053662 186.21875 L 387.8917415419642 184.00520833333334 L 390.02877903451275 182.05208333333334 L 391.49046885061256 180.22916666666666 L 392.2228586133119 178.796875 L 392.5316656383069 177.49479166666666 L 392.4899810013767 176.32291666666666 L 392.1187627164946 175.15104166666666 L 391.3911403211829 173.97916666666666 L 390.130674617969 172.67708333333334 L 388.35591091394934 171.375 L 386.02548611341297 170.07291666666666 L 383.0965056074557 168.77083333333334 L 379.13027747750317 167.33854166666666 L 374.3249731389544 165.90624999999997 L 368.0516693477218 164.34374999999997 L 360.6202067330717 162.78124999999997 L 351.16165028701346 161.08854166666666 L 340.12845931262774 159.39583333333334 L 326.35259110681494 157.57291666666666 L 310.46876219638204 155.74999999999997 L 292.3279087414999 153.92708333333334 L 270.21652760804454 151.97395833333334 L 245.15875096116292 150.02083333333334 L 214.9791270207001 147.93749999999997 L 181.0279530331662 145.85416666666666 L 140.59458385543658 143.64062499999997 L 95.44592872166703 141.42708333333331 L 42.275024774526585 139.08333333333331 L -5.5 137.1872618612091 L -5.5 66.2471105692084 L 329.07058401578547 64.734375 L 605.5 63.63850804862216" stroke-linecap="round" stroke-linejoin="round" stroke-miterlimit="10" stroke-width="2.5" stroke-opacity="0.9" stroke-dasharray=""/></g><g><path fill="none" stroke="#6042a6" class="dcg-svg-curve" paint-order="fill stroke markers" d=" M 299.5618722882574 399.5 L 299.5618722882574 399.5 L 299.6539272051547 341.1666666666667 L 299.30303355566565 328.40625 L 298.7198714954856 317.72916666666663 L 297.88386756328225 307.8333333333333 L 296.7115057279064 297.546875 L 293.6709278984376 272.41666666666663 L 293.46932852600753 267.2083333333333 L 293.5917374700908 262.9114583333333 L 293.9880088615459 259.13541666666663 L 294.62994749740943 255.75 L 295.55359445365696 252.49479166666666 L 296.712293200477 249.5 L 298.20925832191045 246.50520833333331 L 299.9967228756518 243.640625 L 302.27859803663523 240.64583333333331 L 305.02486851482644 237.65104166666666 L 308.4303011564581 234.52604166666666 L 312.2510228339155 231.53125 L 316.6516977314838 228.53645833333331 L 321.6602031613364 225.54166666666666 L 327.2960860786249 222.546875 L 333.5681432257657 219.55208333333334 L 340.78591999075695 216.42708333333334 L 349.35194558032765 213.04166666666666 L 359.3736110837011 209.39583333333334 L 371.671724703172 205.22916666666666 L 390.3202896802955 199.23958333333334 L 410.3793251794545 192.72916666666666 L 419.5423979141886 189.47395833333334 L 426.0707023632036 186.86979166666666 L 430.5885048688427 184.78645833333334 L 433.89901926285785 182.96354166666666 L 436.1714013506878 181.40104166666666 L 437.7285510265878 179.96875 L 438.6544525577179 178.66666666666666 L 439.0256310396883 177.625 L 439.05879111908337 176.71354166666666 L 438.80087681715673 175.80208333333334 L 438.23325370265405 174.890625 L 437.18063571977433 173.84895833333334 L 435.4460119269536 172.67708333333334 L 433.08654613516285 171.50520833333334 L 430.05709171657986 170.33333333333334 L 425.84844338017 169.03124999999997 L 420.6888740640527 167.72916666666666 L 413.83343828180733 166.29687499999997 L 405.6508467030919 164.86458333333334 L 395.0970438366173 163.30208333333334 L 382.7194758036905 161.73958333333334 L 367.0985159528922 160.04687499999997 L 349.0090177853197 158.35416666666666 L 326.5656512818054 156.53124999999997 L 300.83280087665935 154.70833333333334 L 269.35661129944117 152.75520833333334 L 233.57063426340304 150.80208333333334 L 190.34075988612983 148.71874999999997 L 141.57221677998922 146.63541666666666 L 83.33846917262628 144.42187499999997 L 18.14883696896264 142.20833333333331 L -5.5 141.48813964012265 L -5.5 65.78743243186724 L 343.8558760236782 64.734375 L 605.5 64.04287322315525" stroke-linecap="round" stroke-linejoin="round" stroke-miterlimit="10" stroke-width="2.5" stroke-opacity="0.9" stroke-dasharray=""/></g><g><path fill="none" stroke="#6042a6" class="dcg-svg-curve" paint-order="fill stroke markers" d=" M 299.5824963843432 399.5 L 299.5824963843432 399.5 L 299.7433838456279 343.1197916666667 L 299.3923261215061 331.53125 L 298.81239608376336 321.8958333333333 L 297.99600219430175 313.171875 L 296.8920375059338 304.578125 L 295.3790280989146 295.203125 L 292.0181515192604 275.15104166666663 L 291.55420028233743 270.07291666666663 L 291.466030828655 265.90625 L 291.6850923686208 262.26041666666663 L 292.1764371873664 259.0052083333333 L 292.9262715931386 256.01041666666663 L 293.95655643714537 253.14583333333331 L 295.2676765843598 250.41145833333331 L 296.9406940609038 247.67708333333331 L 299.01822703018337 244.94270833333331 L 301.5437298224976 242.20833333333331 L 304.71745946538795 239.34375 L 308.2954555287521 236.609375 L 312.4509364458755 233.875 L 317.2219575544953 231.140625 L 322.64219400665775 228.40625 L 328.7393379418944 225.671875 L 335.8743957897587 222.80729166666666 L 343.7853131013597 219.94270833333334 L 352.88131692501133 216.94791666666666 L 363.69556759944487 213.69270833333334 L 376.3826605247595 210.17708333333334 L 391.53474681325554 206.27083333333334 L 412.3986993639259 201.19270833333334 L 448.3581366617701 192.46875 L 460.0177167434701 189.34375 L 468.2609364842715 186.86979166666666 L 474.28467315845694 184.78645833333334 L 478.69869235047713 182.96354166666666 L 481.7285351342503 181.40104166666666 L 483.64592285798494 180.09895833333334 L 484.84534521249833 178.92708333333334 L 485.4536471882275 177.88541666666666 L 485.604290400613 176.97395833333334 L 485.43098034408774 176.19270833333334 L 484.9621870586131 175.41145833333334 L 484.020583187024 174.5 L 482.3921745145573 173.45833333333334 L 480.1363340148247 172.41666666666666 L 477.2118218278987 171.375 L 473.06948800672365 170.20312499999997 L 467.3351843717456 168.90104166666666 L 460.3240063914997 167.59895833333334 L 451.027787606026 166.16666666666666 L 439.95045916747614 164.73437499999997 L 425.6827265772822 163.17187499999997 L 408.96874042823896 161.60937499999997 L 387.89583834839385 159.91666666666666 L 363.51366435066836 158.22395833333334 L 333.2857762295672 156.40104166666666 L 298.65059009135473 154.57812499999997 L 256.3106743164951 152.62499999999997 L 208.1999276457645 150.67187499999997 L 150.11106658399183 148.58854166666666 L 84.61077442375174 146.50520833333334 L 6.432839221728706 144.29166666666666 L -5.5 143.98972120032647 L -5.5 65.54917768251359 L 176.8933867579828 65.125 L 605.5 64.25261552562196" stroke-linecap="round" stroke-linejoin="round" stroke-miterlimit="10" stroke-width="2.5" stroke-opacity="0.9" stroke-dasharray=""/></g><g><path fill="none" stroke="#6042a6" class="dcg-svg-curve" paint-order="fill stroke markers" d=" M 299.603120480429 399.5 L 299.603120480429 399.5 L 299.8311103919346 344.421875 L 299.48111732932466 333.74479166666663 L 298.90752626457083 324.890625 L 298.092161784195 316.8177083333333 L 297.01825898326337 309.13541666666663 L 295.6235428805744 301.32291666666663 L 293.62605936866765 291.94791666666663 L 290.57956220176237 277.7552083333333 L 289.7996760316091 272.546875 L 289.4808676139009 268.51041666666663 L 289.4898322107838 264.99479166666663 L 289.7851495810725 261.86979166666663 L 290.345546484208 259.0052083333333 L 291.18559980000066 256.2708333333333 L 292.30551241846126 253.66666666666666 L 293.78031202979685 251.0625 L 295.65412093317576 248.45833333333331 L 297.97262206062936 245.85416666666666 L 300.93678061679157 243.11979166666666 L 304.3133986167357 240.515625 L 308.0647378601252 238.04166666666666 L 312.38532202458833 235.56770833333331 L 317.31213428817534 233.09375 L 323.1905704613321 230.48958333333331 L 329.8132982960556 227.88541666666666 L 337.2086112127865 225.28125 L 345.8268101310415 222.546875 L 355.80371023457127 219.68229166666666 L 367.2643921589485 216.6875 L 380.30929761518325 213.5625 L 395.6033256559494 210.17708333333334 L 414.5434335165694 206.27083333333334 L 440.6233742049074 201.19270833333334 L 485.5726708272127 192.46875 L 500.1471459293376 189.34375 L 510.45117060533937 186.86979166666666 L 517.980841448071 184.78645833333334 L 523.1415399513241 183.09375 L 526.7205076881692 181.66145833333334 L 529.2623025816548 180.359375 L 530.9055093249445 179.1875 L 531.8049477549168 178.14583333333334 L 532.106238539964 177.36458333333334 L 532.066992442378 176.58333333333334 L 531.6681280285945 175.80208333333334 L 530.7220895044235 174.890625 L 529.2278508029572 173.97916666666666 L 527.1524356048407 173.06770833333334 L 524.0253222734917 172.02604166666666 L 520.0426257424728 170.984375 L 514.4724340759096 169.81249999999997 L 506.83750645665344 168.51041666666666 L 497.5725955202104 167.20833333333334 L 485.36088711095357 165.77604166666666 L 470.8791733693046 164.34374999999997 L 452.3005168326792 162.78124999999997 L 430.60918520301135 161.21874999999997 L 403.33923641699613 159.52604166666666 L 371.86542948461397 157.83333333333334 L 332.9314406581125 156.01041666666666 L 288.4083004414124 154.18749999999997 L 234.07740028513186 152.23437499999997 L 172.44141598575405 150.28124999999997 L 98.1338431368807 148.19791666666666 L 14.462963955043005 146.11458333333334 L -5.5 145.6715119490151 L -5.5 65.4073148710748 L 146.24173344747848 65.125 L 605.5 64.37718180197521" stroke-linecap="round" stroke-linejoin="round" stroke-miterlimit="10" stroke-width="2.5" stroke-opacity="0.9" stroke-dasharray=""/></g><g><path fill="none" stroke="#6042a6" class="dcg-svg-curve" paint-order="fill stroke markers" d=" M 299.62374457651475 399.5 L 299.62374457651475 399.5 L 299.9172856236358 345.3333333333333 L 299.56341670325685 335.30729166666663 L 298.98430251626735 326.9739583333333 L 298.16661729836653 319.421875 L 297.1120483594905 312.390625 L 295.75683466037765 305.359375 L 293.9888756717624 297.80729166666663 L 291.0724053592256 286.86979166666663 L 288.9378077542052 278.40625 L 287.9926623193675 273.4583333333333 L 287.5399005539525 269.5520833333333 L 287.4428482966178 266.16666666666663 L 287.65037876043095 263.171875 L 288.13304632758997 260.4375 L 288.8996447832997 257.8333333333333 L 289.94786015560265 255.359375 L 291.3504597632894 252.88541666666666 L 293.15151487653964 250.41145833333331 L 295.39691429493945 247.9375 L 298.2925426567548 245.33333333333331 L 301.5991906163931 242.859375 L 305.4967237255551 240.38541666666666 L 309.77768543215024 238.04166666666666 L 314.6717464390791 235.69791666666666 L 320.54457797542415 233.22395833333331 L 327.18371581383343 230.75 L 334.6254911616707 228.27604166666666 L 343.35900691284166 225.671875 L 353.549917220604 222.9375 L 364.8010795186698 220.203125 L 377.7215031122935 217.33854166666666 L 393.10389245333454 214.21354166666666 L 411.1894845955635 210.828125 L 432.8911928055418 207.05208333333334 L 461.51062435643485 202.36458333333334 L 526.566885495201 191.81770833333334 L 543.0059339684742 188.82291666666666 L 554.4415688688276 186.47916666666666 L 562.7019030387862 184.52604166666666 L 568.7189334461846 182.83333333333334 L 572.8428027013756 181.40104166666666 L 575.4714065518377 180.22916666666666 L 577.1866111899335 179.1875 L 578.1675229413904 178.27604166666666 L 578.5949969149206 177.49479166666666 L 578.6428948846973 176.84375 L 578.3964705161316 176.19270833333334 L 577.6932805879197 175.41145833333334 L 576.5230325997304 174.63020833333334 L 574.5347736469189 173.71875 L 571.8375866640183 172.80729166666666 L 567.8343174799869 171.765625 L 562.0811402129134 170.59374999999997 L 554.915665082055 169.42187499999997 L 545.181230030474 168.11979166666666 L 533.4497604542952 166.81770833333334 L 518.0718679217143 165.38541666666666 L 499.9172084612861 163.95312499999997 L 476.7137319097406 162.39062499999997 L 449.7088061989432 160.82812499999997 L 415.8517867180685 159.13541666666666 L 376.8690897159993 157.44270833333334 L 328.748829238432 155.61979166666666 L 273.8254321274019 153.79687499999997 L 206.91908314198378 151.84374999999997 L 131.13705550865762 149.89062499999997 L 39.90953180782765 147.80729166666666 L -5.5 146.88506561596657 L -5.5 65.32780625441856 L 605.5 64.4486111069408" stroke-linecap="round" stroke-linejoin="round" stroke-miterlimit="10" stroke-width="2.5" stroke-opacity="0.9" stroke-dasharray=""/></g><g><path fill="none" stroke="#6042a6" class="dcg-svg-curve" paint-order="fill stroke markers" d=" M 299.6443686726006 399.5 L 299.6443686726006 399.5 L 300.0048732050842 346.1145833333333 L 299.6493771690903 336.609375 L 299.0650072096582 328.66666666666663 L 298.24373740918395 321.5052083333333 L 297.1866077530576 314.8645833333333 L 295.8490773454104 308.35416666666663 L 294.1444429761411 301.5833333333333 L 291.84688957053714 293.7708333333333 L 286.94648827154833 277.49479166666663 L 286.0060985657075 273.0677083333333 L 285.546550646278 269.5520833333333 L 285.4285386854027 266.4270833333333 L 285.60709047599545 263.6927083333333 L 286.07169996268783 261.08854166666663 L 286.8247105217041 258.6145833333333 L 287.85983972000093 256.2708333333333 L 289.2495687154654 253.92708333333331 L 291.03681611349 251.58333333333331 L 293.4040997026202 249.109375 L 296.318658057385 246.63541666666666 L 299.63522216911224 244.29166666666666 L 303.54111428346084 241.94791666666666 L 308.0843441037112 239.60416666666666 L 313.31217014838955 237.26041666666666 L 319.2702754340111 234.91666666666666 L 326.00181920817255 232.57291666666666 L 333.99005967155625 230.09895833333331 L 342.9247279711705 227.625 L 353.3880773622631 225.02083333333334 L 364.96292114840685 222.41666666666666 L 378.3251943283998 219.68229166666666 L 393.64237153960715 216.81770833333334 L 411.84224329902855 213.69270833333334 L 433.19216082234163 210.30729166666666 L 458.7415190405556 206.53125 L 493.2617784228351 201.71354166666666 L 560.8893497213437 192.33854166666666 L 580.4060043010727 189.34375 L 594.1198523395702 187 L 604.1487083811809 185.046875 L 605.5 184.73882337337602 L 605.5 170.56740528087 L 603.2466040117664 170.20312499999997 L 594.31303455373 169.03124999999997 L 582.2740394827896 167.72916666666666 L 566.2780226575503 166.29687499999997 L 547.1853089738811 164.86458333333334 L 522.5597689521071 163.30208333333334 L 493.67877687527783 161.73958333333334 L 457.2298705567486 160.04687499999997 L 415.0210414990794 158.35416666666666 L 362.65318632421247 156.53124999999997 L 302.6098687122052 154.70833333333334 L 229.16542636536272 152.75520833333334 L 145.66481328127378 150.80208333333334 L 44.79510640096962 148.71874999999997 L -5.5 147.79794445321275 L -5.5 65.26510938278406 L 605.5 64.51151354208884" stroke-linecap="round" stroke-linejoin="round" stroke-miterlimit="10" stroke-width="2.5" stroke-opacity="0.9" stroke-dasharray=""/></g><g><path fill="none" stroke="#6042a6" class="dcg-svg-curve" paint-order="fill stroke markers" d=" M 299.6649927686864 399.5 L 299.6649927686864 399.5 L 300.09269616532055 346.765625 L 299.74125339345704 337.78125 L 299.1626867506329 330.22916666666663 L 298.35570776315194 323.4583333333333 L 297.2973301881465 317.078125 L 295.9805285841201 310.9583333333333 L 294.3596067045597 304.83854166666663 L 292.28285427852404 298.19791666666663 L 289.1591367127159 289.34375 L 285.77308519070476 279.578125 L 284.4740059962781 274.890625 L 283.7627725217992 271.24479166666663 L 283.44756081215525 268.11979166666663 L 283.45717854665804 265.38541666666663 L 283.74463325357533 262.9114583333333 L 284.30395394656034 260.5677083333333 L 285.126859634159 258.35416666666663 L 286.2741222317078 256.140625 L 287.78522138910336 253.92708333333331 L 289.8277898439885 251.58333333333331 L 292.3758229995287 249.23958333333331 L 295.4822154270305 246.89583333333331 L 298.97752753733465 244.68229166666666 L 303.06542120368556 242.46875 L 307.79218555499705 240.25520833333331 L 313.2035805762003 238.04166666666666 L 319.7289952521054 235.69791666666666 L 327.12229150374145 233.35416666666666 L 335.43019500545904 231.01041666666666 L 345.2378606172901 228.53645833333331 L 356.15204720884356 226.0625 L 368.86970566016754 223.45833333333334 L 383.6014986171215 220.72395833333334 L 400.5493306251748 217.859375 L 419.888835957803 214.86458333333334 L 442.6897217643026 211.609375 L 470.1958930882578 207.96354166666666 L 504.7305543558733 203.66666666666666 L 605.5 191.32007687819907 L 605.5 166.39765195163432 L 588.8854762123588 165.25520833333334 L 564.3297736795262 163.82291666666666 L 532.9829111097295 162.26041666666666 L 493.25948279345687 160.56770833333334 L 447.09585161583595 158.87499999999997 L 389.6437867446783 157.05208333333334 L 323.5900637073252 155.22916666666666 L 242.59411756203377 153.27604166666666 L 150.30127859144233 151.32291666666666 L 38.579964577948694 149.23958333333334 L -5.5 148.51234972410214 L -5.5 65.2180867290582 L 605.5 64.55869036844987" stroke-linecap="round" stroke-linejoin="round" stroke-miterlimit="10" stroke-width="2.5" stroke-opacity="0.9" stroke-dasharray=""/></g><g><path fill="none" stroke="#6042a6" class="dcg-svg-curve" paint-order="fill stroke markers" d=" M 299.68561686477216 399.5 L 299.68561686477216 399.5 L 300.17985544164577 347.2864583333333 L 299.8203332622492 338.5625 L 299.2311854273755 331.2708333333333 L 298.4141356676825 324.76041666666663 L 297.37200530769 318.7708333333333 L 296.0506515116648 312.9114583333333 L 294.4154831585575 307.0520833333333 L 292.38354258481337 300.93229166666663 L 289.7122356780731 293.90104166666663 L 283.4853609273914 277.88541666666663 L 282.33127242454634 273.8489583333333 L 281.69349436682955 270.59375 L 281.42261352620744 267.72916666666663 L 281.4708995614942 265.125 L 281.8014876128798 262.78125 L 282.4044481898803 260.5677083333333 L 283.33021708842887 258.35416666666663 L 284.6208875106713 256.140625 L 286.32087406274127 253.92708333333331 L 288.4767256942438 251.71354166666666 L 291.136879601431 249.5 L 294.35134939198275 247.28645833333331 L 298.1713405387741 245.07291666666666 L 302.6487859245897 242.859375 L 307.83579410990575 240.64583333333331 L 313.78400285313467 238.43229166666666 L 320.5438303896858 236.21875 L 328.6396070032199 233.875 L 337.75306850174644 231.53125 L 348.5301688171773 229.05729166666666 L 360.54325362100565 226.58333333333334 L 374.56465334648175 223.97916666666666 L 390.8344933248206 221.24479166666666 L 409.5852906429104 218.38020833333334 L 431.02304515061655 215.38541666666666 L 456.35138572797416 212.13020833333334 L 485.85258451458526 208.61458333333334 L 523.1705405660862 204.44791666666666 L 586.7024325514504 197.67708333333334 L 605.5 195.62794457149863 L 605.5 164.2277589225348 L 574.5409302988226 162.78124999999997 L 535.4965333654204 161.21874999999997 L 486.4106255505931 159.52604166666666 L 429.7577730723052 157.83333333333334 L 359.67659318460244 156.01041666666666 L 279.5349407945424 154.18749999999997 L 181.73932051323732 152.23437499999997 L 70.79454877435728 150.28124999999997 L -5.5 149.09289365204285 L -5.5 65.18151355393807 L 605.5 64.59538345561957" stroke-linecap="round" stroke-linejoin="round" stroke-miterlimit="10" stroke-width="2.5" stroke-opacity="0.9" stroke-dasharray=""/></g><g><path fill="none" stroke="#6042a6" class="dcg-svg-curve" paint-order="fill stroke markers" d=" M 299.70624096085794 399.5 L 299.70624096085794 399.5 L 300.2656222059916 347.6770833333333 L 299.9068741317193 339.34375 L 299.3163947767994 332.3125 L 298.5026210489917 326.0625 L 297.44287920297523 320.203125 L 296.12702661967984 314.60416666666663 L 294.53651796652673 309.13541666666663 L 292.547323350322 303.40625 L 290.039497444534 297.15625 L 286.16045681288404 288.43229166666663 L 282.4943758725235 279.96875 L 280.9153089396188 275.54166666666663 L 280.01220047566824 272.15625 L 279.53607201028996 269.29166666666663 L 279.3945108004096 266.6875 L 279.5539973236887 264.34375 L 279.9974523350341 262.1302083333333 L 280.7130162022003 260.046875 L 281.7558119300816 257.96354166666663 L 283.16528849205446 255.88020833333331 L 285.1110248369226 253.66666666666666 L 287.5695067067064 251.453125 L 290.5947787494108 249.23958333333331 L 294.009764434352 247.15625 L 298.023711709749 245.07291666666666 L 302.68474792510693 242.98958333333331 L 308.04115516654804 240.90625 L 314.54783062998587 238.69270833333331 L 321.9498143730416 236.47916666666666 L 330.3011431539395 234.265625 L 340.2348432478993 231.921875 L 351.3445154047197 229.578125 L 364.39937190083106 227.10416666666666 L 379.6621734704626 224.5 L 396.51798104911126 221.89583333333334 L 415.94356133739234 219.16145833333334 L 438.1709836088212 216.296875 L 464.52916421376415 213.171875 L 495.3788960071607 209.78645833333334 L 533.5025686480086 205.88020833333334 L 587.2020721398187 200.671875 L 605.5 198.8986281341387 L 605.5 162.82568373051595 L 580.5793738815117 161.86979166666666 L 529.1184934658704 160.17708333333334 L 469.4738052305042 158.48437499999997 L 395.41729355356796 156.66145833333334 L 310.44910404255364 154.83854166666666 L 206.45353758366156 152.88541666666666 L 88.15317144597527 150.93229166666666 L -5.5 149.56770161105615 L -5.5 65.15225501384198 L 605.5 64.62473792535532" stroke-linecap="round" stroke-linejoin="round" stroke-miterlimit="10" stroke-width="2.5" stroke-opacity="0.9" stroke-dasharray=""/></g></g><g id="sketch-6ae7bfe4"><title>Expression 4</title><path fill="#000000" stroke="none" paint-order="stroke fill markers" d="" fill-opacity="0.4"/><path fill="#000000" stroke="none" paint-order="stroke fill markers" d="" fill-opacity="0.4"/><path fill="#000000" stroke="none" paint-order="stroke fill markers" d="" fill-opacity="0.4"/><path fill="#000000" stroke="none" paint-order="stroke fill markers" d="" fill-opacity="0.4"/><path fill="#000000" stroke="none" paint-order="stroke fill markers" d="" fill-opacity="0.4"/><path fill="#000000" stroke="none" paint-order="stroke fill markers" d="" fill-opacity="0.4"/><path fill="#000000" stroke="none" paint-order="stroke fill markers" d="" fill-opacity="0.4"/><path fill="#000000" stroke="none" paint-order="stroke fill markers" d="" fill-opacity="0.4"/><path fill="#000000" stroke="none" paint-order="stroke fill markers" d="" fill-opacity="0.4"/><path fill="#000000" stroke="none" paint-order="stroke fill markers" d="" fill-opacity="0.4"/><g><path fill="none" stroke="#000000" class="dcg-svg-curve" paint-order="fill stroke markers" d=" M -0.5 199.4992943279936 L -0.5 199.4992943279936 L 142.029296875 199.37101991563955 L 191.833984375 199.15856921566296 L 203.552734375 199.43394327311964 L 213.07421875 199.91310000748848 L 221.5703125 200.60078243038944 L 229.48046875 201.50085226740234 L 237.390625 202.6638025440143 L 246.326171875 204.25631225162036 L 266.39453125 207.96123387264868 L 271.228515625 208.5071619490295 L 275.18359375 208.7056124746994 L 278.69921875 208.6284126552814 L 281.921875 208.29371814654354 L 284.8515625 207.72522100417845 L 287.634765625 206.91204432477235 L 290.271484375 205.860261073755 L 292.908203125 204.49905870180365 L 295.544921875 202.7919358202967 L 298.181640625 200.70121158711072 L 300.96484375 198.03568267157718 L 303.89453125 194.6717878644943 L 306.677734375 190.89887983413007 L 309.4609375 186.51921540281884 L 312.244140625 181.49181086969756 L 315.02734375 175.77956093432906 L 317.810546875 169.35073022842477 L 320.740234375 161.7823979649546 L 323.81640625 152.9323031717117 L 327.0390625 142.66403624043397 L 330.408203125 130.85994445268477 L 334.0703125 116.85795410883435 L 338.025390625 100.5180660673978 L 342.859375 79.21957722394757 L 355.45703125 22.94127837504442 L 358.533203125 10.97618999333946 L 361.0234375 2.4849157181358805 L 363.07421875 -3.4597679379724013 L 363.93216932419705 -5.5 L 375.67588024446786 -5.5 L 376.404296875 -3.1673753177744857 L 377.72265625 2.1907466999544454 L 379.041015625 8.837432657439365 L 380.505859375 17.8453689324665 L 381.970703125 28.686913861481344 L 383.58203125 42.89025659560559 L 385.193359375 59.657769306518446 L 386.951171875 81.095891965075 L 388.708984375 106.06149866953541 L 390.61328125 137.38619687277634 L 392.517578125 173.4844753383817 L 394.568359375 218.08372681424257 L 396.619140625 269.03104874566475 L 398.81640625 331.13915291616115 L 401.013671875 401.52557549436403 L 401.12357248682804 405.5 L 487.561504469528 405.5 L 488.025390625 184.2710848717714 L 488.37251282780824 -5.5 L 582.2088012987656 -5.5 L 582.2420362793996 405.5" stroke-linecap="round" stroke-linejoin="round" stroke-miterlimit="10" stroke-width="2.5" stroke-opacity="0.9" stroke-dasharray=""/></g><g><path fill="none" stroke="#000000" class="dcg-svg-curve" paint-order="fill stroke markers" d=" M -0.5 199.49858865598722 L -0.5 199.49858865598722 L 130.896484375 199.37252331416917 L 159.314453125 198.96638409180903 L 182.166015625 198.70408603803983 L 192.859375 198.8441452574691 L 201.208984375 199.21003469554765 L 208.240234375 199.77125928432622 L 214.685546875 200.54594786087657 L 220.69140625 201.5335316340562 L 226.404296875 202.73911428687978 L 232.1171875 204.21933117027362 L 237.9765625 206.0199387148096 L 244.421875 208.2938028253275 L 253.796875 211.94096988573187 L 262.146484375 215.0870250807592 L 266.6875 216.5035229156864 L 270.203125 217.33115553997976 L 273.279296875 217.78634260716376 L 275.9380550980765 217.92268239684768 L 278.40625 217.79100128958424 L 280.75 217.39600012209584 L 282.947265625 216.75127372544145 L 285.14453125 215.80568633095024 L 287.341796875 214.52269104475417 L 289.5390625 212.86387053204845 L 291.8828125 210.63496389269636 L 294.2265625 207.8821382029578 L 296.5703125 204.55312349357754 L 298.9140625 200.59441506892452 L 301.2578125 195.9517708977459 L 303.6015625 190.57080285392811 L 305.9453125 184.39766987527517 L 308.435546875 176.9120623079263 L 310.92578125 168.41283348090286 L 313.416015625 158.8441935524009 L 316.052734375 147.49178926288386 L 318.8359375 134.0928177109131 L 321.619140625 119.19746978629837 L 324.548828125 101.87580291750123 L 327.625 81.87713026296075 L 330.84765625 58.98448368751167 L 334.36328125 31.877004437256005 L 338.318359375 -0.9724170964198038 L 338.8304765473968 -5.5 L 388.0688201000657 -5.5 L 388.85546875 17.11841509112537 L 390.759765625 80.47849057868177 L 392.6640625 153.4372238188061 L 394.71484375 243.51460423580022 L 396.765625 346.3483650017499 L 397.8030048278206 405.5 L 487.7774810925925 405.5 L 488.025390625 169.0421697435428 L 488.1850236441326 -5.5 L 582.2170898279991 -5.5 L 582.2337073183161 405.5" stroke-linecap="round" stroke-linejoin="round" stroke-miterlimit="10" stroke-width="2.5" stroke-opacity="0.9" stroke-dasharray=""/></g><g><path fill="none" stroke="#000000" class="dcg-svg-curve" paint-order="fill stroke markers" d=" M -0.5 199.49788298398082 L -0.5 199.49788298398082 L 126.0625 199.37278322432908 L 148.181640625 198.97739439084205 L 182.3125 198.3063464148238 L 191.1015625 198.44984125152644 L 198.279296875 198.82374632541442 L 204.431640625 199.40143036645483 L 209.998046875 200.18352974651575 L 215.125 201.1636061345807 L 220.10546875 202.38741558881492 L 224.939453125 203.85622584744283 L 229.7734375 205.61779402685102 L 234.75390625 207.74288940456955 L 240.02734375 210.31975347597037 L 246.033203125 213.60138516141635 L 265.076171875 224.30736064522367 L 268.4453125 225.67940562386542 L 271.228515625 226.52148584708846 L 273.71875 226.99011482043548 L 275.9380550980765 227.13402359527151 L 277.966796875 227.00185674974102 L 279.87109375 226.61619153391104 L 281.775390625 225.94548365599528 L 283.6796875 224.95690780055628 L 285.583984375 223.61592471752573 L 287.634765625 221.7361329743171 L 289.83203125 219.168241363251 L 291.8828125 216.20244583904454 L 293.93359375 212.6349991447929 L 295.984375 208.4134562786934 L 298.03515625 203.4842344469087 L 300.232421875 197.35586063188444 L 302.4296875 190.2854461550547 L 304.626953125 182.20599946288817 L 306.970703125 172.40151590090488 L 309.314453125 161.29658482873458 L 311.8046875 147.990734200104 L 314.294921875 133.05322362700633 L 316.931640625 115.37987582849934 L 319.71484375 94.57835127366081 L 322.498046875 71.51756178220529 L 325.427734375 44.775275019226 L 328.50390625 13.991022530909731 L 330.28878157419337 -5.5 L 390.22943769305493 -5.5 L 390.759765625 20.9677358680226 L 392.6640625 130.40583572820924 L 394.71484375 265.5219063537004 L 396.57586972514275 405.5 L 487.84947330028064 405.5 L 488.025390625 153.81325461531418 L 488.1225272495741 -5.5 L 582.219852671077 -5.5 L 582.2309309979549 405.5" stroke-linecap="round" stroke-linejoin="round" stroke-miterlimit="10" stroke-width="2.5" stroke-opacity="0.9" stroke-dasharray=""/></g><g><path fill="none" stroke="#000000" class="dcg-svg-curve" paint-order="fill stroke markers" d=" M -0.5 199.4971773119744 L -0.5 199.4971773119744 L 123.1328125 199.3742230023664 L 142.322265625 198.97601508118788 L 184.802734375 197.92612197162651 L 191.98046875 198.14157793446435 L 198.1328125 198.58422215090815 L 203.552734375 199.23577309247855 L 208.533203125 200.1013527007319 L 213.220703125 201.19085667334406 L 217.615234375 202.4869560854593 L 222.009765625 204.075840210811 L 226.2578125 205.90960730742015 L 230.65234375 208.12675911516283 L 235.193359375 210.76027017582842 L 240.02734375 213.92633796796054 L 245.59375 217.9681953439634 L 254.236328125 224.7288664376263 L 261.267578125 230.06048370194685 L 265.22265625 232.66485858044965 L 268.298828125 234.33610215062623 L 270.935546875 235.43000735230302 L 273.1328125 236.0428119445899 L 275.037109375 236.31279455246968 L 276.794921875 236.3147298728069 L 278.552734375 236.0488648561734 L 280.1640625 235.5431471929906 L 281.775390625 234.76064487466036 L 283.533203125 233.56001747745267 L 285.291015625 231.96213138406975 L 287.1953125 229.7389637253534 L 289.099609375 226.95520791072457 L 291.00390625 223.55888376772393 L 292.908203125 219.4962348072146 L 294.8125 214.71194936318165 L 296.86328125 208.68765767542553 L 298.9140625 201.68883013784904 L 300.96484375 193.6427306863087 L 303.162109375 183.77692998985117 L 305.359375 172.536240955705 L 307.703125 158.93261873830437 L 310.046875 143.56381987410288 L 312.537109375 125.19348791834278 L 315.02734375 104.61824373731616 L 317.6640625 80.329554299069 L 320.447265625 51.80719076347009 L 323.23046875 20.259292599588946 L 325.2980931159471 -5.5 L 391.1815592776501 -5.5 L 392.078125 60.351434683409366 L 394.12890625 233.52687343902244 L 395.9082624705125 405.5 L 487.88546940412476 405.5 L 488.025390625 138.58433948708557 L 488.0912790522948 -5.5 L 582.2212340926159 -5.5 L 582.2295428377744 405.5" stroke-linecap="round" stroke-linejoin="round" stroke-miterlimit="10" stroke-width="2.5" stroke-opacity="0.9" stroke-dasharray=""/></g><g><path fill="none" stroke="#000000" class="dcg-svg-curve" paint-order="fill stroke markers" d=" M -0.5 199.49647163996804 L -0.5 199.49647163996804 L 121.228515625 199.37462212124063 L 138.66015625 198.96566283262231 L 157.41015625 198.24738867002847 L 176.453125 197.5636123500478 L 184.802734375 197.53265246453313 L 191.248046875 197.7580254732715 L 196.814453125 198.2065739544249 L 201.794921875 198.8673988584875 L 206.3359375 199.7311608241171 L 210.583984375 200.80368224109938 L 214.685546875 202.11486965219143 L 218.640625 203.66329455783995 L 222.595703125 205.5137642124822 L 226.55078125 207.68401604302332 L 230.65234375 210.28344889395353 L 235.046875 213.46250715330348 L 239.734375 217.28069327814106 L 245.154296875 222.1704581462901 L 253.064453125 229.87835393634057 L 260.974609375 237.44037640005587 L 264.9296875 240.7342405953251 L 268.005859375 242.86705754496015 L 270.49609375 244.21616863750654 L 272.546875 245.01129578614143 L 274.451171875 245.44726107985332 L 276.0625 245.55591128851154 L 277.673828125 245.39648982072129 L 279.138671875 244.99420190564905 L 280.603515625 244.32285723207855 L 282.21484375 243.24465729305794 L 283.97265625 241.62404621978746 L 285.73046875 239.49524714700289 L 287.48828125 236.81057632391762 L 289.24609375 233.5204686635556 L 291.150390625 229.2134060350153 L 293.0546875 224.06818410215703 L 294.958984375 218.01552671800854 L 297.009765625 210.4011481834969 L 299.060546875 201.56212978490464 L 301.111328125 191.40750903773036 L 303.30859375 178.96412672804033 L 305.505859375 164.79478458961788 L 307.849609375 147.65601342470026 L 310.193359375 128.3030460568031 L 312.68359375 105.18146237086688 L 315.173828125 79.29657682233375 L 317.810546875 48.753651142124 L 320.59375 12.903237564305357 L 321.8860350493466 -5.5 L 391.73977330583443 -5.5 L 392.078125 25.564293354261736 L 394.12890625 242.03359179877805 L 395.4819779820513 405.5 L 487.9070670664312 405.5 L 488.025390625 123.35542435885702 L 488.0725301339273 -5.5 L 582.2220629455393 -5.5 L 582.2287099416661 405.5" stroke-linecap="round" stroke-linejoin="round" stroke-miterlimit="10" stroke-width="2.5" stroke-opacity="0.9" stroke-dasharray=""/></g><g><path fill="none" stroke="#000000" class="dcg-svg-curve" paint-order="fill stroke markers" d=" M -0.5 199.49576596796163 L -0.5 199.49576596796163 L 119.763671875 199.37660716999386 L 135.876953125 198.9591850232395 L 151.990234375 198.27112935491715 L 176.892578125 197.1664817538271 L 184.509765625 197.13409974910402 L 190.515625 197.36183920812888 L 195.642578125 197.80672859620248 L 200.330078125 198.4730856856388 L 204.578125 199.33725341672732 L 208.6796875 200.44674137240028 L 212.634765625 201.80819663872046 L 216.443359375 203.42056388057213 L 220.251953125 205.35550433021413 L 224.060546875 207.6354439789049 L 228.015625 210.38560366363288 L 232.1171875 213.6579935108209 L 236.51171875 217.63216896239865 L 241.345703125 222.5235011867808 L 247.05859375 228.8804057546815 L 263.611328125 247.73314431701857 L 266.98046875 250.74870529429404 L 269.6171875 252.64107784408202 L 271.814453125 253.81624591141755 L 273.572265625 254.4420572693167 L 275.18359375 254.73367484819642 L 276.6484375 254.73656548218526 L 278.11328125 254.46318425259918 L 279.578125 253.8865589820181 L 281.04296875 252.9784689240227 L 282.654296875 251.56153579702973 L 284.412109375 249.46958224352394 L 286.169921875 246.75371673903982 L 287.927734375 243.35614186582225 L 289.685546875 239.21683763492578 L 291.443359375 234.27372214742186 L 293.34765625 227.93739281765875 L 295.251953125 220.49917163248224 L 297.15625 211.87377181368265 L 299.20703125 201.15781165821713 L 301.2578125 188.85531269323772 L 303.455078125 173.789302994563 L 305.65234375 156.6433349093162 L 307.99609375 135.9151220568965 L 310.33984375 112.5206396295423 L 312.830078125 84.58379771242335 L 315.3203125 53.322474218414754 L 317.95703125 16.452098965075038 L 319.3694303062572 -5.5 L 392.0875799392781 -5.5 L 392.517578125 43.40685203029028 L 394.568359375 311.00236088545546 L 395.2023278844283 405.5 L 487.92146550796883 405.5 L 488.025390625 108.12650923062836 L 488.06003085501555 -5.5 L 582.2226155141548 -5.5 L 582.2281546775938 405.5" stroke-linecap="round" stroke-linejoin="round" stroke-miterlimit="10" stroke-width="2.5" stroke-opacity="0.9" stroke-dasharray=""/></g><g><path fill="none" stroke="#000000" class="dcg-svg-curve" paint-order="fill stroke markers" d=" M -0.5 199.49506029595526 L -0.5 199.49506029595526 L 118.73828125 199.37677780201852 L 133.826171875 198.9489942413439 L 148.328125 198.27257295968386 L 178.50390625 196.74285988969956 L 185.2421875 196.755826644569 L 190.662109375 197.01617899622053 L 195.49609375 197.50522808463487 L 199.890625 198.21502415538407 L 203.9921875 199.1520268551398 L 207.80078125 200.2983605974178 L 211.462890625 201.68510791510593 L 215.125 203.38174764735498 L 218.787109375 205.41684371398884 L 222.44921875 207.81546224451174 L 226.111328125 210.59736033693946 L 230.06640625 214.04629347356433 L 234.16796875 218.1125447487973 L 238.708984375 223.17396959874483 L 243.54296875 229.13911437278608 L 249.548828125 237.1687511249546 L 261.12109375 252.79906800802007 L 264.783203125 257.07080798351467 L 267.712890625 259.9579365102895 L 270.203125 261.90904438992914 L 272.107421875 263.0147425458558 L 273.865234375 263.6854991418661 L 275.330078125 263.95326225086956 L 276.6484375 263.94265972921613 L 277.966796875 263.67099908272905 L 279.28515625 263.1153936378621 L 280.603515625 262.25200012490996 L 282.068359375 260.901502917916 L 283.6796875 258.89945153463134 L 285.291015625 256.3087299221221 L 286.90234375 253.0783531710187 L 288.513671875 249.15544877074964 L 290.271484375 244.02182751628504 L 292.029296875 237.9257871434528 L 293.93359375 230.1483313378501 L 295.837890625 221.0549227456519 L 297.7421875 210.54551102212042 L 299.79296875 197.52773942609426 L 301.84375 182.6225276445865 L 304.041015625 164.41350587151385 L 306.23828125 143.73692950564993 L 308.58203125 118.7925721984148 L 310.92578125 90.69491718315993 L 313.416015625 57.20467743340322 L 315.90625 19.79701545853527 L 317.4207672608365 -5.5 L 392.3223858599027 -5.5 L 393.689453125 190.51938152684434 L 394.99682224607454 405.5 L 487.93175010906714 405.5 L 488.025390625 92.89759410239975 L 488.05110279865005 -5.5 L 582.2230102060231 -5.5 L 582.2277580603994 405.5" stroke-linecap="round" stroke-linejoin="round" stroke-miterlimit="10" stroke-width="2.5" stroke-opacity="0.9" stroke-dasharray=""/></g><g><path fill="none" stroke="#000000" class="dcg-svg-curve" paint-order="fill stroke markers" d=" M -0.5 199.49435462394885 L -0.5 199.49435462394885 L 81.53125 199.63293769200325 L 107.751953125 199.54144078119796 L 123.71875 199.2318242471655 L 137.341796875 198.70987190457691 L 151.404296875 197.900015364404 L 176.013671875 196.41584815673232 L 182.8984375 196.32083958357205 L 188.318359375 196.495132880178 L 193.15234375 196.90998466569746 L 197.400390625 197.53275402312158 L 201.35546875 198.37644615607073 L 205.017578125 199.42334696448728 L 208.533203125 200.7027054014638 L 212.048828125 202.28282565670335 L 215.564453125 204.1943493057514 L 219.080078125 206.4657769713374 L 222.595703125 209.1220227399715 L 226.2578125 212.3192146148403 L 230.212890625 216.28053825917237 L 234.314453125 220.9478168457911 L 238.5625 226.35944645658716 L 243.25 232.94315277850794 L 248.81640625 241.4022420396145 L 261.560546875 261.03377233097655 L 264.9296875 265.47478495252017 L 267.712890625 268.594784583188 L 270.203125 270.82462215991904 L 272.107421875 272.0882771952638 L 273.71875 272.8069728544946 L 275.18359375 273.14489979759526 L 276.501953125 273.1643659633274 L 277.673828125 272.93438371315403 L 278.845703125 272.4526823672256 L 280.1640625 271.5862943859812 L 281.62890625 270.18782090196 L 283.240234375 268.0734257324009 L 284.8515625 265.3017680334275 L 286.462890625 261.8151858203284 L 288.07421875 257.55383054853405 L 289.83203125 251.94864363533605 L 291.58984375 245.26469411975881 L 293.34765625 237.41652375687835 L 295.251953125 227.49889550997634 L 297.15625 215.99836241824354 L 299.20703125 201.7104155442895 L 301.2578125 185.30708359098364 L 303.455078125 165.21907065941738 L 305.65234375 142.35777987908824 L 307.99609375 114.7201627425286 L 310.33984375 83.52751950605636 L 312.830078125 46.278396949897854 L 315.3203125 4.5966322912196915 L 315.8618444106029 -5.5 L 392.5355353917076 -5.5 L 394.568359375 348.16981451394065 L 394.8568231867291 405.5 L 487.93946355989084 405.5 L 488.025390625 77.6686789741712 L 488.0444067563759 -5.5 L 582.2233062249243 -5.5 L 582.2274605975035 405.5" stroke-linecap="round" stroke-linejoin="round" stroke-miterlimit="10" stroke-width="2.5" stroke-opacity="0.9" stroke-dasharray=""/></g><g><path fill="none" stroke="#000000" class="dcg-svg-curve" paint-order="fill stroke markers" d=" M -0.5 199.49364895194248 L -0.5 199.49364895194248 L 74.060546875 199.63216155360777 L 103.943359375 199.58849826825238 L 120.056640625 199.3070306517614 L 133.240234375 198.81965371192567 L 145.984375 198.08352285560338 L 165.61328125 196.62719738133896 L 175.57421875 196.04716653715946 L 182.166015625 195.91838717117926 L 187.439453125 196.0666596323277 L 191.98046875 196.4435503525448 L 196.08203125 197.03669178783417 L 199.890625 197.84788819977953 L 203.552734375 198.90548945807677 L 207.068359375 200.2142527790937 L 210.4375 201.77169015201213 L 213.806640625 203.65722928815723 L 217.17578125 205.90028215196804 L 220.69140625 208.65089235325294 L 224.20703125 211.84540378240544 L 228.015625 215.82840549544932 L 231.82421875 220.36511782346267 L 235.779296875 225.6557570100218 L 239.880859375 231.73191420362772 L 244.568359375 239.31805767866123 L 250.57421875 249.74783941799413 L 260.2421875 266.6052103472049 L 263.904296875 272.27580225678423 L 266.833984375 276.1954119951806 L 269.32421875 278.93243229432136 L 271.375 280.67123079928047 L 273.1328125 281.72132687532724 L 274.59765625 282.2414480201621 L 275.9380550980765 282.40207078581454 L 277.087890625 282.2771439848732 L 278.259765625 281.8794353941985 L 279.431640625 281.1879930676246 L 280.75 280.0320005494313 L 282.21484375 278.2403831275043 L 283.6796875 275.87072340166884 L 285.14453125 272.87558848927614 L 286.755859375 268.7997853270098 L 288.3671875 263.83986622263103 L 290.125 257.3383257104091 L 291.8828125 249.60733751713363 L 293.640625 240.55033197551867 L 295.544921875 229.12742238267023 L 297.44921875 215.90386373863163 L 299.5 199.5 L 301.55078125 180.69287756713456 L 303.748046875 157.68934447205896 L 305.9453125 131.5395144387383 L 308.2890625 99.95946507399162 L 310.6328125 64.35247729561388 L 313.123046875 21.87198767211197 L 314.55827914182055 -5.5 L 392.64009683449217 -5.5 L 393.689453125 187.95349053451417 L 394.71843225202235 405.5 L 487.94546291053155 405.5 L 488.025390625 62.43976384594259 L 488.03919872349604 -5.5 L 582.2235364618474 -5.5 L 582.2272292374734 405.5" stroke-linecap="round" stroke-linejoin="round" stroke-miterlimit="10" stroke-width="2.5" stroke-opacity="0.9" stroke-dasharray=""/></g><g><path fill="none" stroke="#000000" class="dcg-svg-curve" paint-order="fill stroke markers" d=" M -0.5 199.49294327993607 L -0.5 199.49294327993607 L 69.666015625 199.63201334614985 L 102.0390625 199.61650799286366 L 117.859375 199.348116412666 L 130.603515625 198.8767327558138 L 142.615234375 198.16973090793354 L 156.53125 197.0698582141005 L 172.9375 195.79713478582462 L 179.822265625 195.5342212777306 L 185.2421875 195.57975234938428 L 189.9296875 195.8784090039025 L 194.03125 196.39650807871368 L 197.83984375 197.14137528710563 L 201.35546875 198.0955576950884 L 204.724609375 199.2866523504454 L 208.09375 200.7837259448291 L 211.31640625 202.5341239588905 L 214.5390625 204.626071330686 L 217.908203125 207.2087696756674 L 221.27734375 210.2243156569483 L 224.939453125 214.0207528248094 L 228.6015625 218.37805713177383 L 232.263671875 223.30460393220665 L 236.072265625 229.02273535969925 L 240.173828125 235.81920261345843 L 244.71484375 244.0161202766684 L 250.57421875 255.33093268666013 L 260.2421875 274.06134483022765 L 263.7578125 280.12605461417144 L 266.541015625 284.31600936446273 L 268.884765625 287.27302716344735 L 270.935546875 289.32501838075757 L 272.693359375 290.6114798181586 L 274.158203125 291.30181948794416 L 275.4765625 291.591837009811 L 276.6484375 291.56094247030876 L 277.8203125 291.23539812189847 L 278.9921875 290.59229442550225 L 280.310546875 289.45959884807536 L 281.775390625 287.65161218665094 L 283.240234375 285.2167821655011 L 284.705078125 282.1029960151603 L 286.169921875 278.2561945650664 L 287.78125 273.11126851591735 L 289.392578125 266.9347351046224 L 291.150390625 258.92681207003056 L 292.908203125 249.49058701803645 L 294.8125 237.5298734079541 L 296.716796875 223.6235625515803 L 298.767578125 206.30653325825133 L 300.818359375 186.38434675135198 L 303.015625 161.94111828286572 L 305.212890625 134.07538804004355 L 307.556640625 100.33382388156718 L 309.900390625 62.194828143283985 L 312.390625 16.58543106754115 L 313.466752533537 -5.5 L 392.7589507673776 -5.5 L 394.275390625 317.83588793282746 L 394.63484518673283 405.5 L 487.9502623910441 405.5 L 488.025390625 47.210848717713986 L 488.0350322971921 -5.5 L 582.223720651386 -5.5 L 582.2270441494494 405.5" stroke-linecap="round" stroke-linejoin="round" stroke-miterlimit="10" stroke-width="2.5" stroke-opacity="0.9" stroke-dasharray=""/></g></g></g><g id="labels-6ae7bfe4"/></g></svg>