<svg version="1.1" xmlns="http://www.w3.org/2000/svg" xmlns:xlink="http://www.w3.org/1999/xlink" width="600" height="400"><defs/><g transform="scale(1,1)"><g id="background-18ac7c7a"><rect fill="white" stroke="none" x="0" y="0" width="600" height="400" class="dcg-svg-background"/></g><g id="background-images-18ac7c7a"/><g id="graphpaper-18ac7c7a"><g id="grid-18ac7c7a"><g><path fill="none" stroke="rgb(0,0,0)" class="dcg-svg-minor-gridline" paint-order="fill stroke markers" d=" M -0.5 0 L -0.5 400" stroke-opacity="0.12" stroke-miterlimit="10" stroke-dasharray=""/><path fill="none" stroke="rgb(0,0,0)" class="dcg-svg-minor-gridline" paint-order="fill stroke markers" d=" M 29.5 0 L 29.5 400" stroke-opacity="0.12" stroke-miterlimit="10" stroke-dasharray=""/><path fill="none" stroke="rgb(0,0,0)" class="dcg-svg-minor-gridline" paint-order="fill stroke markers" d=" M 59.5 0 L 59.5 400" stroke-opacity="0.12" stroke-miterlimit="10" stroke-dasharray=""/><path fill="none" stroke="rgb(0,0,0)" class="dcg-svg-minor-gridline" paint-order="fill stroke markers" d=" M 89.5 0 L 89.5 400" stroke-opacity="0.12" stroke-miterlimit="10" stroke-dasharray=""/><path fill="none" stroke="rgb(0,0,0)" class="dcg-svg-minor-gridline" paint-order="fill stroke markers" d=" M 119.5 0 L 119.5 400" stroke-opacity="0.12" stroke-miterlimit="10" stroke-dasharray=""/><path fill="none" stroke="rgb(0,0,0)" class="dcg-svg-minor-gridline" paint-order="fill stroke markers" d=" M 149.5 0 L 149.5 400" stroke-opacity="0.12" stroke-miterlimit="10" stroke-dasharray=""/><path fill="none" stroke="rgb(0,0,0)" class="dcg-svg-minor-gridline" paint-order="fill stroke markers" d=" M 179.5 0 L 179.5 400" stroke-opacity="0.12" stroke-miterlimit="10" stroke-dasharray=""/><path fill="none" stroke="rgb(0,0,0)" class="dcg-svg-minor-gridline" paint-order="fill stroke markers" d=" M 209.5 0 L 209.5 400" stroke-opacity="0.12" stroke-miterlimit="10" stroke-dasharray=""/><path fill="none" stroke="rgb(0,0,0)" class="dcg-svg-minor-gridline" paint-order="fill stroke markers" d=" M 239.5 0 L 239.5 400" stroke-opacity="0.12" stroke-miterlimit="10" stroke-dasharray=""/><path fill="none" stroke="rgb(0,0,0)" class="dcg-svg-minor-gridline" paint-order="fill stroke markers" d=" M 269.5 0 L 269.5 400" stroke-opacity="0.12" stroke-miterlimit="10" stroke-dasharray=""/><path fill="none" stroke="rgb(0,0,0)" class="dcg-svg-minor-gridline" paint-order="fill stroke markers" d=" M 329.5 0 L 329.5 400" stroke-opacity="0.12" stroke-miterlimit="10" stroke-dasharray=""/><path fill="none" stroke="rgb(0,0,0)" class="dcg-svg-minor-gridline" paint-order="fill stroke markers" d=" M 359.5 0 L 359.5 400" stroke-opacity="0.12" stroke-miterlimit="10" stroke-dasharray=""/><path fill="none" stroke="rgb(0,0,0)" class="dcg-svg-minor-gridline" paint-order="fill stroke markers" d=" M 389.5 0 L 389.5 400" stroke-opacity="0.12" stroke-miterlimit="10" stroke-dasharray=""/><path fill="none" stroke="rgb(0,0,0)" class="dcg-svg-minor-gridline" paint-order="fill stroke markers" d=" M 419.5 0 L 419.5 400" stroke-opacity="0.12" stroke-miterlimit="10" stroke-dasharray=""/><path fill="none" stroke="rgb(0,0,0)" class="dcg-svg-minor-gridline" paint-order="fill stroke markers" d=" M 449.5 0 L 449.5 400" stroke-opacity="0.12" stroke-miterlimit="10" stroke-dasharray=""/><path fill="none" stroke="rgb(0,0,0)" class="dcg-svg-minor-gridline" paint-order="fill stroke markers" d=" M 479.5 0 L 479.5 400" stroke-opacity="0.12" stroke-miterlimit="10" stroke-dasharray=""/><path fill="none" stroke="rgb(0,0,0)" class="dcg-svg-minor-gridline" paint-order="fill stroke markers" d=" M 509.5 0 L 509.5 400" stroke-opacity="0.12" stroke-miterlimit="10" stroke-dasharray=""/><path fill="none" stroke="rgb(0,0,0)" class="dcg-svg-minor-gridline" paint-order="fill stroke markers" d=" M 539.5 0 L 539.5 400" stroke-opacity="0.12" stroke-miterlimit="10" stroke-dasharray=""/><path fill="none" stroke="rgb(0,0,0)" class="dcg-svg-minor-gridline" paint-order="fill stroke markers" d=" M 569.5 0 L 569.5 400" stroke-opacity="0.12" stroke-miterlimit="10" stroke-dasharray=""/><path fill="none" stroke="rgb(0,0,0)" class="dcg-svg-minor-gridline" paint-order="fill stroke markers" d=" M 0 370.5 L 600 370.5" stroke-opacity="0.12" stroke-miterlimit="10" stroke-dasharray=""/><path fill="none" stroke="rgb(0,0,0)" class="dcg-svg-minor-gridline" paint-order="fill stroke markers" d=" M 0 342.5 L 600 342.5" stroke-opacity="0.12" stroke-miterlimit="10" stroke-dasharray=""/><path fill="none" stroke="rgb(0,0,0)" class="dcg-svg-minor-gridline" paint-order="fill stroke markers" d=" M 0 313.5 L 600 313.5" stroke-opacity="0.12" stroke-miterlimit="10" stroke-dasharray=""/><path fill="none" stroke="rgb(0,0,0)" class="dcg-svg-minor-gridline" paint-order="fill stroke markers" d=" M 0 285.5 L 600 285.5" stroke-opacity="0.12" stroke-miterlimit="10" stroke-dasharray=""/><path fill="none" stroke="rgb(0,0,0)" class="dcg-svg-minor-gridline" paint-order="fill stroke markers" d=" M 0 256.5 L 600 256.5" stroke-opacity="0.12" stroke-miterlimit="10" stroke-dasharray=""/><path fill="none" stroke="rgb(0,0,0)" class="dcg-svg-minor-gridline" paint-order="fill stroke markers" d=" M 0 228.5 L 600 228.5" stroke-opacity="0.12" stroke-miterlimit="10" stroke-dasharray=""/><path fill="none" stroke="rgb(0,0,0)" class="dcg-svg-minor-gridline" paint-order="fill stroke markers" d=" M 0 170.5 L 600 170.5" stroke-opacity="0.12" stroke-miterlimit="10" stroke-dasharray=""/><path fill="none" stroke="rgb(0,0,0)" class="dcg-svg-minor-gridline" paint-order="fill stroke markers" d=" M 0 142.5 L 600 142.5" stroke-opacity="0.12" stroke-miterlimit="10" stroke-dasharray=""/><path fill="none" stroke="rgb(0,0,0)" class="dcg-svg-minor-gridline" paint-order="fill stroke markers" d=" M 0 113.5 L 600 113.5" stroke-opacity="0.12" stroke-miterlimit="10" stroke-dasharray=""/><path fill="none" stroke="rgb(0,0,0)" class="dcg-svg-minor-gridline" paint-order="fill stroke markers" d=" M 0 85.5 L 600 85.5" stroke-opacity="0.12" stroke-miterlimit="10" stroke-dasharray=""/><path fill="none" stroke="rgb(0,0,0)" class="dcg-svg-minor-gridline" paint-order="fill stroke markers" d=" M 0 56.5 L 600 56.5" stroke-opacity="0.12" stroke-miterlimit="10" stroke-dasharray=""/><path fill="none" stroke="rgb(0,0,0)" class="dcg-svg-minor-gridline" paint-order="fill stroke markers" d=" M 0 28.5 L 600 28.5" stroke-opacity="0.12" stroke-miterlimit="10" stroke-dasharray=""/><path fill="none" stroke="rgb(0,0,0)" class="dcg-svg-minor-gridline" paint-order="fill stroke markers" d=" M 0 -0.5 L 600 -0.5" stroke-opacity="0.12" stroke-miterlimit="10" stroke-dasharray=""/><path fill="none" stroke="rgb(0,0,0)" class="dcg-svg-major-gridline" paint-order="fill stroke markers" d=" M -0.5 0 L -0.5 400" stroke-opacity="0.31818181818181823" stroke-miterlimit="10" stroke-dasharray=""/><path fill="none" stroke="rgb(0,0,0)" class="dcg-svg-major-gridline" paint-order="fill stroke markers" d=" M 149.5 0 L 149.5 400" stroke-opacity="0.31818181818181823" stroke-miterlimit="10" stroke-dasharray=""/><path fill="none" stroke="rgb(0,0,0)" class="dcg-svg-major-gridline" paint-order="fill stroke markers" d=" M 449.5 0 L 449.5 400" stroke-opacity="0.31818181818181823" stroke-miterlimit="10" stroke-dasharray=""/><path fill="none" stroke="rgb(0,0,0)" class="dcg-svg-major-gridline" paint-order="fill stroke markers" d=" M 0 342.5 L 600 342.5" stroke-opacity="0.31818181818181823" stroke-miterlimit="10" stroke-dasharray=""/><path fill="none" stroke="rgb(0,0,0)" class="dcg-svg-major-gridline" paint-order="fill stroke markers" d=" M 0 56.5 L 600 56.5" stroke-opacity="0.31818181818181823" stroke-miterlimit="10" stroke-dasharray=""/></g></g><g id="axis-18ac7c7a"><g id="yaxis-18ac7c7a"><title>Y axis</title><path fill="none" stroke="rgb(0,0,0)" class="dcg-svg-axis-line" paint-order="fill stroke markers" d=" M 299.75 0 L 299.75 400" stroke-opacity="0.9" stroke-miterlimit="10" stroke-width="1.5" stroke-dasharray=""/></g><g id="xaxis-18ac7c7a"><title>X axis</title><path fill="none" stroke="rgb(0,0,0)" class="dcg-svg-axis-line" paint-order="fill stroke markers" d=" M 0 199.75 L 600 199.75" stroke-opacity="0.9" stroke-miterlimit="10" stroke-width="1.5" stroke-dasharray=""/></g><g><g class="dcg-svg-axis-value"><text fill="none" stroke="#ffffff" font-family="Arial" font-size="14px" font-style="normal" font-weight="normal" text-decoration="normal" x="291.10693359375" y="215.808" text-anchor="middle" stroke-miterlimit="2" stroke-width="3" stroke-dasharray="">0</text><text fill="#000000" stroke="none" font-family="Arial" font-size="14px" font-style="normal" font-weight="normal" text-decoration="normal" x="291.10693359375" y="215.808" text-anchor="middle">0</text></g><g class="dcg-svg-axis-value dcg-svg-offcenter-axis-value"><text fill="none" stroke="#ffffff" font-family="Arial" font-size="14px" font-style="normal" font-weight="normal" text-decoration="normal" x="13.1171875" y="215.808" text-anchor="middle" stroke-miterlimit="2" stroke-width="3" stroke-dasharray="">-10</text><text fill="#000000" stroke="none" font-family="Arial" font-size="14px" font-style="normal" font-weight="normal" text-decoration="normal" x="13.1171875" y="215.808" text-anchor="middle">-10</text></g><g class="dcg-svg-axis-value"><text fill="none" stroke="#ffffff" font-family="Arial" font-size="14px" font-style="normal" font-weight="normal" text-decoration="normal" x="147.6689453125" y="215.808" text-anchor="middle" stroke-miterlimit="2" stroke-width="3" stroke-dasharray="">-5</text><text fill="#000000" stroke="none" font-family="Arial" font-size="14px" font-style="normal" font-weight="normal" text-decoration="normal" x="147.6689453125" y="215.808" text-anchor="middle">-5</text></g><g class="dcg-svg-axis-value"><text fill="none" stroke="#ffffff" font-family="Arial" font-size="14px" font-style="normal" font-weight="normal" text-decoration="normal" x="450" y="215.808" text-anchor="middle" stroke-miterlimit="2" stroke-width="3" stroke-dasharray="">5</text><text fill="#000000" stroke="none" font-family="Arial" font-size="14px" font-style="normal" font-weight="normal" text-decoration="normal" x="450" y="215.808" text-anchor="middle">5</text></g><g class="dcg-svg-axis-value dcg-svg-offcenter-axis-value"><text fill="none" stroke="#ffffff" font-family="Arial" font-size="14px" font-style="normal" font-weight="normal" text-decoration="normal" x="589.2138671875" y="215.808" text-anchor="middle" stroke-miterlimit="2" stroke-width="3" stroke-dasharray="">10</text><text fill="#000000" stroke="none" font-family="Arial" font-size="14px" font-style="normal" font-weight="normal" text-decoration="normal" x="589.2138671875" y="215.808" text-anchor="middle">10</text></g><g class="dcg-svg-axis-value"><text fill="none" stroke="#ffffff" font-family="Arial" font-size="14px" font-style="normal" font-weight="normal" text-decoration="normal" x="288.77587890625" y="346.6651428571428" text-anchor="middle" stroke-miterlimit="2" stroke-width="3" stroke-dasharray="">-5</text><text fill="#000000" stroke="none" font-family="Arial" font-size="14px" font-style="normal" font-weight="normal" text-decoration="normal" x="288.77587890625" y="346.6651428571428" text-anchor="middle">-5</text></g><g class="dcg-svg-axis-value"><text fill="none" stroke="#ffffff" font-family="Arial" font-size="14px" font-style="normal" font-weight="normal" text-decoration="normal" x="291.10693359375" y="60.95085714285717" text-anchor="middle" stroke-miterlimit="2" stroke-width="3" stroke-dasharray="">5</text><text fill="#000000" stroke="none" font-family="Arial" font-size="14px" font-style="normal" font-weight="normal" text-decoration="normal" x="291.10693359375" y="60.95085714285717" text-anchor="middle">5</text></g></g></g></g><g id="expressions-18ac7c7a"><g id="sketch-18ac7c7a"><title>Expression 2</title><path fill="#388c46" stroke="none" paint-order="stroke fill markers" d="" fill-opacity="0.4"/><path fill="#388c46" stroke="none" paint-order="stroke fill markers" d="" fill-opacity="0.4"/><path fill="#388c46" stroke="none" paint-order="stroke fill markers" d="" fill-opacity="0.4"/><path fill="#388c46" stroke="none" paint-order="stroke fill markers" d="" fill-opacity="0.4"/><path fill="#388c46" stroke="none" paint-order="stroke fill markers" d="" fill-opacity="0.4"/><path fill="#388c46" stroke="none" paint-order="stroke fill markers" d="" fill-opacity="0.4"/><path fill="#388c46" stroke="none" paint-order="stroke fill markers" d="" fill-opacity="0.4"/><path fill="#388c46" stroke="none" paint-order="stroke fill markers" d="" fill-opacity="0.4"/><path fill="#388c46" stroke="none" paint-order="stroke fill markers" d="" fill-opacity="0.4"/><path fill="#388c46" stroke="none" paint-order="stroke fill markers" d="" fill-opacity="0.4"/><path fill="#388c46" stroke="none" paint-order="stroke fill markers" d="" fill-opacity="0.4"/><g><path fill="none" stroke="#388c46" class="dcg-svg-curve" paint-order="fill stroke markers" d=" M 280.81360607633525 405.5 L 280.81360607633525 405.5 L 285.876953125 384.1615050687755 L 291.58984375 361.3578892457422 L 297.302734375 339.766203489056 L 303.015625 319.3426024623649 L 308.728515625 300.0432408293167 L 314.44140625 281.8242732535594 L 320.0078125 265.06984135713526 L 325.57421875 249.25892496960503 L 331.140625 234.35096573198913 L 336.70703125 220.30540528530796 L 342.2734375 207.08168527058191 L 347.986328125 194.3219953637038 L 353.69921875 182.34140335662025 L 359.412109375 171.0960639129792 L 365.271484375 160.2802202491454 L 371.130859375 150.14438989376106 L 377.13671875 140.41138697017436 L 383.2890625 131.0769990915975 L 389.587890625 122.1304694822935 L 396.1796875 113.3654208687878 L 403.2109375 104.61490270574257 L 410.681640625 95.90525811741117 L 418.884765625 86.92487271015767 L 428.259765625 77.24721438942294 L 439.83203125 65.88586329562327 L 474.255859375 32.47122967128877 L 483.484375 22.73848128949527 L 491.541015625 13.691575684441773 L 498.865234375 4.913496513018231 L 505.75 -3.904017857142833 L 506.91520197261235 -5.5" stroke-linecap="round" stroke-linejoin="round" stroke-miterlimit="10" stroke-width="2.5" stroke-opacity="0.9" stroke-dasharray=""/></g><g><path fill="none" stroke="#388c46" class="dcg-svg-curve" paint-order="fill stroke markers" d=" M 257.6893569735592 405.5 L 257.6893569735592 405.5 L 259.509765625 398.08956461249994 L 265.22265625 376.0616878078728 L 270.935546875 355.2178599326304 L 276.6484375 335.5142356504208 L 282.361328125 316.90696962489176 L 287.927734375 299.78955108885253 L 293.494140625 283.6308040800627 L 299.060546875 268.39017023954284 L 304.626953125 254.02709120831318 L 310.193359375 240.5010086273942 L 315.90625 227.44675877485324 L 321.619140625 215.1875710214966 L 327.33203125 203.6796000309722 L 333.044921875 192.87900046692795 L 338.904296875 182.49033761556657 L 344.91015625 172.51683710523383 L 351.0625 162.95566845444776 L 357.361328125 153.79749049778496 L 363.953125 144.83319473266604 L 370.837890625 136.07539392767285 L 378.162109375 127.35223617893519 L 386.072265625 118.51416987988841 L 395.0078125 109.11599911331501 L 405.701171875 98.45900160606419 L 422.400390625 82.45105267316103 L 438.66015625 66.69084020171852 L 448.767578125 56.35782887573754 L 457.41015625 46.9740147669479 L 465.173828125 37.98112360451114 L 472.3515625 29.093471055308385 L 479.08984375 20.16887212651119 L 485.53515625 11.037920301238046 L 491.6875 1.7211306940311033 L 496.1519524942118 -5.5" stroke-linecap="round" stroke-linejoin="round" stroke-miterlimit="10" stroke-width="2.5" stroke-opacity="0.9" stroke-dasharray=""/></g><g><path fill="none" stroke="#388c46" class="dcg-svg-curve" paint-order="fill stroke markers" d=" M 235.01919590505108 405.5 L 235.01919590505108 405.5 L 239.44140625 389.1288634686873 L 245.154296875 369.13126615143165 L 250.8671875 350.2414943326718 L 256.580078125 332.4157026760556 L 262.146484375 316.02857727770294 L 267.712890625 300.56938443979413 L 273.279296875 285.99756580334963 L 278.845703125 272.2725630093898 L 284.412109375 259.353817698935 L 290.125 246.89092468584656 L 295.837890625 235.19071567740545 L 301.55078125 224.20934533725972 L 307.41015625 213.6471886209079 L 313.416015625 203.50837587005404 L 319.421875 194.0149189580685 L 325.720703125 184.69609075473255 L 332.166015625 175.7760445840223 L 338.904296875 167.04837546931213 L 346.08203125 158.34400244270054 L 353.845703125 149.5185846030791 L 362.341796875 140.4357380920223 L 372.302734375 130.36339707077337 L 385.779296875 117.33125980722684 L 409.0703125 94.85355801304814 L 419.177734375 84.49674146117826 L 427.673828125 75.24946122766329 L 435.291015625 66.41212757889718 L 442.46875 57.51471932224496 L 449.20703125 48.57966994892348 L 455.65234375 39.437551240757045 L 461.8046875 30.109034419690488 L 467.810546875 20.382265828549862 L 473.669921875 10.252996714618178 L 479.3828125 -0.27693097301261105 L 482.0423007130143 -5.5" stroke-linecap="round" stroke-linejoin="round" stroke-miterlimit="10" stroke-width="2.5" stroke-opacity="0.9" stroke-dasharray=""/></g><g><path fill="none" stroke="#388c46" class="dcg-svg-curve" paint-order="fill stroke markers" d=" M 212.92286675318817 405.5 L 212.92286675318817 405.5 L 214.685546875 399.30120758117033 L 220.3984375 380.3221884505458 L 226.111328125 362.41074704812473 L 231.677734375 345.9436284320616 L 237.244140625 330.40785781719853 L 242.810546875 315.7628768445559 L 248.376953125 301.96812715515415 L 253.943359375 288.9830503900136 L 259.65625 276.45563180106024 L 265.369140625 264.69449478281393 L 271.08203125 253.6557939989226 L 276.94140625 243.038573944064 L 282.80078125 233.08788519466995 L 288.806640625 223.5306606260005 L 294.958984375 214.36165142228836 L 301.404296875 205.37125284863367 L 308.142578125 196.5779896501905 L 315.173828125 187.98592830654331 L 322.791015625 179.25682912384548 L 331.287109375 170.1066932263119 L 341.1015625 160.1235527487659 L 353.845703125 147.74927250642781 L 380.212890625 122.28230193923548 L 390.02734375 112.16849084348274 L 398.5234375 102.86290257317683 L 406.140625 93.96103181788533 L 413.171875 85.18146064798668 L 419.763671875 76.3854628548657 L 426.208984375 67.19001720739266 L 432.361328125 57.805524795183146 L 438.3671875 48.019334275886536 L 444.2265625 37.827542373112294 L 449.939453125 27.23232808602711 L 455.65234375 15.943008397306755 L 461.21875 4.233708295872589 L 465.5705422203177 -5.5" stroke-linecap="round" stroke-linejoin="round" stroke-miterlimit="10" stroke-width="2.5" stroke-opacity="0.9" stroke-dasharray=""/></g><g><path fill="none" stroke="#388c46" class="dcg-svg-curve" paint-order="fill stroke markers" d=" M 191.47861831154066 405.5 L 191.47861831154066 405.5 L 196.228515625 390.6256264727661 L 201.794921875 374.17853312513654 L 207.361328125 358.661933918518 L 212.927734375 344.0352704939309 L 218.494140625 330.25798449239556 L 224.060546875 317.28951755493244 L 229.7734375 304.7782580335304 L 235.486328125 293.03238069132044 L 241.19921875 282.0080401919506 L 247.05859375 271.40461435488294 L 252.91796875 261.4667737178071 L 258.923828125 251.92173658417803 L 265.076171875 242.76418140637023 L 271.521484375 233.78466351870347 L 278.259765625 225.0015515589288 L 285.4375 216.245689432457 L 293.0546875 207.5356642682716 L 301.55078125 198.40255906752176 L 311.365234375 188.4335206764006 L 324.255859375 175.92864340019446 L 349.890625 151.17665481567386 L 359.8515625 140.92648032102636 L 368.34765625 131.63307410478592 L 375.96484375 122.74466193636891 L 382.99609375 113.97964281474475 L 389.734375 104.997297155794 L 396.1796875 95.80466989739233 L 402.33203125 86.42313474479806 L 408.337890625 76.64008260518312 L 414.197265625 66.45159201919245 L 419.91015625 55.859824246515075 L 425.623046875 44.57417592008119 L 431.189453125 32.86866931723699 L 436.755859375 20.422225535349526 L 442.322265625 7.1942862154393765 L 447.35156016187227 -5.5" stroke-linecap="round" stroke-linejoin="round" stroke-miterlimit="10" stroke-width="2.5" stroke-opacity="0.9" stroke-dasharray=""/></g><g><path fill="none" stroke="#388c46" class="dcg-svg-curve" paint-order="fill stroke markers" d=" M 170.8802443399843 405.5 L 170.8802443399843 405.5 L 173.083984375 399.07533466417794 L 178.650390625 383.7684345319867 L 184.216796875 369.34207771974735 L 189.783203125 355.75570586848033 L 195.349609375 342.9687606192061 L 201.0625 330.634033203125 L 206.775390625 319.05479465957194 L 212.48828125 308.187199652195 L 218.34765625 297.73426135160304 L 224.353515625 287.6995424362166 L 230.505859375 278.0805579008801 L 236.8046875 268.8683204827485 L 243.25 260.046875 L 250.134765625 251.2293606298389 L 257.3125 242.62133789062497 L 265.076171875 233.88335323519019 L 273.865234375 224.57428828350922 L 284.265625 214.14750148631907 L 299.20703125 199.7790188426694 L 318.25 181.38450727513228 L 328.50390625 170.9209767324584 L 337.146484375 161.55509138150663 L 344.91015625 152.58225452111512 L 352.087890625 143.71646756331916 L 358.826171875 134.81530257314444 L 365.271484375 125.70940013202255 L 371.423828125 116.41892411283874 L 377.4296875 106.73256049332792 L 383.2890625 96.645824142234 L 389.001953125 86.16032639544005 L 394.71484375 74.98791837913024 L 400.28125 63.399452976448856 L 405.84765625 51.076667811189395 L 411.4140625 37.979004524372215 L 416.98046875 24.06590475701779 L 422.546875 9.296810150146484 L 427.80456095867555 -5.5" stroke-linecap="round" stroke-linejoin="round" stroke-miterlimit="10" stroke-width="2.5" stroke-opacity="0.9" stroke-dasharray=""/></g><g><path fill="none" stroke="#388c46" class="dcg-svg-curve" paint-order="fill stroke markers" d=" M 151.26379244858742 405.5 L 151.26379244858742 405.5 L 156.23828125 392.8845057452797 L 161.8046875 379.5931420275774 L 167.517578125 366.7675797636941 L 173.23046875 354.724712965665 L 178.943359375 343.42069629713814 L 184.802734375 332.54840798080755 L 190.662109375 322.3599173948169 L 196.66796875 312.57686525520194 L 202.8203125 303.19533010260767 L 209.119140625 294.2048531845212 L 215.7109375 285.3984964234488 L 222.595703125 276.7864777584949 L 230.06640625 268.03050732265706 L 238.123046875 259.16494160571267 L 247.3515625 249.5910060746329 L 258.630859375 238.47331679762198 L 295.837890625 202.27166654055236 L 304.7734375 192.7576019927938 L 312.68359375 183.78802363298556 L 320.0078125 174.91888107067692 L 326.892578125 166.00262504283873 L 333.337890625 157.07719837030567 L 339.63671875 147.75255892106466 L 345.642578125 138.25305193067385 L 351.501953125 128.36322318975414 L 357.361328125 117.81135714436493 L 363.07421875 106.84070340003916 L 368.787109375 95.15188553105429 L 374.353515625 83.03018949606593 L 379.919921875 70.1445020569301 L 385.486328125 56.45426485466737 L 391.052734375 41.91891953029807 L 396.619140625 26.49790772484255 L 402.185546875 10.150671079321228 L 407.2171914090085 -5.5" stroke-linecap="round" stroke-linejoin="round" stroke-miterlimit="10" stroke-width="2.5" stroke-opacity="0.9" stroke-dasharray=""/></g><g><path fill="none" stroke="#388c46" class="dcg-svg-curve" paint-order="fill stroke markers" d=" M 133.00167877449374 405.5 L 133.00167877449374 405.5 L 134.998046875 400.8963383489421 L 140.7109375 388.5136872019086 L 146.423828125 376.88922310194795 L 152.13671875 365.97910071270803 L 157.99609375 355.4853474220271 L 164.001953125 345.4117387820567 L 170.154296875 335.7560079832162 L 176.453125 326.5093912800784 L 182.8984375 317.65616233008245 L 189.63671875 308.9906974327627 L 196.814453125 300.3439836215484 L 204.578125 291.5709423287205 L 213.220703125 282.382047205099 L 223.474609375 272.0664324181341 L 237.830078125 258.2334414411868 L 258.337890625 238.44000895932396 L 268.591796875 227.97140891743555 L 277.234375 218.59956301330888 L 284.998046875 209.62005548845363 L 292.17578125 200.74699303870477 L 298.9140625 191.83802897589547 L 305.359375 182.72378844811172 L 311.51171875 173.4245524087911 L 317.517578125 163.7288827480226 L 323.376953125 153.63234888344374 L 329.08984375 143.13661536937036 L 334.802734375 131.95329704214498 L 340.369140625 120.35355225871638 L 345.935546875 108.01884731756792 L 351.501953125 94.90862385971991 L 357.068359375 80.98232352619294 L 362.634765625 66.19938795800721 L 368.201171875 50.51925879618324 L 373.767578125 33.90137768174134 L 379.333984375 16.305186255701983 L 384.900390625 -2.30987384091452 L 385.80295738957903 -5.5" stroke-linecap="round" stroke-linejoin="round" stroke-miterlimit="10" stroke-width="2.5" stroke-opacity="0.9" stroke-dasharray=""/></g><g><path fill="none" stroke="#388c46" class="dcg-svg-curve" paint-order="fill stroke markers" d=" M 116.43638184255336 405.5 L 116.43638184255336 405.5 L 120.7890625 397.0621428439226 L 126.6484375 386.41035446035795 L 132.5078125 376.4274626459394 L 138.513671875 366.8396846358344 L 144.666015625 357.6419534439211 L 151.111328125 348.62426209264487 L 157.849609375 339.8055255956672 L 164.880859375 331.1902184405576 L 172.498046875 322.4397798489247 L 180.84765625 313.42413441623955 L 190.515625 303.5628024509975 L 203.11328125 291.3070852835342 L 230.798828125 264.55100821001975 L 240.61328125 254.4021548458508 L 248.962890625 245.22194471423114 L 256.580078125 236.28618534788407 L 263.611328125 227.47001053988146 L 270.203125 218.6350568539251 L 276.501953125 209.61417736866014 L 282.654296875 200.2000440633092 L 288.66015625 190.38240307632577 L 294.51953125 180.1575329609649 L 300.232421875 169.52779011116928 L 305.9453125 158.20169338095124 L 311.51171875 146.45439650110467 L 317.078125 133.96381432669506 L 322.64453125 120.68938849874274 L 328.2109375 106.5905606582682 L 333.77734375 91.6267724462918 L 339.34375 75.75746550383388 L 344.91015625 58.942081471914946 L 350.4765625 41.1400619915554 L 356.04296875 22.310848703775434 L 361.609375 2.413883249595699 L 363.7065571186824 -5.5" stroke-linecap="round" stroke-linejoin="round" stroke-miterlimit="10" stroke-width="2.5" stroke-opacity="0.9" stroke-dasharray=""/></g><g><path fill="none" stroke="#388c46" class="dcg-svg-curve" paint-order="fill stroke markers" d=" M 102.20848361980849 405.5 L 102.20848361980849 405.5 L 102.33203125 405.2890975049564 L 108.337890625 395.68292924450344 L 114.490234375 386.4679052550247 L 120.935546875 377.43377579421434 L 127.673828125 368.5996900368383 L 134.705078125 359.9703672752573 L 142.322265625 351.20705124203647 L 150.671875 342.1800455365862 L 160.33984375 332.3091597982815 L 172.791015625 320.1870583915915 L 201.0625 292.85708214492394 L 210.73046875 282.84858773088956 L 219.080078125 273.6602445809693 L 226.697265625 264.71538982966115 L 233.728515625 255.88940012348547 L 240.3203125 247.04400764192852 L 246.619140625 238.01203453781267 L 252.771484375 228.58601010582905 L 258.77734375 218.75575499023708 L 264.63671875 208.51762047615 L 270.349609375 197.874033915421 L 276.0625 186.53319408275462 L 281.62890625 174.77066703353609 L 287.1953125 162.26400082956548 L 292.76171875 148.97263711186312 L 298.328125 134.85601752144953 L 303.89453125 119.87358369934492 L 309.4609375 103.98477728656991 L 315.02734375 87.14903992414474 L 320.59375 69.3258132530899 L 326.16015625 50.47453891442569 L 331.7265625 30.554658549172586 L 337.29296875 9.52561379835089 L 341.0614515051705 -5.5" stroke-linecap="round" stroke-linejoin="round" stroke-miterlimit="10" stroke-width="2.5" stroke-opacity="0.9" stroke-dasharray=""/></g><g><path fill="none" stroke="#388c46" class="dcg-svg-curve" paint-order="fill stroke markers" d=" M 91.33462903345624 405.5 L 91.33462903345624 405.5 L 92.224609375 404.2690462133793 L 98.962890625 395.54638471667255 L 106.140625 386.8466577479448 L 113.904296875 378.0254660727722 L 122.400390625 368.9462926979497 L 132.361328125 358.8769915135843 L 145.837890625 345.8467909279402 L 168.982421875 323.5126320836011 L 179.08984375 313.16095031222335 L 187.5859375 303.91961963340714 L 195.203125 295.0888884408133 L 202.380859375 286.19879913783416 L 209.119140625 277.27158963794585 L 215.564453125 268.1378480432919 L 221.716796875 258.8181284952652 L 227.72265625 249.10070231131144 L 233.58203125 238.9812661898199 L 239.294921875 228.46160886144983 L 245.0078125 217.25279278477663 L 250.57421875 205.6266901237624 L 256.140625 193.26413304969748 L 261.70703125 180.1245632036022 L 267.2734375 166.1674222264971 L 272.83984375 151.35215175940246 L 278.40625 135.6381934433387 L 283.97265625 118.98498891932627 L 289.5390625 101.35197982838548 L 295.10546875 82.69860781153676 L 300.671875 62.98431450980053 L 306.23828125 42.16854156419714 L 311.951171875 19.617101285153296 L 317.6640625 -4.181120481440644 L 317.9643797668488 -5.5" stroke-linecap="round" stroke-linejoin="round" stroke-miterlimit="10" stroke-width="2.5" stroke-opacity="0.9" stroke-dasharray=""/></g></g></g><g id="labels-18ac7c7a"/></g></svg>