<svg version="1.1" xmlns="http://www.w3.org/2000/svg" xmlns:xlink="http://www.w3.org/1999/xlink" width="600" height="400"><defs/><g transform="scale(1,1)"><g id="background-5714d553"><rect fill="white" stroke="none" x="0" y="0" width="600" height="400" class="dcg-svg-background"/></g><g id="background-images-5714d553"/><g id="graphpaper-5714d553"><g id="grid-5714d553"><g><path fill="none" stroke="rgb(0,0,0)" class="dcg-svg-minor-gridline" paint-order="fill stroke markers" d=" M -0.5 0 L -0.5 400" stroke-opacity="0.12" stroke-miterlimit="10" stroke-dasharray=""/><path fill="none" stroke="rgb(0,0,0)" class="dcg-svg-minor-gridline" paint-order="fill stroke markers" d=" M 29.5 0 L 29.5 400" stroke-opacity="0.12" stroke-miterlimit="10" stroke-dasharray=""/><path fill="none" stroke="rgb(0,0,0)" class="dcg-svg-minor-gridline" paint-order="fill stroke markers" d=" M 59.5 0 L 59.5 400" stroke-opacity="0.12" stroke-miterlimit="10" stroke-dasharray=""/><path fill="none" stroke="rgb(0,0,0)" class="dcg-svg-minor-gridline" paint-order="fill stroke markers" d=" M 89.5 0 L 89.5 400" stroke-opacity="0.12" stroke-miterlimit="10" stroke-dasharray=""/><path fill="none" stroke="rgb(0,0,0)" class="dcg-svg-minor-gridline" paint-order="fill stroke markers" d=" M 119.5 0 L 119.5 400" stroke-opacity="0.12" stroke-miterlimit="10" stroke-dasharray=""/><path fill="none" stroke="rgb(0,0,0)" class="dcg-svg-minor-gridline" paint-order="fill stroke markers" d=" M 149.5 0 L 149.5 400" stroke-opacity="0.12" stroke-miterlimit="10" stroke-dasharray=""/><path fill="none" stroke="rgb(0,0,0)" class="dcg-svg-minor-gridline" paint-order="fill stroke markers" d=" M 179.5 0 L 179.5 400" stroke-opacity="0.12" stroke-miterlimit="10" stroke-dasharray=""/><path fill="none" stroke="rgb(0,0,0)" class="dcg-svg-minor-gridline" paint-order="fill stroke markers" d=" M 209.5 0 L 209.5 400" stroke-opacity="0.12" stroke-miterlimit="10" stroke-dasharray=""/><path fill="none" stroke="rgb(0,0,0)" class="dcg-svg-minor-gridline" paint-order="fill stroke markers" d=" M 239.5 0 L 239.5 400" stroke-opacity="0.12" stroke-miterlimit="10" stroke-dasharray=""/><path fill="none" stroke="rgb(0,0,0)" class="dcg-svg-minor-gridline" paint-order="fill stroke markers" d=" M 269.5 0 L 269.5 400" stroke-opacity="0.12" stroke-miterlimit="10" stroke-dasharray=""/><path fill="none" stroke="rgb(0,0,0)" class="dcg-svg-minor-gridline" paint-order="fill stroke markers" d=" M 329.5 0 L 329.5 400" stroke-opacity="0.12" stroke-miterlimit="10" stroke-dasharray=""/><path fill="none" stroke="rgb(0,0,0)" class="dcg-svg-minor-gridline" paint-order="fill stroke markers" d=" M 359.5 0 L 359.5 400" stroke-opacity="0.12" stroke-miterlimit="10" stroke-dasharray=""/><path fill="none" stroke="rgb(0,0,0)" class="dcg-svg-minor-gridline" paint-order="fill stroke markers" d=" M 389.5 0 L 389.5 400" stroke-opacity="0.12" stroke-miterlimit="10" stroke-dasharray=""/><path fill="none" stroke="rgb(0,0,0)" class="dcg-svg-minor-gridline" paint-order="fill stroke markers" d=" M 419.5 0 L 419.5 400" stroke-opacity="0.12" stroke-miterlimit="10" stroke-dasharray=""/><path fill="none" stroke="rgb(0,0,0)" class="dcg-svg-minor-gridline" paint-order="fill stroke markers" d=" M 449.5 0 L 449.5 400" stroke-opacity="0.12" stroke-miterlimit="10" stroke-dasharray=""/><path fill="none" stroke="rgb(0,0,0)" class="dcg-svg-minor-gridline" paint-order="fill stroke markers" d=" M 479.5 0 L 479.5 400" stroke-opacity="0.12" stroke-miterlimit="10" stroke-dasharray=""/><path fill="none" stroke="rgb(0,0,0)" class="dcg-svg-minor-gridline" paint-order="fill stroke markers" d=" M 509.5 0 L 509.5 400" stroke-opacity="0.12" stroke-miterlimit="10" stroke-dasharray=""/><path fill="none" stroke="rgb(0,0,0)" class="dcg-svg-minor-gridline" paint-order="fill stroke markers" d=" M 539.5 0 L 539.5 400" stroke-opacity="0.12" stroke-miterlimit="10" stroke-dasharray=""/><path fill="none" stroke="rgb(0,0,0)" class="dcg-svg-minor-gridline" paint-order="fill stroke markers" d=" M 569.5 0 L 569.5 400" stroke-opacity="0.12" stroke-miterlimit="10" stroke-dasharray=""/><path fill="none" stroke="rgb(0,0,0)" class="dcg-svg-minor-gridline" paint-order="fill stroke markers" d=" M 0 326.5 L 600 326.5" stroke-opacity="0.12" stroke-miterlimit="10" stroke-dasharray=""/><path fill="none" stroke="rgb(0,0,0)" class="dcg-svg-minor-gridline" paint-order="fill stroke markers" d=" M 0 290.5 L 600 290.5" stroke-opacity="0.12" stroke-miterlimit="10" stroke-dasharray=""/><path fill="none" stroke="rgb(0,0,0)" class="dcg-svg-minor-gridline" paint-order="fill stroke markers" d=" M 0 254.5 L 600 254.5" stroke-opacity="0.12" stroke-miterlimit="10" stroke-dasharray=""/><path fill="none" stroke="rgb(0,0,0)" class="dcg-svg-minor-gridline" paint-order="fill stroke markers" d=" M 0 217.5 L 600 217.5" stroke-opacity="0.12" stroke-miterlimit="10" stroke-dasharray=""/><path fill="none" stroke="rgb(0,0,0)" class="dcg-svg-minor-gridline" paint-order="fill stroke markers" d=" M 0 181.5 L 600 181.5" stroke-opacity="0.12" stroke-miterlimit="10" stroke-dasharray=""/><path fill="none" stroke="rgb(0,0,0)" class="dcg-svg-minor-gridline" paint-order="fill stroke markers" d=" M 0 144.5 L 600 144.5" stroke-opacity="0.12" stroke-miterlimit="10" stroke-dasharray=""/><path fill="none" stroke="rgb(0,0,0)" class="dcg-svg-minor-gridline" paint-order="fill stroke markers" d=" M 0 108.5 L 600 108.5" stroke-opacity="0.12" stroke-miterlimit="10" stroke-dasharray=""/><path fill="none" stroke="rgb(0,0,0)" class="dcg-svg-minor-gridline" paint-order="fill stroke markers" d=" M 0 72.5 L 600 72.5" stroke-opacity="0.12" stroke-miterlimit="10" stroke-dasharray=""/><path fill="none" stroke="rgb(0,0,0)" class="dcg-svg-minor-gridline" paint-order="fill stroke markers" d=" M 0 35.5 L 600 35.5" stroke-opacity="0.12" stroke-miterlimit="10" stroke-dasharray=""/><path fill="none" stroke="rgb(0,0,0)" class="dcg-svg-minor-gridline" paint-order="fill stroke markers" d=" M 0 -0.5 L 600 -0.5" stroke-opacity="0.12" stroke-miterlimit="10" stroke-dasharray=""/><path fill="none" stroke="rgb(0,0,0)" class="dcg-svg-major-gridline" paint-order="fill stroke markers" d=" M -0.5 0 L -0.5 400" stroke-opacity="0.31818181818181823" stroke-miterlimit="10" stroke-dasharray=""/><path fill="none" stroke="rgb(0,0,0)" class="dcg-svg-major-gridline" paint-order="fill stroke markers" d=" M 149.5 0 L 149.5 400" stroke-opacity="0.31818181818181823" stroke-miterlimit="10" stroke-dasharray=""/><path fill="none" stroke="rgb(0,0,0)" class="dcg-svg-major-gridline" paint-order="fill stroke markers" d=" M 449.5 0 L 449.5 400" stroke-opacity="0.31818181818181823" stroke-miterlimit="10" stroke-dasharray=""/><path fill="none" stroke="rgb(0,0,0)" class="dcg-svg-major-gridline" paint-order="fill stroke markers" d=" M 0 181.5 L 600 181.5" stroke-opacity="0.31818181818181823" stroke-miterlimit="10" stroke-dasharray=""/><path fill="none" stroke="rgb(0,0,0)" class="dcg-svg-major-gridline" paint-order="fill stroke markers" d=" M 0 -0.5 L 600 -0.5" stroke-opacity="0.31818181818181823" stroke-miterlimit="10" stroke-dasharray=""/></g></g><g id="axis-5714d553"><g id="yaxis-5714d553"><title>Y axis</title><path fill="none" stroke="rgb(0,0,0)" class="dcg-svg-axis-line" paint-order="fill stroke markers" d=" M 299.75 0 L 299.75 400" stroke-opacity="0.9" stroke-miterlimit="10" stroke-width="1.5" stroke-dasharray=""/></g><g id="xaxis-5714d553"><title>X axis</title><path fill="none" stroke="rgb(0,0,0)" class="dcg-svg-axis-line" paint-order="fill stroke markers" d=" M 0 363.75 L 600 363.75" stroke-opacity="0.9" stroke-miterlimit="10" stroke-width="1.5" stroke-dasharray=""/></g><g><g class="dcg-svg-axis-value"><text fill="none" stroke="#ffffff" font-family="Arial" font-size="14px" font-style="normal" font-weight="normal" text-decoration="normal" x="291.10693359375" y="379.4443636363636" text-anchor="middle" stroke-miterlimit="2" stroke-width="3" stroke-dasharray="">0</text><text fill="#000000" stroke="none" font-family="Arial" font-size="14px" font-style="normal" font-weight="normal" text-decoration="normal" x="291.10693359375" y="379.4443636363636" text-anchor="middle">0</text></g><g class="dcg-svg-axis-value dcg-svg-offcenter-axis-value"><text fill="none" stroke="#ffffff" font-family="Arial" font-size="14px" font-style="normal" font-weight="normal" text-decoration="normal" x="13.1171875" y="379.4443636363636" text-anchor="middle" stroke-miterlimit="2" stroke-width="3" stroke-dasharray="">-10</text><text fill="#000000" stroke="none" font-family="Arial" font-size="14px" font-style="normal" font-weight="normal" text-decoration="normal" x="13.1171875" y="379.4443636363636" text-anchor="middle">-10</text></g><g class="dcg-svg-axis-value"><text fill="none" stroke="#ffffff" font-family="Arial" font-size="14px" font-style="normal" font-weight="normal" text-decoration="normal" x="147.6689453125" y="379.4443636363636" text-anchor="middle" stroke-miterlimit="2" stroke-width="3" stroke-dasharray="">-5</text><text fill="#000000" stroke="none" font-family="Arial" font-size="14px" font-style="normal" font-weight="normal" text-decoration="normal" x="147.6689453125" y="379.4443636363636" text-anchor="middle">-5</text></g><g class="dcg-svg-axis-value"><text fill="none" stroke="#ffffff" font-family="Arial" font-size="14px" font-style="normal" font-weight="normal" text-decoration="normal" x="450" y="379.4443636363636" text-anchor="middle" stroke-miterlimit="2" stroke-width="3" stroke-dasharray="">5</text><text fill="#000000" stroke="none" font-family="Arial" font-size="14px" font-style="normal" font-weight="normal" text-decoration="normal" x="450" y="379.4443636363636" text-anchor="middle">5</text></g><g class="dcg-svg-axis-value dcg-svg-offcenter-axis-value"><text fill="none" stroke="#ffffff" font-family="Arial" font-size="14px" font-style="normal" font-weight="normal" text-decoration="normal" x="589.2138671875" y="379.4443636363636" text-anchor="middle" stroke-miterlimit="2" stroke-width="3" stroke-dasharray="">10</text><text fill="#000000" stroke="none" font-family="Arial" font-size="14px" font-style="normal" font-weight="normal" text-decoration="normal" x="589.2138671875" y="379.4443636363636" text-anchor="middle">10</text></g><g class="dcg-svg-axis-value"><text fill="none" stroke="#ffffff" font-family="Arial" font-size="14px" font-style="normal" font-weight="normal" text-decoration="normal" x="285.26904296875" y="185.6261818181818" text-anchor="middle" stroke-miterlimit="2" stroke-width="3" stroke-dasharray="">0.5</text><text fill="#000000" stroke="none" font-family="Arial" font-size="14px" font-style="normal" font-weight="normal" text-decoration="normal" x="285.26904296875" y="185.6261818181818" text-anchor="middle">0.5</text></g><g class="dcg-svg-axis-value dcg-svg-offcenter-axis-value"><text fill="none" stroke="#ffffff" font-family="Arial" font-size="14px" font-style="normal" font-weight="normal" text-decoration="normal" x="291.10693359375" y="13.808" text-anchor="middle" stroke-miterlimit="2" stroke-width="3" stroke-dasharray="">1</text><text fill="#000000" stroke="none" font-family="Arial" font-size="14px" font-style="normal" font-weight="normal" text-decoration="normal" x="291.10693359375" y="13.808" text-anchor="middle">1</text></g></g></g></g><g id="expressions-5714d553"><g id="sketch-5714d553"><title>Expression 1</title><path fill="#2d70b3" stroke="none" paint-order="stroke fill markers" d="" fill-opacity="0.4"/><g><path fill="none" stroke="#2d70b3" class="dcg-svg-curve" paint-order="fill stroke markers" d=" M -0.5 363.1120308680428 L -0.5 363.1120308680428 L 34.36328125 362.92633783063536 L 52.087890625 362.5843415834794 L 64.83203125 362.08853345977116 L 75.0859375 361.43806586479565 L 83.875 360.62632254947255 L 91.638671875 359.6545799523273 L 98.669921875 358.5206341834106 L 105.26171875 357.1987784217999 L 111.4140625 355.70687882979485 L 117.2734375 354.02828892785936 L 122.986328125 352.12870281955526 L 128.552734375 350.0123422604398 L 133.97265625 347.6896052159448 L 139.392578125 345.1035293904274 L 144.8125 342.25557785054946 L 150.37890625 339.06713940878444 L 156.23828125 335.44226033369375 L 162.537109375 331.2751317816883 L 169.71484375 326.2558175927386 L 180.26171875 318.58319037643196 L 191.6875 310.3335873386191 L 198.1328125 305.945403418172 L 203.40625 302.60691912172155 L 208.240234375 299.8069311871907 L 212.634765625 297.5198843354369 L 216.736328125 295.63832444985195 L 220.69140625 294.0791823346455 L 224.5 292.83306967220926 L 228.30859375 291.8522738997467 L 231.970703125 291.17027627594166 L 235.6328125 290.751909759447 L 239.294921875 290.60182725735024 L 242.95703125 290.7217023104962 L 246.619140625 291.1101980298084 L 250.28125 291.76299191459833 L 253.943359375 292.6728559086346 L 257.751953125 293.8810362971286 L 261.70703125 295.4032429676599 L 265.80859375 297.2495842158896 L 270.056640625 299.4234704370021 L 274.59765625 302.0078148271235 L 279.578125 305.10535333407563 L 285.291015625 308.92752039049225 L 292.46875 314.0103011360368 L 317.37109375 331.89136516686403 L 323.669921875 336.0210187504724 L 329.529296875 339.60495391853095 L 335.095703125 342.7507955993906 L 340.515625 345.55525951154806 L 345.935546875 348.0971307120641 L 351.35546875 350.37604744106557 L 356.775390625 352.39762190601857 L 362.341796875 354.2170370331077 L 368.201171875 355.86812300137836 L 374.353515625 357.33374771168366 L 380.798828125 358.60464095783425 L 387.68359375 359.7004117308942 L 395.30078125 360.6453344478467 L 403.796875 361.4289554307602 L 413.46484375 362.0522446092199 L 425.037109375 362.5280380827179 L 439.83203125 362.8610786473777 L 461.21875 363.0577805338019 L 503.552734375 363.1318461471365 L 599.5 363.13636253165765" stroke-linecap="round" stroke-linejoin="round" stroke-miterlimit="10" stroke-width="2.5" stroke-opacity="0.9" stroke-dasharray=""/></g></g><g id="sketch-5714d553"><title>Expression 2</title><path fill="#388c46" stroke="none" paint-order="stroke fill markers" d="" fill-opacity="0.4"/><g><path fill="none" stroke="#388c46" class="dcg-svg-curve" paint-order="fill stroke markers" d=" M -0.5 363.1363636363636 L -0.5 363.1363636363636 L 300.525390625 363.00872293559826 L 305.212890625 362.72105212772556 L 308.2890625 362.2821281365427 L 310.6328125 361.69773277284094 L 312.537109375 360.978275297235 L 314.1484375 360.13287090137766 L 315.61328125 359.1204492933418 L 316.931640625 357.9628534297385 L 318.103515625 356.6984155952144 L 319.275390625 355.17369026747775 L 320.30078125 353.59397754239836 L 321.326171875 351.75417947922165 L 322.3515625 349.6229593024383 L 323.23046875 347.53939500812294 L 324.109375 345.19627460502164 L 324.98828125 342.5718729675086 L 325.8671875 339.644347557951 L 326.74609375 336.39204182329775 L 327.478515625 333.4184244100884 L 328.2109375 330.19281702766705 L 328.943359375 326.7040648023466 L 329.67578125 322.941796119044 L 330.408203125 318.8966093707995 L 331.140625 314.56026708790876 L 331.873046875 309.9258952974009 L 332.60546875 304.98818565340343 L 333.337890625 299.74359758663616 L 334.0703125 294.1905574552074 L 334.94921875 287.1207409094045 L 335.828125 279.61322049310684 L 336.70703125 271.6787702313981 L 337.5859375 263.3338045430928 L 338.46484375 254.6006780762168 L 339.490234375 243.95983137018362 L 340.515625 232.88584084920228 L 341.6875 219.7869804228456 L 343.15234375 202.92670643841123 L 347.546875 151.9252584453856 L 348.71875 139.04311956640726 L 349.59765625 129.80493637737084 L 350.4765625 121.0185855777953 L 351.208984375 114.09839483013349 L 351.94140625 107.59040767030967 L 352.673828125 101.53679654499348 L 353.259765625 97.04798222589721 L 353.845703125 92.89481451468549 L 354.431640625 89.09529589420845 L 355.017578125 85.6660663883805 L 355.603515625 82.6222822585604 L 356.04296875 80.60061334162395 L 356.482421875 78.80851953539502 L 356.921875 77.25054177535321 L 357.361328125 75.93064352596406 L 357.80078125 74.85219398139509 L 358.240234375 74.01795373620791 L 358.6796875 73.43006301132084 L 359.119140625 73.09003250552388 L 359.5 72.9965233444126 L 359.998046875 73.15641124556635 L 360.4375 73.5626496822643 L 360.876953125 74.21640745211823 L 361.31640625 75.11600523984714 L 361.755859375 76.25913638754253 L 362.1953125 77.64287674930245 L 362.634765625 79.26369715417673 L 363.07421875 81.11747840308027 L 363.513671875 83.19952871048338 L 364.099609375 86.32153936344133 L 364.685546875 89.82608834503134 L 365.271484375 93.69771338885096 L 365.857421875 97.91949198356627 L 366.443359375 102.47316448444303 L 367.029296875 107.3392655006549 L 367.76171875 113.82987391050398 L 368.494140625 120.7344100857261 L 369.373046875 129.50433795895043 L 370.251953125 138.72874265732088 L 371.27734375 149.95828929520363 L 372.595703125 164.940135388214 L 374.646484375 188.87614247589235 L 376.990234375 216.1166335882241 L 378.30859375 230.9487045454654 L 379.48046875 243.64914732554743 L 380.505859375 254.3032040752674 L 381.53125 264.46944361774445 L 382.41015625 272.760833237672 L 383.2890625 280.63918142811514 L 384.16796875 288.0888447133652 L 385.046875 295.09977478260384 L 385.779296875 300.6034436059583 L 386.51171875 305.79877192152696 L 387.244140625 310.68766124523506 L 387.9765625 315.2739484892071 L 388.708984375 319.56320611837293 L 389.44140625 323.5625398077788 L 390.173828125 327.2803865779717 L 390.90625 330.7263161149889 L 391.638671875 333.9108376857732 L 392.37109375 336.8452147475252 L 393.25 340.052980483151 L 394.12890625 342.9388307342524 L 395.0078125 345.52446584401036 L 395.88671875 347.83172933217816 L 396.765625 349.88230994853694 L 397.791015625 351.9785880149906 L 398.81640625 353.7871074159797 L 399.841796875 355.339013429789 L 401.013671875 356.835928655033 L 402.185546875 358.07644766434254 L 403.50390625 359.2113223514068 L 404.96875 360.2030734209743 L 406.580078125 361.03048571450915 L 408.484375 361.73392908119246 L 410.681640625 362.27641462346776 L 413.46484375 362.68757454527974 L 417.2734375 362.96205082564256 L 423.42578125 363.10334754889954 L 441.150390625 363.1362568539838 L 599.5 363.1363636363636" stroke-linecap="round" stroke-linejoin="round" stroke-miterlimit="10" stroke-width="2.5" stroke-opacity="0.9" stroke-dasharray=""/></g></g><g id="sketch-5714d553"><title>Expression 3</title><path fill="#6042a6" stroke="none" paint-order="stroke fill markers" d="" fill-opacity="0.4"/><g><path fill="none" stroke="#6042a6" class="dcg-svg-curve" paint-order="fill stroke markers" d=" M -0.5 363.1363636363636 L -0.5 363.1363636363636 L 337 363.00814702459365 L 346.814453125 362.7218877889681 L 353.40625 362.2780528718886 L 358.38671875 361.69556271228765 L 362.634765625 360.9434456123755 L 366.296875 360.03687218249155 L 369.51953125 358.9851689139655 L 372.44921875 357.7762729473923 L 375.232421875 356.36330371609677 L 377.72265625 354.8467713050165 L 380.06640625 353.1734536105637 L 382.41015625 351.23522483936017 L 384.607421875 349.15471794268865 L 386.658203125 346.9644477871641 L 388.708984375 344.5182707301455 L 390.759765625 341.80201177200956 L 392.6640625 339.0272119729533 L 394.568359375 336.0010707863808 L 396.47265625 332.7179048789841 L 398.376953125 329.17461787774914 L 400.28125 325.371065630777 L 402.185546875 321.3104020571942 L 404.236328125 316.65768811178094 L 406.287109375 311.72819967492273 L 408.484375 306.16122525023843 L 410.828125 299.93190987067976 L 413.318359375 293.0357267442611 L 416.39453125 284.2236408585121 L 426.501953125 255.00175186620294 L 428.69921875 249.06294974292243 L 430.603515625 244.17013553599284 L 432.361328125 239.90911044152764 L 433.97265625 236.2524913933983 L 435.583984375 232.8637281733603 L 437.048828125 230.0381741836847 L 438.513671875 227.47516260474995 L 439.978515625 225.1920734617572 L 441.296875 223.38962133011725 L 442.615234375 221.83675753122094 L 443.93359375 220.54228074228502 L 445.251953125 219.51357592132635 L 446.5703125 218.75654413926944 L 447.888671875 218.27554619947244 L 449.20703125 218.07336079831165 L 450.525390625 218.15115778845512 L 451.84375 218.50848690475993 L 453.162109375 219.14328210480704 L 454.48046875 220.05188146553138 L 455.798828125 221.22906236786446 L 457.1171875 222.6680914964079 L 458.435546875 224.36078898442506 L 459.75390625 226.29760584923426 L 461.21875 228.7227266268298 L 462.68359375 231.41928093141397 L 464.1484375 234.3691093359971 L 465.759765625 237.8830659510211 L 467.517578125 242.00639380876524 L 469.275390625 246.39546892391175 L 471.326171875 251.79962500308415 L 473.669921875 258.2719157842727 L 476.599609375 266.6673320524498 L 486.70703125 295.90598680092387 L 489.197265625 302.6915431544143 L 491.39453125 308.4217119280191 L 493.591796875 313.873636667797 L 495.642578125 318.68651047352046 L 497.693359375 323.2161595796081 L 499.59765625 327.1587716513113 L 501.501953125 330.84238598135494 L 503.40625 334.265412134436 L 505.310546875 337.4294012277903 L 507.21484375 340.3386897819021 L 509.265625 343.1947174817938 L 511.31640625 345.7742731437651 L 513.3671875 348.0906232029557 L 515.564453125 350.2973694126517 L 517.76171875 352.23906871667 L 520.10546875 354.0416080742158 L 522.595703125 355.6813065670849 L 525.232421875 357.14162221824375 L 528.015625 358.41366382964435 L 531.091796875 359.5441826083823 L 534.4609375 360.50628082314256 L 538.123046875 361.2888184838794 L 542.37109375 361.93251103529377 L 547.498046875 362.4373793729248 L 553.943359375 362.79779041469857 L 563.025390625 363.02363729096805 L 579.28515625 363.1238466132483 L 599.5 363.13582301108556" stroke-linecap="round" stroke-linejoin="round" stroke-miterlimit="10" stroke-width="2.5" stroke-opacity="0.9" stroke-dasharray=""/></g></g></g><g id="labels-5714d553"/></g></svg>