<svg version="1.1" xmlns="http://www.w3.org/2000/svg" xmlns:xlink="http://www.w3.org/1999/xlink" width="600" height="400"><defs/><g transform="scale(1,1)"><g id="background-66edab84"><rect fill="white" stroke="none" x="0" y="0" width="600" height="400" class="dcg-svg-background"/></g><g id="background-images-66edab84"/><g id="graphpaper-66edab84"><g id="grid-66edab84"><g><path fill="none" stroke="rgb(0,0,0)" class="dcg-svg-minor-gridline" paint-order="fill stroke markers" d=" M -0.5 0 L -0.5 400" stroke-opacity="0.12" stroke-miterlimit="10" stroke-dasharray=""/><path fill="none" stroke="rgb(0,0,0)" class="dcg-svg-minor-gridline" paint-order="fill stroke markers" d=" M 29.5 0 L 29.5 400" stroke-opacity="0.12" stroke-miterlimit="10" stroke-dasharray=""/><path fill="none" stroke="rgb(0,0,0)" class="dcg-svg-minor-gridline" paint-order="fill stroke markers" d=" M 59.5 0 L 59.5 400" stroke-opacity="0.12" stroke-miterlimit="10" stroke-dasharray=""/><path fill="none" stroke="rgb(0,0,0)" class="dcg-svg-minor-gridline" paint-order="fill stroke markers" d=" M 89.5 0 L 89.5 400" stroke-opacity="0.12" stroke-miterlimit="10" stroke-dasharray=""/><path fill="none" stroke="rgb(0,0,0)" class="dcg-svg-minor-gridline" paint-order="fill stroke markers" d=" M 119.5 0 L 119.5 400" stroke-opacity="0.12" stroke-miterlimit="10" stroke-dasharray=""/><path fill="none" stroke="rgb(0,0,0)" class="dcg-svg-minor-gridline" paint-order="fill stroke markers" d=" M 149.5 0 L 149.5 400" stroke-opacity="0.12" stroke-miterlimit="10" stroke-dasharray=""/><path fill="none" stroke="rgb(0,0,0)" class="dcg-svg-minor-gridline" paint-order="fill stroke markers" d=" M 179.5 0 L 179.5 400" stroke-opacity="0.12" stroke-miterlimit="10" stroke-dasharray=""/><path fill="none" stroke="rgb(0,0,0)" class="dcg-svg-minor-gridline" paint-order="fill stroke markers" d=" M 209.5 0 L 209.5 400" stroke-opacity="0.12" stroke-miterlimit="10" stroke-dasharray=""/><path fill="none" stroke="rgb(0,0,0)" class="dcg-svg-minor-gridline" paint-order="fill stroke markers" d=" M 239.5 0 L 239.5 400" stroke-opacity="0.12" stroke-miterlimit="10" stroke-dasharray=""/><path fill="none" stroke="rgb(0,0,0)" class="dcg-svg-minor-gridline" paint-order="fill stroke markers" d=" M 269.5 0 L 269.5 400" stroke-opacity="0.12" stroke-miterlimit="10" stroke-dasharray=""/><path fill="none" stroke="rgb(0,0,0)" class="dcg-svg-minor-gridline" paint-order="fill stroke markers" d=" M 329.5 0 L 329.5 400" stroke-opacity="0.12" stroke-miterlimit="10" stroke-dasharray=""/><path fill="none" stroke="rgb(0,0,0)" class="dcg-svg-minor-gridline" paint-order="fill stroke markers" d=" M 359.5 0 L 359.5 400" stroke-opacity="0.12" stroke-miterlimit="10" stroke-dasharray=""/><path fill="none" stroke="rgb(0,0,0)" class="dcg-svg-minor-gridline" paint-order="fill stroke markers" d=" M 389.5 0 L 389.5 400" stroke-opacity="0.12" stroke-miterlimit="10" stroke-dasharray=""/><path fill="none" stroke="rgb(0,0,0)" class="dcg-svg-minor-gridline" paint-order="fill stroke markers" d=" M 419.5 0 L 419.5 400" stroke-opacity="0.12" stroke-miterlimit="10" stroke-dasharray=""/><path fill="none" stroke="rgb(0,0,0)" class="dcg-svg-minor-gridline" paint-order="fill stroke markers" d=" M 449.5 0 L 449.5 400" stroke-opacity="0.12" stroke-miterlimit="10" stroke-dasharray=""/><path fill="none" stroke="rgb(0,0,0)" class="dcg-svg-minor-gridline" paint-order="fill stroke markers" d=" M 479.5 0 L 479.5 400" stroke-opacity="0.12" stroke-miterlimit="10" stroke-dasharray=""/><path fill="none" stroke="rgb(0,0,0)" class="dcg-svg-minor-gridline" paint-order="fill stroke markers" d=" M 509.5 0 L 509.5 400" stroke-opacity="0.12" stroke-miterlimit="10" stroke-dasharray=""/><path fill="none" stroke="rgb(0,0,0)" class="dcg-svg-minor-gridline" paint-order="fill stroke markers" d=" M 539.5 0 L 539.5 400" stroke-opacity="0.12" stroke-miterlimit="10" stroke-dasharray=""/><path fill="none" stroke="rgb(0,0,0)" class="dcg-svg-minor-gridline" paint-order="fill stroke markers" d=" M 569.5 0 L 569.5 400" stroke-opacity="0.12" stroke-miterlimit="10" stroke-dasharray=""/><path fill="none" stroke="rgb(0,0,0)" class="dcg-svg-minor-gridline" paint-order="fill stroke markers" d=" M 0 370.5 L 600 370.5" stroke-opacity="0.12" stroke-miterlimit="10" stroke-dasharray=""/><path fill="none" stroke="rgb(0,0,0)" class="dcg-svg-minor-gridline" paint-order="fill stroke markers" d=" M 0 342.5 L 600 342.5" stroke-opacity="0.12" stroke-miterlimit="10" stroke-dasharray=""/><path fill="none" stroke="rgb(0,0,0)" class="dcg-svg-minor-gridline" paint-order="fill stroke markers" d=" M 0 313.5 L 600 313.5" stroke-opacity="0.12" stroke-miterlimit="10" stroke-dasharray=""/><path fill="none" stroke="rgb(0,0,0)" class="dcg-svg-minor-gridline" paint-order="fill stroke markers" d=" M 0 285.5 L 600 285.5" stroke-opacity="0.12" stroke-miterlimit="10" stroke-dasharray=""/><path fill="none" stroke="rgb(0,0,0)" class="dcg-svg-minor-gridline" paint-order="fill stroke markers" d=" M 0 256.5 L 600 256.5" stroke-opacity="0.12" stroke-miterlimit="10" stroke-dasharray=""/><path fill="none" stroke="rgb(0,0,0)" class="dcg-svg-minor-gridline" paint-order="fill stroke markers" d=" M 0 228.5 L 600 228.5" stroke-opacity="0.12" stroke-miterlimit="10" stroke-dasharray=""/><path fill="none" stroke="rgb(0,0,0)" class="dcg-svg-minor-gridline" paint-order="fill stroke markers" d=" M 0 170.5 L 600 170.5" stroke-opacity="0.12" stroke-miterlimit="10" stroke-dasharray=""/><path fill="none" stroke="rgb(0,0,0)" class="dcg-svg-minor-gridline" paint-order="fill stroke markers" d=" M 0 142.5 L 600 142.5" stroke-opacity="0.12" stroke-miterlimit="10" stroke-dasharray=""/><path fill="none" stroke="rgb(0,0,0)" class="dcg-svg-minor-gridline" paint-order="fill stroke markers" d=" M 0 113.5 L 600 113.5" stroke-opacity="0.12" stroke-miterlimit="10" stroke-dasharray=""/><path fill="none" stroke="rgb(0,0,0)" class="dcg-svg-minor-gridline" paint-order="fill stroke markers" d=" M 0 85.5 L 600 85.5" stroke-opacity="0.12" stroke-miterlimit="10" stroke-dasharray=""/><path fill="none" stroke="rgb(0,0,0)" class="dcg-svg-minor-gridline" paint-order="fill stroke markers" d=" M 0 56.5 L 600 56.5" stroke-opacity="0.12" stroke-miterlimit="10" stroke-dasharray=""/><path fill="none" stroke="rgb(0,0,0)" class="dcg-svg-minor-gridline" paint-order="fill stroke markers" d=" M 0 28.5 L 600 28.5" stroke-opacity="0.12" stroke-miterlimit="10" stroke-dasharray=""/><path fill="none" stroke="rgb(0,0,0)" class="dcg-svg-minor-gridline" paint-order="fill stroke markers" d=" M 0 -0.5 L 600 -0.5" stroke-opacity="0.12" stroke-miterlimit="10" stroke-dasharray=""/><path fill="none" stroke="rgb(0,0,0)" class="dcg-svg-major-gridline" paint-order="fill stroke markers" d=" M -0.5 0 L -0.5 400" stroke-opacity="0.31818181818181823" stroke-miterlimit="10" stroke-dasharray=""/><path fill="none" stroke="rgb(0,0,0)" class="dcg-svg-major-gridline" paint-order="fill stroke markers" d=" M 149.5 0 L 149.5 400" stroke-opacity="0.31818181818181823" stroke-miterlimit="10" stroke-dasharray=""/><path fill="none" stroke="rgb(0,0,0)" class="dcg-svg-major-gridline" paint-order="fill stroke markers" d=" M 449.5 0 L 449.5 400" stroke-opacity="0.31818181818181823" stroke-miterlimit="10" stroke-dasharray=""/><path fill="none" stroke="rgb(0,0,0)" class="dcg-svg-major-gridline" paint-order="fill stroke markers" d=" M 0 342.5 L 600 342.5" stroke-opacity="0.31818181818181823" stroke-miterlimit="10" stroke-dasharray=""/><path fill="none" stroke="rgb(0,0,0)" class="dcg-svg-major-gridline" paint-order="fill stroke markers" d=" M 0 56.5 L 600 56.5" stroke-opacity="0.31818181818181823" stroke-miterlimit="10" stroke-dasharray=""/></g></g><g id="axis-66edab84"><g id="yaxis-66edab84"><title>Y axis</title><path fill="none" stroke="rgb(0,0,0)" class="dcg-svg-axis-line" paint-order="fill stroke markers" d=" M 299.75 0 L 299.75 400" stroke-opacity="0.9" stroke-miterlimit="10" stroke-width="1.5" stroke-dasharray=""/></g><g id="xaxis-66edab84"><title>X axis</title><path fill="none" stroke="rgb(0,0,0)" class="dcg-svg-axis-line" paint-order="fill stroke markers" d=" M 0 199.75 L 600 199.75" stroke-opacity="0.9" stroke-miterlimit="10" stroke-width="1.5" stroke-dasharray=""/></g><g><g class="dcg-svg-axis-value"><text fill="none" stroke="#ffffff" font-family="Arial" font-size="14px" font-style="normal" font-weight="normal" text-decoration="normal" x="291.10693359375" y="215.808" text-anchor="middle" stroke-miterlimit="2" stroke-width="3" stroke-dasharray="">0</text><text fill="#000000" stroke="none" font-family="Arial" font-size="14px" font-style="normal" font-weight="normal" text-decoration="normal" x="291.10693359375" y="215.808" text-anchor="middle">0</text></g><g class="dcg-svg-axis-value dcg-svg-offcenter-axis-value"><text fill="none" stroke="#ffffff" font-family="Arial" font-size="14px" font-style="normal" font-weight="normal" text-decoration="normal" x="13.1171875" y="215.808" text-anchor="middle" stroke-miterlimit="2" stroke-width="3" stroke-dasharray="">-10</text><text fill="#000000" stroke="none" font-family="Arial" font-size="14px" font-style="normal" font-weight="normal" text-decoration="normal" x="13.1171875" y="215.808" text-anchor="middle">-10</text></g><g class="dcg-svg-axis-value"><text fill="none" stroke="#ffffff" font-family="Arial" font-size="14px" font-style="normal" font-weight="normal" text-decoration="normal" x="147.6689453125" y="215.808" text-anchor="middle" stroke-miterlimit="2" stroke-width="3" stroke-dasharray="">-5</text><text fill="#000000" stroke="none" font-family="Arial" font-size="14px" font-style="normal" font-weight="normal" text-decoration="normal" x="147.6689453125" y="215.808" text-anchor="middle">-5</text></g><g class="dcg-svg-axis-value"><text fill="none" stroke="#ffffff" font-family="Arial" font-size="14px" font-style="normal" font-weight="normal" text-decoration="normal" x="450" y="215.808" text-anchor="middle" stroke-miterlimit="2" stroke-width="3" stroke-dasharray="">5</text><text fill="#000000" stroke="none" font-family="Arial" font-size="14px" font-style="normal" font-weight="normal" text-decoration="normal" x="450" y="215.808" text-anchor="middle">5</text></g><g class="dcg-svg-axis-value dcg-svg-offcenter-axis-value"><text fill="none" stroke="#ffffff" font-family="Arial" font-size="14px" font-style="normal" font-weight="normal" text-decoration="normal" x="589.2138671875" y="215.808" text-anchor="middle" stroke-miterlimit="2" stroke-width="3" stroke-dasharray="">10</text><text fill="#000000" stroke="none" font-family="Arial" font-size="14px" font-style="normal" font-weight="normal" text-decoration="normal" x="589.2138671875" y="215.808" text-anchor="middle">10</text></g><g class="dcg-svg-axis-value"><text fill="none" stroke="#ffffff" font-family="Arial" font-size="14px" font-style="normal" font-weight="normal" text-decoration="normal" x="288.77587890625" y="346.6651428571428" text-anchor="middle" stroke-miterlimit="2" stroke-width="3" stroke-dasharray="">-5</text><text fill="#000000" stroke="none" font-family="Arial" font-size="14px" font-style="normal" font-weight="normal" text-decoration="normal" x="288.77587890625" y="346.6651428571428" text-anchor="middle">-5</text></g><g class="dcg-svg-axis-value"><text fill="none" stroke="#ffffff" font-family="Arial" font-size="14px" font-style="normal" font-weight="normal" text-decoration="normal" x="291.10693359375" y="60.95085714285717" text-anchor="middle" stroke-miterlimit="2" stroke-width="3" stroke-dasharray="">5</text><text fill="#000000" stroke="none" font-family="Arial" font-size="14px" font-style="normal" font-weight="normal" text-decoration="normal" x="291.10693359375" y="60.95085714285717" text-anchor="middle">5</text></g></g></g></g><g id="expressions-66edab84"><g id="sketch-66edab84"><title>Expression 2</title><path fill="#388c46" stroke="none" paint-order="stroke fill markers" d="" fill-opacity="0.4"/><path fill="#388c46" stroke="none" paint-order="stroke fill markers" d="" fill-opacity="0.4"/><path fill="#388c46" stroke="none" paint-order="stroke fill markers" d="" fill-opacity="0.4"/><path fill="#388c46" stroke="none" paint-order="stroke fill markers" d="" fill-opacity="0.4"/><path fill="#388c46" stroke="none" paint-order="stroke fill markers" d="" fill-opacity="0.4"/><path fill="#388c46" stroke="none" paint-order="stroke fill markers" d="" fill-opacity="0.4"/><path fill="#388c46" stroke="none" paint-order="stroke fill markers" d="" fill-opacity="0.4"/><path fill="#388c46" stroke="none" paint-order="stroke fill markers" d="" fill-opacity="0.4"/><path fill="#388c46" stroke="none" paint-order="stroke fill markers" d="" fill-opacity="0.4"/><path fill="#388c46" stroke="none" paint-order="stroke fill markers" d="" fill-opacity="0.4"/><g><path fill="none" stroke="#388c46" class="dcg-svg-curve" paint-order="fill stroke markers" d=" M -0.5 199.49870285914963 L -0.5 199.49870285914963 L 139.392578125 199.36255161923893 L 172.9375 199.0795134486104 L 193.73828125 198.6588484284698 L 208.97265625 198.10229851286874 L 220.984375 197.41405974027762 L 230.9453125 196.59262396710358 L 239.587890625 195.6219327232044 L 247.05859375 194.52532350436766 L 253.796875 193.27253269840847 L 259.802734375 191.89226852152598 L 265.369140625 190.34122986445968 L 270.49609375 188.63430756469444 L 275.330078125 186.7345391202999 L 279.87109375 184.64835932229926 L 284.265625 182.30541140938016 L 288.513671875 179.68981340313954 L 292.615234375 176.7875091697059 L 296.5703125 173.58683948893187 L 300.525390625 169.93512784706385 L 304.48046875 165.7688129050827 L 308.2890625 161.20283136431468 L 311.951171875 156.23057437272868 L 315.466796875 150.8508770853951 L 318.8359375 145.0687483652221 L 322.05859375 138.89603363550555 L 325.28125 132.0233091505454 L 328.50390625 124.37119109318968 L 331.580078125 116.25873861582562 L 334.65625 107.2702988021108 L 337.732421875 97.31128203003021 L 340.80859375 86.27688483517488 L 343.884765625 74.05098701409958 L 346.814453125 61.181962246482726 L 349.744140625 46.99278521518772 L 352.673828125 31.348029807454168 L 355.603515625 14.09837739787605 L 358.533203125 -4.920808297042356 L 358.6141201935328 -5.5" stroke-linecap="round" stroke-linejoin="round" stroke-miterlimit="10" stroke-width="2.5" stroke-opacity="0.9" stroke-dasharray=""/></g><g><path fill="none" stroke="#388c46" class="dcg-svg-curve" paint-order="fill stroke markers" d=" M -0.5 199.4974057182993 L -0.5 199.4974057182993 L 119.763671875 199.35710662260433 L 152.869140625 199.0692127431975 L 173.5234375 198.6424401890087 L 188.611328125 198.08197460701882 L 200.623046875 197.38372818963 L 210.583984375 196.55034796088412 L 219.080078125 195.5847063400667 L 226.55078125 194.47757053878078 L 233.2890625 193.2127539304811 L 239.294921875 191.81924030756983 L 244.861328125 190.25331290433485 L 249.98828125 188.53000549854076 L 254.822265625 186.61200077742996 L 259.36328125 184.5057953009376 L 263.7578125 182.1403569384072 L 268.005859375 179.49965125698594 L 272.107421875 176.56948719501804 L 276.0625 173.3380936130506 L 280.017578125 169.6513284233749 L 283.97265625 165.4450201483151 L 287.78125 160.83520879075832 L 291.443359375 155.81522205891358 L 294.958984375 150.3838839262596 L 298.328125 144.54625133683282 L 301.55078125 138.31428342063782 L 304.7734375 131.37558620838445 L 307.99609375 123.6500138609698 L 311.072265625 115.45968824666573 L 314.1484375 106.38496650939646 L 317.224609375 96.33035104147837 L 320.30078125 85.19003234801289 L 323.376953125 72.84677556330826 L 326.306640625 59.85421832128753 L 329.236328125 45.5288363964529 L 332.166015625 29.733903692314982 L 335.095703125 12.318668242588728 L 337.81436764318755 -5.5" stroke-linecap="round" stroke-linejoin="round" stroke-miterlimit="10" stroke-width="2.5" stroke-opacity="0.9" stroke-dasharray=""/></g><g><path fill="none" stroke="#388c46" class="dcg-svg-curve" paint-order="fill stroke markers" d=" M -0.5 199.49610857744892 L -0.5 199.49610857744892 L 108.630859375 199.35210980131492 L 141.296875 199.0606320200237 L 161.8046875 198.62961901016286 L 176.892578125 198.06077403658824 L 188.7578125 197.36255058476667 L 198.71875 196.5208306913809 L 207.21484375 195.54552586161978 L 214.685546875 194.42731091425497 L 221.27734375 193.18076831992096 L 227.283203125 191.78016536353047 L 232.849609375 190.2062714923807 L 237.9765625 188.4741969667781 L 242.810546875 186.54643462661065 L 247.3515625 184.4295140822832 L 251.74609375 182.05204183569109 L 255.994140625 179.39790188072686 L 260.095703125 176.45283096041004 L 264.05078125 173.204998051027 L 268.005859375 169.4994768854789 L 271.9609375 165.27176952139124 L 275.76953125 160.638506301253 L 279.431640625 155.59298098878858 L 282.947265625 150.13401157458298 L 286.31640625 144.26668072926893 L 289.5390625 138.00300842349122 L 292.76171875 131.02901142109573 L 295.984375 123.2641361506324 L 299.060546875 115.03214323675661 L 302.13671875 105.91125494067603 L 305.212890625 95.80548782207768 L 308.2890625 84.60849409294394 L 311.365234375 72.20244246926 L 314.294921875 59.1437871500321 L 317.224609375 44.74552656221755 L 320.154296875 28.870239031703818 L 323.083984375 11.36640565965223 L 325.6443329672247 -5.5" stroke-linecap="round" stroke-linejoin="round" stroke-miterlimit="10" stroke-width="2.5" stroke-opacity="0.9" stroke-dasharray=""/></g><g><path fill="none" stroke="#388c46" class="dcg-svg-curve" paint-order="fill stroke markers" d=" M -0.5 199.49481143659855 L -0.5 199.49481143659855 L 101.013671875 199.34702937337858 L 133.240234375 199.0521471717406 L 153.455078125 198.62143245176293 L 168.396484375 198.05431336141518 L 180.26171875 197.3529555894555 L 190.22265625 196.50745722142008 L 198.71875 195.5277742551745 L 206.189453125 194.40453964881786 L 212.78125 193.1524013335921 L 218.787109375 191.745511080434 L 224.353515625 190.1645520108256 L 229.48046875 188.42470221492496 L 234.314453125 186.4882861632436 L 238.85546875 184.36186277756133 L 243.25 181.9737180748653 L 247.498046875 179.30766370441057 L 251.599609375 176.3493723815569 L 255.5546875 173.08695997320893 L 259.509765625 169.3648047493503 L 263.46484375 165.11811923679915 L 267.2734375 160.46405733082733 L 270.935546875 155.39588269091198 L 274.451171875 149.91240800160614 L 277.8203125 144.0187387496152 L 281.04296875 137.7269488631469 L 284.265625 130.72164563752062 L 287.48828125 122.9219138968732 L 290.564453125 114.65296762501515 L 293.640625 105.49113572586691 L 296.716796875 95.34000389013067 L 299.79296875 84.0927469353204 L 302.869140625 71.63100463362031 L 305.798828125 58.51372910300165 L 308.728515625 44.05083482521786 L 311.658203125 28.10428324123319 L 314.587890625 10.521875284943349 L 317.00916899219567 -5.5" stroke-linecap="round" stroke-linejoin="round" stroke-miterlimit="10" stroke-width="2.5" stroke-opacity="0.9" stroke-dasharray=""/></g><g><path fill="none" stroke="#388c46" class="dcg-svg-curve" paint-order="fill stroke markers" d=" M -0.5 199.4935142957482 L -0.5 199.4935142957482 L 95.154296875 199.34271224354396 L 126.94140625 199.046204215073 L 147.15625 198.6097739591974 L 162.09765625 198.03512926229632 L 173.962890625 197.32446455157418 L 183.77734375 196.48251635197747 L 192.2734375 195.49466837464794 L 199.744140625 194.36207234900897 L 206.3359375 193.09949828714406 L 212.341796875 191.68088253205653 L 217.908203125 190.08674721179213 L 223.03515625 188.3323969158753 L 227.869140625 186.37984211413922 L 232.41015625 184.2356963926489 L 236.8046875 181.82764807966316 L 241.052734375 179.13937390521554 L 245.154296875 176.15642717620204 L 249.109375 172.86682471311968 L 253.064453125 169.11364778151878 L 257.01953125 164.83156894737817 L 260.828125 160.13871850638338 L 264.34375 155.24492164618835 L 267.859375 149.7426779367021 L 271.228515625 143.82883563689114 L 274.451171875 137.51551000200766 L 277.673828125 130.486228790695 L 280.896484375 122.65979986792559 L 283.97265625 114.36255037078774 L 287.048828125 105.1693590476342 L 290.125 94.98348157905116 L 293.201171875 83.69772713775285 L 296.27734375 71.19333036858535 L 299.20703125 58.03115658948457 L 302.13671875 43.51875823446005 L 305.06640625 27.517624261489175 L 307.99609375 9.875034652424404 L 310.31169352607054 -5.5" stroke-linecap="round" stroke-linejoin="round" stroke-miterlimit="10" stroke-width="2.5" stroke-opacity="0.9" stroke-dasharray=""/></g><g><path fill="none" stroke="#388c46" class="dcg-svg-curve" paint-order="fill stroke markers" d=" M -0.5 199.49221715489787 L -0.5 199.49221715489787 L 90.466796875 199.33855758296718 L 121.9609375 199.0387439943253 L 142.029296875 198.59954649738947 L 156.82421875 198.02551715947118 L 168.54296875 197.32085562391984 L 178.357421875 196.47751074281044 L 186.853515625 195.48802405539408 L 194.177734375 194.37861710520886 L 200.76953125 193.1201086864314 L 206.775390625 191.7060610477915 L 212.341796875 190.11705903846783 L 217.46875 188.36835796533242 L 222.302734375 186.42209062915757 L 226.84375 184.28484931945124 L 231.23828125 181.88455521691037 L 235.486328125 179.20493761449643 L 239.587890625 176.2315963392264 L 243.54296875 172.95258679890267 L 247.498046875 169.21149555661586 L 251.453125 164.94320554068224 L 255.26171875 160.26546665276928 L 258.923828125 155.1715082820296 L 262.439453125 149.66013707269113 L 265.80859375 143.73648448501072 L 269.03125 137.41268587185846 L 272.25390625 130.3717440059828 L 275.4765625 122.53233206526511 L 278.552734375 114.22131852066639 L 281.62890625 105.0128769002024 L 284.705078125 94.8101023983366 L 287.78125 83.505626372275 L 290.7109375 71.60649355656159 L 293.640625 58.48670358880037 L 296.5703125 44.021036933591404 L 299.5 28.071428571428612 L 302.4296875 10.485650261324167 L 304.8450284285232 -5.5" stroke-linecap="round" stroke-linejoin="round" stroke-miterlimit="10" stroke-width="2.5" stroke-opacity="0.9" stroke-dasharray=""/></g><g><path fill="none" stroke="#388c46" class="dcg-svg-curve" paint-order="fill stroke markers" d=" M -0.5 199.49092001404748 L -0.5 199.49092001404748 L 86.51171875 199.33491454143294 L 117.712890625 199.03291916681135 L 137.634765625 198.59261681777693 L 152.4296875 198.0141698842932 L 164.1484375 197.30408543832783 L 173.962890625 196.45425037220386 L 182.3125 195.4768411946518 L 189.63671875 194.36434191699465 L 196.228515625 193.1023255698087 L 202.234375 191.68433645743013 L 207.80078125 190.0909053118318 L 212.927734375 188.33732996206794 L 217.76171875 186.38563765902185 L 222.302734375 184.24243906735052 L 226.697265625 181.83545445742377 L 230.9453125 179.14836776972516 L 235.046875 176.16673869266378 L 239.001953125 172.878589340046 L 242.95703125 169.12707029286605 L 246.912109375 164.84688297407843 L 250.720703125 160.15610549787522 L 254.236328125 155.26447036618958 L 257.751953125 149.76465715339788 L 261.12109375 143.85342716502217 L 264.34375 137.54289030466367 L 267.56640625 130.5167141257071 L 270.7890625 122.69374235798773 L 273.865234375 114.40015799066629 L 276.94140625 105.21102756017808 L 280.017578125 95.02964948181216 L 283.09375 83.74888027750313 L 286.169921875 71.25000705411435 L 289.099609375 58.09364737950466 L 292.029296875 43.587659561361875 L 294.958984375 27.593593741908705 L 297.888671875 9.958797363749738 L 300.2179158596992 -5.5" stroke-linecap="round" stroke-linejoin="round" stroke-miterlimit="10" stroke-width="2.5" stroke-opacity="0.9" stroke-dasharray=""/></g><g><path fill="none" stroke="#388c46" class="dcg-svg-curve" paint-order="fill stroke markers" d=" M -0.5 199.48962287319713 L -0.5 199.48962287319713 L 83.2890625 199.3305474768535 L 114.05078125 199.02753512140524 L 133.826171875 198.5866281323746 L 148.474609375 198.01164858924204 L 160.193359375 197.30035920579382 L 170.0078125 196.449082060307 L 178.357421875 195.47001432374722 L 185.681640625 194.35562725360722 L 192.2734375 193.09146939943673 L 198.279296875 191.67107411094565 L 203.845703125 190.0749390828379 L 208.97265625 188.31838810295017 L 213.806640625 186.36338398646524 L 218.34765625 184.21654861563198 L 222.7421875 181.80547960983716 L 226.990234375 179.11383322295345 L 231.091796875 176.12714463972313 L 235.046875 172.83341564875863 L 239.001953125 169.0755306743383 L 242.95703125 164.788080334704 L 246.765625 160.08934310999933 L 250.28125 155.1894073958182 L 253.796875 149.68026158726792 L 257.166015625 143.759000872796 L 260.388671875 137.4377557052171 L 263.611328125 130.39965685553153 L 266.833984375 122.56341034004993 L 269.91015625 114.25575264563622 L 272.986328125 105.05102924201191 L 276.0625 94.85237445220247 L 279.138671875 83.55246298710085 L 282.068359375 71.65813484495067 L 284.998046875 58.54364243197671 L 287.927734375 44.08381677436222 L 290.857421875 28.14064860097858 L 293.787109375 10.561971138090826 L 296.2149622813268 -5.5" stroke-linecap="round" stroke-linejoin="round" stroke-miterlimit="10" stroke-width="2.5" stroke-opacity="0.9" stroke-dasharray=""/></g><g><path fill="none" stroke="#388c46" class="dcg-svg-curve" paint-order="fill stroke markers" d=" M -0.5 199.4883257323468 L -0.5 199.4883257323468 L 80.359375 199.3271023892675 L 110.974609375 199.02027770407975 L 130.603515625 198.57711534304843 L 145.251953125 197.99614737454988 L 156.970703125 197.27744989556632 L 166.638671875 196.43232220338797 L 174.98828125 195.44787607399593 L 182.3125 194.3273672502666 L 188.904296875 193.0562648944157 L 194.91015625 191.62806683237446 L 200.330078125 190.06932445130744 L 205.45703125 188.31172707112555 L 210.291015625 186.35555833322846 L 214.83203125 184.20744406460668 L 219.2265625 181.7949387536059 L 223.474609375 179.10168891791636 L 227.576171875 176.11322112540145 L 231.53125 172.817530017183 L 235.486328125 169.05740642174464 L 239.44140625 164.76740199210784 L 243.25 160.06586566844697 L 246.765625 155.16301099874926 L 250.28125 149.6505833202955 L 253.650390625 143.72579523370365 L 256.873046875 137.40078441805724 L 260.095703125 130.35849288123006 L 263.318359375 122.51757821164819 L 266.39453125 114.20497153735568 L 269.470703125 104.99476476012717 L 272.546875 94.79003449884283 L 275.623046875 83.48339152932328 L 278.552734375 71.58197778099952 L 281.482421875 58.45967289410589 L 284.412109375 43.99123333003752 L 287.341796875 28.038567603745946 L 290.271484375 10.44941829376728 L 292.68088900277417 -5.5" stroke-linecap="round" stroke-linejoin="round" stroke-miterlimit="10" stroke-width="2.5" stroke-opacity="0.9" stroke-dasharray=""/></g><g><path fill="none" stroke="#388c46" class="dcg-svg-curve" paint-order="fill stroke markers" d=" M -0.5 199.48702859149643 L -0.5 199.48702859149643 L 77.869140625 199.32319414309086 L 108.19140625 199.01420123980816 L 127.8203125 198.56542550563123 L 142.322265625 197.9845165484558 L 153.89453125 197.27117021981607 L 163.5625 196.4236546724151 L 171.912109375 195.43642705230488 L 179.236328125 194.3127523012589 L 185.828125 193.03805852552316 L 191.833984375 191.6058251795444 L 197.25390625 190.04267866976429 L 202.380859375 188.2801153085568 L 207.21484375 186.31841953873263 L 211.755859375 184.16423590814034 L 216.150390625 181.7449142148818 L 220.3984375 179.04405477090995 L 224.5 176.0471432503146 L 228.455078125 172.74214037382993 L 232.41015625 168.97139278529775 L 236.365234375 164.66926721754507 L 240.173828125 159.95444699824486 L 243.689453125 155.03773962056331 L 247.205078125 149.5097369238689 L 250.57421875 143.56820872059825 L 253.796875 137.22532698408492 L 257.01953125 130.16313789475646 L 260.2421875 122.30006921316283 L 263.318359375 113.96397579072021 L 266.39453125 104.72774615261739 L 269.470703125 94.49418306680798 L 272.546875 83.15559388760317 L 275.4765625 71.2205534421085 L 278.40625 58.06117230680036 L 281.3359375 43.55185307532071 L 284.265625 27.554114093801616 L 287.1953125 9.915267746996335 L 289.51746438841286 -5.5" stroke-linecap="round" stroke-linejoin="round" stroke-miterlimit="10" stroke-width="2.5" stroke-opacity="0.9" stroke-dasharray=""/></g></g></g><g id="labels-66edab84"/></g></svg>