<svg version="1.1" xmlns="http://www.w3.org/2000/svg" xmlns:xlink="http://www.w3.org/1999/xlink" width="600" height="400"><defs/><g transform="scale(1,1)"><g id="background-49e6e2fb"><rect fill="white" stroke="none" x="0" y="0" width="600" height="400" class="dcg-svg-background"/></g><g id="background-images-49e6e2fb"/><g id="graphpaper-49e6e2fb"><g id="grid-49e6e2fb"><g><path fill="none" stroke="rgb(0,0,0)" class="dcg-svg-minor-gridline" paint-order="fill stroke markers" d=" M -0.5 0 L -0.5 400" stroke-opacity="0.12" stroke-miterlimit="10" stroke-dasharray=""/><path fill="none" stroke="rgb(0,0,0)" class="dcg-svg-minor-gridline" paint-order="fill stroke markers" d=" M 29.5 0 L 29.5 400" stroke-opacity="0.12" stroke-miterlimit="10" stroke-dasharray=""/><path fill="none" stroke="rgb(0,0,0)" class="dcg-svg-minor-gridline" paint-order="fill stroke markers" d=" M 59.5 0 L 59.5 400" stroke-opacity="0.12" stroke-miterlimit="10" stroke-dasharray=""/><path fill="none" stroke="rgb(0,0,0)" class="dcg-svg-minor-gridline" paint-order="fill stroke markers" d=" M 89.5 0 L 89.5 400" stroke-opacity="0.12" stroke-miterlimit="10" stroke-dasharray=""/><path fill="none" stroke="rgb(0,0,0)" class="dcg-svg-minor-gridline" paint-order="fill stroke markers" d=" M 119.5 0 L 119.5 400" stroke-opacity="0.12" stroke-miterlimit="10" stroke-dasharray=""/><path fill="none" stroke="rgb(0,0,0)" class="dcg-svg-minor-gridline" paint-order="fill stroke markers" d=" M 149.5 0 L 149.5 400" stroke-opacity="0.12" stroke-miterlimit="10" stroke-dasharray=""/><path fill="none" stroke="rgb(0,0,0)" class="dcg-svg-minor-gridline" paint-order="fill stroke markers" d=" M 179.5 0 L 179.5 400" stroke-opacity="0.12" stroke-miterlimit="10" stroke-dasharray=""/><path fill="none" stroke="rgb(0,0,0)" class="dcg-svg-minor-gridline" paint-order="fill stroke markers" d=" M 209.5 0 L 209.5 400" stroke-opacity="0.12" stroke-miterlimit="10" stroke-dasharray=""/><path fill="none" stroke="rgb(0,0,0)" class="dcg-svg-minor-gridline" paint-order="fill stroke markers" d=" M 239.5 0 L 239.5 400" stroke-opacity="0.12" stroke-miterlimit="10" stroke-dasharray=""/><path fill="none" stroke="rgb(0,0,0)" class="dcg-svg-minor-gridline" paint-order="fill stroke markers" d=" M 269.5 0 L 269.5 400" stroke-opacity="0.12" stroke-miterlimit="10" stroke-dasharray=""/><path fill="none" stroke="rgb(0,0,0)" class="dcg-svg-minor-gridline" paint-order="fill stroke markers" d=" M 329.5 0 L 329.5 400" stroke-opacity="0.12" stroke-miterlimit="10" stroke-dasharray=""/><path fill="none" stroke="rgb(0,0,0)" class="dcg-svg-minor-gridline" paint-order="fill stroke markers" d=" M 359.5 0 L 359.5 400" stroke-opacity="0.12" stroke-miterlimit="10" stroke-dasharray=""/><path fill="none" stroke="rgb(0,0,0)" class="dcg-svg-minor-gridline" paint-order="fill stroke markers" d=" M 389.5 0 L 389.5 400" stroke-opacity="0.12" stroke-miterlimit="10" stroke-dasharray=""/><path fill="none" stroke="rgb(0,0,0)" class="dcg-svg-minor-gridline" paint-order="fill stroke markers" d=" M 419.5 0 L 419.5 400" stroke-opacity="0.12" stroke-miterlimit="10" stroke-dasharray=""/><path fill="none" stroke="rgb(0,0,0)" class="dcg-svg-minor-gridline" paint-order="fill stroke markers" d=" M 449.5 0 L 449.5 400" stroke-opacity="0.12" stroke-miterlimit="10" stroke-dasharray=""/><path fill="none" stroke="rgb(0,0,0)" class="dcg-svg-minor-gridline" paint-order="fill stroke markers" d=" M 479.5 0 L 479.5 400" stroke-opacity="0.12" stroke-miterlimit="10" stroke-dasharray=""/><path fill="none" stroke="rgb(0,0,0)" class="dcg-svg-minor-gridline" paint-order="fill stroke markers" d=" M 509.5 0 L 509.5 400" stroke-opacity="0.12" stroke-miterlimit="10" stroke-dasharray=""/><path fill="none" stroke="rgb(0,0,0)" class="dcg-svg-minor-gridline" paint-order="fill stroke markers" d=" M 539.5 0 L 539.5 400" stroke-opacity="0.12" stroke-miterlimit="10" stroke-dasharray=""/><path fill="none" stroke="rgb(0,0,0)" class="dcg-svg-minor-gridline" paint-order="fill stroke markers" d=" M 569.5 0 L 569.5 400" stroke-opacity="0.12" stroke-miterlimit="10" stroke-dasharray=""/><path fill="none" stroke="rgb(0,0,0)" class="dcg-svg-minor-gridline" paint-order="fill stroke markers" d=" M 0 359.5 L 600 359.5" stroke-opacity="0.12" stroke-miterlimit="10" stroke-dasharray=""/><path fill="none" stroke="rgb(0,0,0)" class="dcg-svg-minor-gridline" paint-order="fill stroke markers" d=" M 0 319.5 L 600 319.5" stroke-opacity="0.12" stroke-miterlimit="10" stroke-dasharray=""/><path fill="none" stroke="rgb(0,0,0)" class="dcg-svg-minor-gridline" paint-order="fill stroke markers" d=" M 0 279.5 L 600 279.5" stroke-opacity="0.12" stroke-miterlimit="10" stroke-dasharray=""/><path fill="none" stroke="rgb(0,0,0)" class="dcg-svg-minor-gridline" paint-order="fill stroke markers" d=" M 0 239.5 L 600 239.5" stroke-opacity="0.12" stroke-miterlimit="10" stroke-dasharray=""/><path fill="none" stroke="rgb(0,0,0)" class="dcg-svg-minor-gridline" paint-order="fill stroke markers" d=" M 0 199.5 L 600 199.5" stroke-opacity="0.12" stroke-miterlimit="10" stroke-dasharray=""/><path fill="none" stroke="rgb(0,0,0)" class="dcg-svg-minor-gridline" paint-order="fill stroke markers" d=" M 0 159.5 L 600 159.5" stroke-opacity="0.12" stroke-miterlimit="10" stroke-dasharray=""/><path fill="none" stroke="rgb(0,0,0)" class="dcg-svg-minor-gridline" paint-order="fill stroke markers" d=" M 0 119.5 L 600 119.5" stroke-opacity="0.12" stroke-miterlimit="10" stroke-dasharray=""/><path fill="none" stroke="rgb(0,0,0)" class="dcg-svg-minor-gridline" paint-order="fill stroke markers" d=" M 0 79.5 L 600 79.5" stroke-opacity="0.12" stroke-miterlimit="10" stroke-dasharray=""/><path fill="none" stroke="rgb(0,0,0)" class="dcg-svg-minor-gridline" paint-order="fill stroke markers" d=" M 0 39.5 L 600 39.5" stroke-opacity="0.12" stroke-miterlimit="10" stroke-dasharray=""/><path fill="none" stroke="rgb(0,0,0)" class="dcg-svg-minor-gridline" paint-order="fill stroke markers" d=" M 0 -0.5 L 600 -0.5" stroke-opacity="0.12" stroke-miterlimit="10" stroke-dasharray=""/><path fill="none" stroke="rgb(0,0,0)" class="dcg-svg-major-gridline" paint-order="fill stroke markers" d=" M -0.5 0 L -0.5 400" stroke-opacity="0.31818181818181823" stroke-miterlimit="10" stroke-dasharray=""/><path fill="none" stroke="rgb(0,0,0)" class="dcg-svg-major-gridline" paint-order="fill stroke markers" d=" M 149.5 0 L 149.5 400" stroke-opacity="0.31818181818181823" stroke-miterlimit="10" stroke-dasharray=""/><path fill="none" stroke="rgb(0,0,0)" class="dcg-svg-major-gridline" paint-order="fill stroke markers" d=" M 449.5 0 L 449.5 400" stroke-opacity="0.31818181818181823" stroke-miterlimit="10" stroke-dasharray=""/><path fill="none" stroke="rgb(0,0,0)" class="dcg-svg-major-gridline" paint-order="fill stroke markers" d=" M 0 199.5 L 600 199.5" stroke-opacity="0.31818181818181823" stroke-miterlimit="10" stroke-dasharray=""/><path fill="none" stroke="rgb(0,0,0)" class="dcg-svg-major-gridline" paint-order="fill stroke markers" d=" M 0 -0.5 L 600 -0.5" stroke-opacity="0.31818181818181823" stroke-miterlimit="10" stroke-dasharray=""/></g></g><g id="axis-49e6e2fb"><g id="yaxis-49e6e2fb"><title>Y axis</title><path fill="none" stroke="rgb(0,0,0)" class="dcg-svg-axis-line" paint-order="fill stroke markers" d=" M 299.75 0 L 299.75 400" stroke-opacity="0.9" stroke-miterlimit="10" stroke-width="1.5" stroke-dasharray=""/></g><g id="xaxis-49e6e2fb"><title>X axis</title><path fill="none" stroke="rgb(0,0,0)" class="dcg-svg-axis-line" paint-order="fill stroke markers" d=" M 0 399.75 L 600 399.75" stroke-opacity="0.9" stroke-miterlimit="10" stroke-width="1.5" stroke-dasharray=""/></g><g><g class="dcg-svg-axis-value"><text fill="none" stroke="#ffffff" font-family="Arial" font-size="14px" font-style="normal" font-weight="normal" text-decoration="normal" x="291.10693359375" y="415.808" text-anchor="middle" stroke-miterlimit="2" stroke-width="3" stroke-dasharray="">0</text><text fill="#000000" stroke="none" font-family="Arial" font-size="14px" font-style="normal" font-weight="normal" text-decoration="normal" x="291.10693359375" y="415.808" text-anchor="middle">0</text></g><g class="dcg-svg-axis-value dcg-svg-offcenter-axis-value"><text fill="none" stroke="#ffffff" font-family="Arial" font-size="14px" font-style="normal" font-weight="normal" text-decoration="normal" x="13.1171875" y="393.808" text-anchor="middle" stroke-miterlimit="2" stroke-width="3" stroke-dasharray="">-10</text><text fill="rgb(150,150,150)" stroke="none" font-family="Arial" font-size="14px" font-style="normal" font-weight="normal" text-decoration="normal" x="13.1171875" y="393.808" text-anchor="middle" fill-opacity="1">-10</text></g><g class="dcg-svg-axis-value"><text fill="none" stroke="#ffffff" font-family="Arial" font-size="14px" font-style="normal" font-weight="normal" text-decoration="normal" x="147.6689453125" y="393.808" text-anchor="middle" stroke-miterlimit="2" stroke-width="3" stroke-dasharray="">-5</text><text fill="rgb(150,150,150)" stroke="none" font-family="Arial" font-size="14px" font-style="normal" font-weight="normal" text-decoration="normal" x="147.6689453125" y="393.808" text-anchor="middle" fill-opacity="1">-5</text></g><g class="dcg-svg-axis-value"><text fill="none" stroke="#ffffff" font-family="Arial" font-size="14px" font-style="normal" font-weight="normal" text-decoration="normal" x="450" y="393.808" text-anchor="middle" stroke-miterlimit="2" stroke-width="3" stroke-dasharray="">5</text><text fill="rgb(150,150,150)" stroke="none" font-family="Arial" font-size="14px" font-style="normal" font-weight="normal" text-decoration="normal" x="450" y="393.808" text-anchor="middle" fill-opacity="1">5</text></g><g class="dcg-svg-axis-value dcg-svg-offcenter-axis-value"><text fill="none" stroke="#ffffff" font-family="Arial" font-size="14px" font-style="normal" font-weight="normal" text-decoration="normal" x="589.2138671875" y="393.808" text-anchor="middle" stroke-miterlimit="2" stroke-width="3" stroke-dasharray="">10</text><text fill="rgb(150,150,150)" stroke="none" font-family="Arial" font-size="14px" font-style="normal" font-weight="normal" text-decoration="normal" x="589.2138671875" y="393.808" text-anchor="middle" fill-opacity="1">10</text></g><g class="dcg-svg-axis-value"><text fill="none" stroke="#ffffff" font-family="Arial" font-size="14px" font-style="normal" font-weight="normal" text-decoration="normal" x="285.26904296875" y="203.808" text-anchor="middle" stroke-miterlimit="2" stroke-width="3" stroke-dasharray="">0.5</text><text fill="#000000" stroke="none" font-family="Arial" font-size="14px" font-style="normal" font-weight="normal" text-decoration="normal" x="285.26904296875" y="203.808" text-anchor="middle">0.5</text></g><g class="dcg-svg-axis-value dcg-svg-offcenter-axis-value"><text fill="none" stroke="#ffffff" font-family="Arial" font-size="14px" font-style="normal" font-weight="normal" text-decoration="normal" x="291.10693359375" y="13.808" text-anchor="middle" stroke-miterlimit="2" stroke-width="3" stroke-dasharray="">1</text><text fill="#000000" stroke="none" font-family="Arial" font-size="14px" font-style="normal" font-weight="normal" text-decoration="normal" x="291.10693359375" y="13.808" text-anchor="middle">1</text></g></g></g></g><g id="expressions-49e6e2fb"><g id="sketch-49e6e2fb"><title>Expression 1</title><path fill="#2d70b3" stroke="none" paint-order="stroke fill markers" d="" fill-opacity="0.4"/><g><path fill="none" stroke="#2d70b3" class="dcg-svg-curve" paint-order="fill stroke markers" d=" M -0.5 399.47323395484705 L -0.5 399.47323395484705 L 33.19140625 399.28393623404014 L 50.623046875 398.93752765388314 L 63.220703125 398.4344498239914 L 73.328125 397.776723947371 L 81.970703125 396.9584237082401 L 89.587890625 395.981482029531 L 96.47265625 394.84401408127354 L 102.91796875 393.51979381072476 L 108.923828125 392.02694191908273 L 114.63671875 390.3478893285598 L 120.056640625 388.50005265146785 L 125.330078125 386.4473136420539 L 130.603515625 384.1306897634937 L 135.73046875 381.6177746904149 L 140.857421875 378.84535586303485 L 145.984375 375.8166659869826 L 151.2578125 372.4443733636017 L 156.82421875 368.6223160261687 L 162.830078125 364.2328659572191 L 169.71484375 358.9313993520124 L 179.529296875 351.0822251444832 L 191.248046875 341.75650850736946 L 197.400390625 337.12183177868957 L 202.52734375 333.5088347250462 L 207.21484375 330.4652089750061 L 211.462890625 327.9639781653534 L 215.41796875 325.88630927344855 L 219.2265625 324.1387063709073 L 222.888671875 322.71154079796725 L 226.55078125 321.54828241551627 L 230.06640625 320.69166720791327 L 233.58203125 320.0987097999058 L 237.09765625 319.7754737895736 L 240.466796875 319.72190129831034 L 243.8359375 319.919612598344 L 247.3515625 320.39178341221316 L 250.8671875 321.13067484175554 L 254.3828125 322.1287544348419 L 258.044921875 323.43311779335966 L 261.853515625 325.0610831923184 L 265.80859375 327.0245426374786 L 269.91015625 329.32883304155513 L 274.3046875 332.06706706532424 L 278.9921875 335.25119293871137 L 284.265625 339.0962679796199 L 290.7109375 344.06925674234606 L 300.96484375 352.2871194855028 L 311.951171875 361.012745899022 L 318.8359375 366.21237714642945 L 324.841796875 370.484789821059 L 330.408203125 374.1808963674541 L 335.681640625 377.4231289662668 L 340.80859375 380.3193437866537 L 345.935546875 382.95684378327053 L 351.0625 385.3354673700286 L 356.3359375 387.5173816825525 L 361.609375 389.4411951805873 L 367.17578125 391.20762468482417 L 372.888671875 392.75910281255244 L 378.89453125 394.13094614322085 L 385.33984375 395.34083247119895 L 392.37109375 396.3931633907656 L 399.98828125 397.2698055584136 L 408.630859375 397.9985552987326 L 418.73828125 398.57929519940984 L 431.04296875 399.0114312973801 L 447.15625 399.3000454835625 L 472.05859375 399.45637907546313 L 533.728515625 399.49952123013685 L 599.5 399.49999878482345" stroke-linecap="round" stroke-linejoin="round" stroke-miterlimit="10" stroke-width="2.5" stroke-opacity="0.9" stroke-dasharray=""/></g></g><g id="sketch-49e6e2fb"><title>Expression 2</title><path fill="#388c46" stroke="none" paint-order="stroke fill markers" d="" fill-opacity="0.4"/><g><path fill="none" stroke="#388c46" class="dcg-svg-curve" paint-order="fill stroke markers" d=" M -0.5 399.5 L -0.5 399.5 L 300.232421875 399.3699981240742 L 304.7734375 399.0892928715087 L 307.849609375 398.65014429117986 L 310.193359375 398.06217842523336 L 312.09765625 397.33508860990077 L 313.708984375 396.4775141791093 L 315.173828125 395.4471115192317 L 316.4921875 394.2653964312111 L 317.6640625 392.9711006254416 L 318.8359375 391.40633117091886 L 319.861328125 389.7811857421388 L 320.88671875 387.88413184137414 L 321.765625 386.01620459416057 L 322.64453125 383.90154434742846 L 323.5234375 381.51708799820926 L 324.40234375 378.83918714596246 L 325.28125 375.8438668006592 L 326.013671875 373.0879728447082 L 326.74609375 370.0812460056275 L 327.478515625 366.8102668510972 L 328.2109375 363.2620987304337 L 328.943359375 359.42447128258124 L 329.67578125 355.2859757309484 L 330.408203125 350.83627030787943 L 331.140625 346.06629379669965 L 331.873046875 340.968484827141 L 332.60546875 335.53700421874373 L 333.337890625 329.76795734529975 L 334.0703125 323.65961320072813 L 334.802734375 317.21261659227883 L 335.53515625 310.43018967993476 L 336.4140625 301.8571430620524 L 337.29296875 292.8257994700278 L 338.171875 283.3585393320812 L 339.05078125 273.48445010997335 L 340.076171875 261.4988714135428 L 341.248046875 247.2725358433889 L 342.56640625 230.74321542746551 L 344.470703125 206.30149916122883 L 346.814453125 176.30042940542555 L 347.986328125 161.78199803401856 L 349.01171875 149.5602811248968 L 349.890625 139.55423862669136 L 350.623046875 131.61402492581084 L 351.35546875 124.08868731872195 L 352.087890625 117.02622460266832 L 352.673828125 111.74047619949278 L 353.259765625 106.80278044848689 L 353.845703125 102.23429596615404 L 354.431640625 98.05482548362926 L 355.017578125 94.2826730272185 L 355.45703125 91.73095521434345 L 355.896484375 89.42415867358869 L 356.3359375 87.36809215715385 L 356.775390625 85.56795787284261 L 357.21484375 84.02832955534609 L 357.654296875 82.75313310497472 L 358.09375 81.74562990854099 L 358.533203125 81.00840294156689 L 358.97265625 80.54334573470317 L 359.412109375 80.35165427032484 L 359.8515625 80.43382185784037 L 360.291015625 80.78963701844685 L 360.73046875 81.41818439202672 L 361.169921875 82.31784866074179 L 361.609375 83.48632146578638 L 362.048828125 84.92061127584759 L 362.48828125 86.61705614822455 L 362.927734375 88.57133930642061 L 363.3671875 90.77850744146377 L 363.806640625 93.23299162836742 L 364.24609375 95.92863073412224 L 364.83203125 99.88624004263772 L 365.41796875 104.24312479562195 L 366.00390625 108.98028944325955 L 366.58984375 114.07730292267547 L 367.17578125 119.51244523531079 L 367.908203125 126.74695330713132 L 368.640625 134.4272678821664 L 369.373046875 142.50477175484548 L 370.251953125 152.65161692305296 L 371.27734375 165.00411822472398 L 372.44921875 179.6279170392428 L 374.20703125 202.14311088638786 L 376.84375 235.93406794466765 L 378.162109375 252.30912011452818 L 379.333984375 266.34950858571784 L 380.359375 278.1408599405057 L 381.23828125 287.8291503745822 L 382.1171875 297.09618918684856 L 382.99609375 305.9160471903702 L 383.875 314.26938549553194 L 384.607421875 320.8645277560849 L 385.33984375 327.1221063362376 L 386.072265625 333.0403664526351 L 386.8046875 338.6200193548631 L 387.537109375 343.86403434377644 L 388.26953125 348.77742227582957 L 389.001953125 353.36701422499107 L 389.734375 357.6412387390877 L 390.466796875 361.6099008503939 L 391.19921875 365.283965690304 L 391.931640625 368.67534922426756 L 392.6640625 371.79671827478967 L 393.396484375 374.66130164568017 L 394.12890625 377.2827138076776 L 395.0078125 380.1269124284114 L 395.88671875 382.66490226539594 L 396.765625 384.9205409433906 L 397.64453125 386.91723320971204 L 398.669921875 388.94968300642284 L 399.6953125 390.695080092672 L 400.720703125 392.1859849248253 L 401.892578125 393.6171022158815 L 403.064453125 394.796988607284 L 404.3828125 395.8705534289595 L 405.84765625 396.8030918296721 L 407.458984375 397.575974788092 L 409.36328125 398.2281684263002 L 411.70703125 398.7526025437486 L 414.63671875 399.1284272864854 L 418.73828125 399.3689912511914 L 425.916015625 399.4823451130572 L 454.7734375 399.4999994456668 L 599.5 399.5" stroke-linecap="round" stroke-linejoin="round" stroke-miterlimit="10" stroke-width="2.5" stroke-opacity="0.9" stroke-dasharray=""/></g></g><g id="sketch-49e6e2fb"><title>Expression 3</title><path fill="#6042a6" stroke="none" paint-order="stroke fill markers" d="" fill-opacity="0.4"/><g><path fill="none" stroke="#6042a6" class="dcg-svg-curve" paint-order="fill stroke markers" d=" M -0.5 399.5 L -0.5 399.5 L 336.267578125 399.371339064728 L 345.935546875 399.08775539459447 L 352.380859375 398.65426127768825 L 357.361328125 398.0722243250772 L 361.462890625 397.3474040026439 L 365.125 396.44295767250145 L 368.34765625 395.3884413807025 L 371.27734375 394.17079752892863 L 373.9140625 392.82407912187796 L 376.404296875 391.2994372237934 L 378.748046875 389.6101950954604 L 380.9453125 387.77695608137947 L 383.142578125 385.6782408007576 L 385.193359375 383.45956591462055 L 387.244140625 380.971534570762 L 389.1484375 378.40534165657374 L 391.052734375 375.58030439815894 L 392.95703125 372.4859991038398 L 394.861328125 369.11408771542307 L 396.765625 365.4587296845124 L 398.669921875 361.5169928536847 L 400.57421875 357.2892527245894 L 402.478515625 352.77956854239903 L 404.3828125 347.99602395180983 L 406.287109375 342.951019642415 L 408.337890625 337.2450815990063 L 410.53515625 330.84810299965727 L 412.87890625 323.7477645980423 L 415.662109375 315.028573949206 L 419.763671875 301.86105381612174 L 424.3046875 287.34775801721435 L 426.794921875 279.66381372883603 L 428.845703125 273.59520509569046 L 430.75 268.23561257985 L 432.5078125 263.5729976942222 L 434.119140625 259.576230299685 L 435.583984375 256.20010099069634 L 437.048828125 253.09199160205316 L 438.3671875 250.5410554180771 L 439.685546875 248.2380709090077 L 441.00390625 246.19582665412784 L 442.322265625 244.42577651704636 L 443.640625 242.93793269180952 L 444.958984375 241.7407713935333 L 446.130859375 240.9262408498939 L 447.302734375 240.3505329669435 L 448.474609375 240.0162735673006 L 449.646484375 239.9249901331211 L 450.818359375 240.0771001783211 L 451.990234375 240.47190806747292 L 453.162109375 241.10761031528776 L 454.333984375 241.9813093101931 L 455.65234375 243.2437175908848 L 456.970703125 244.79506187984114 L 458.2890625 246.6265171763019 L 459.607421875 248.72774229923778 L 460.92578125 251.08697711977197 L 462.244140625 253.6911521402649 L 463.708984375 256.85457675119335 L 465.173828125 260.2816869803189 L 466.78515625 264.32922227864054 L 468.54296875 269.0405677353051 L 470.447265625 274.44483778227163 L 472.498046875 280.5519270528232 L 474.841796875 287.80806164187044 L 478.064453125 298.083815346646 L 484.802734375 319.6502663310546 L 487.439453125 327.77365035230156 L 489.783203125 334.7194268284071 L 491.833984375 340.5388880767222 L 493.884765625 346.0857562405475 L 495.7890625 350.97157386314296 L 497.693359375 355.58777553756886 L 499.59765625 359.92464881644247 L 501.501953125 363.9766245794904 L 503.40625 367.74195334787964 L 505.310546875 371.2223413505693 L 507.21484375 374.4225587600923 L 509.119140625 377.35003196392364 L 511.0234375 380.0144308847817 L 512.927734375 382.427261270293 L 514.978515625 384.75923005726287 L 517.029296875 386.8320108594514 L 519.2265625 388.78623230358556 L 521.5703125 390.5924585905091 L 523.9140625 392.13923841183697 L 526.404296875 393.529563915839 L 529.1875 394.8134627541327 L 532.1171875 395.9014672353534 L 535.33984375 396.83840199959764 L 539.001953125 397.636991050415 L 543.25 398.2910967859205 L 548.23046875 398.7902666253191 L 554.529296875 399.15211817203306 L 563.46484375 399.3827001201644 L 579.28515625 399.48623127457313 L 599.5 399.4994053121941" stroke-linecap="round" stroke-linejoin="round" stroke-miterlimit="10" stroke-width="2.5" stroke-opacity="0.9" stroke-dasharray=""/></g></g></g><g id="labels-49e6e2fb"/></g></svg>